<?xml version="1.0" standalone="no"?>
<!DOCTYPE svg PUBLIC "-//W3C//DTD SVG 20010904//EN"
 "http://www.w3.org/TR/2001/REC-SVG-20010904/DTD/svg10.dtd">
<svg version="1.0" xmlns="http://www.w3.org/2000/svg"
 width="567pt" height="733pt" viewBox="0 0 1700.000000 2200.000000"
 preserveAspectRatio="xMidYMid meet">

<g transform="translate(0.000000,2200.000000) scale(0.100000,-0.100000)"
fill="#000000" stroke="none">
<path d="M1139 21390 c-120 -14 -296 -57 -365 -89 -72 -34 -91 -59 -123 -160
-19 -60 -22 -106 -32 -506 -12 -465 -26 -2064 -28 -3145 -1 -398 5 -846 15
-1170 21 -695 23 -2538 5 -4440 -10 -1158 -11 -1669 -1 -2575 6 -621 15 -1204
20 -1295 12 -229 12 -1131 0 -1570 -13 -511 -15 -915 -12 -1980 2 -509 -1
-1083 -7 -1276 -6 -221 -6 -387 0 -449 5 -54 13 -364 19 -689 15 -866 23 -973
82 -1094 22 -46 93 -109 162 -144 54 -27 343 -46 452 -30 50 8 98 8 163 1 67
-7 112 -7 164 1 92 15 286 18 2387 31 2102 13 3038 23 3685 38 493 11 783 7
1410 -20 144 -6 323 -8 400 -4 207 10 2020 27 3475 32 986 3 1314 1 1445 -9
227 -17 377 -16 905 10 485 24 579 33 716 67 151 38 235 90 276 169 49 95 50
114 58 1051 4 484 11 923 14 975 7 97 29 2209 31 2980 1 234 5 499 9 590 9
197 -5 589 -39 1085 -31 463 -35 568 -40 1230 -3 303 -10 739 -16 970 -7 249
-14 1497 -17 3065 -9 4154 -8 5023 5 5330 7 151 17 421 23 600 6 179 18 395
27 480 24 246 30 1048 9 1315 -9 116 -21 241 -26 278 -20 136 -79 209 -205
250 -16 5 -239 13 -495 17 -699 12 -1429 29 -1765 41 -486 17 -1438 28 -1575
18 -69 -5 -588 -9 -1155 -8 -566 1 -1554 -3 -2195 -10 -871 -9 -1396 -10
-2080 -2 -1951 23 -3326 33 -3820 27 -283 -3 -684 -1 -890 5 -565 15 -986 19
-1071 9z m906 -81 c121 -5 428 -9 682 -8 255 0 468 -3 475 -7 7 -4 101 -69
208 -144 107 -75 272 -189 365 -252 275 -188 295 -202 291 -214 -2 -5 -63 -87
-135 -182 -92 -119 -152 -210 -199 -299 l-68 -128 -139 -6 c-169 -7 -203 -13
-277 -50 -71 -36 -55 -41 -378 125 -135 69 -270 138 -300 153 -36 19 -69 47
-98 83 -95 120 -127 153 -249 255 -170 141 -187 149 -339 153 -100 3 -137 0
-209 -18 l-88 -22 -211 106 c-326 163 -571 307 -571 336 0 29 56 52 210 86 88
20 198 40 245 44 93 9 438 5 785 -11z m2783 -9 c726 -6 1099 -13 1112 -20 11
-6 38 -38 61 -73 84 -124 250 -336 524 -667 193 -233 242 -301 223 -311 -7 -4
-37 -14 -65 -22 l-53 -16 -41 72 c-121 211 -139 234 -284 358 -120 103 -268
152 -460 153 -125 1 -178 -10 -319 -66 l-99 -39 -46 33 c-25 18 -68 49 -95 69
-83 63 -243 138 -331 156 -107 21 -290 13 -443 -21 -127 -28 -168 -45 -279
-118 -42 -28 -82 -52 -89 -55 -19 -7 -836 560 -821 569 15 10 173 10 1505 -2z
m6179 -23 c9 -10 -59 -88 -217 -252 -323 -333 -539 -569 -879 -957 -133 -153
-244 -278 -247 -278 -3 0 -18 7 -33 15 -60 31 -304 109 -486 155 -123 31 -191
53 -193 62 -5 26 70 293 155 553 79 239 142 414 226 620 l32 80 610 6 c678 6
1022 5 1032 -4z m3018 -6 c127 -5 232 -9 234 -10 20 -6 -201 -117 -369 -186
-58 -24 -195 -87 -305 -140 -257 -124 -382 -182 -694 -317 -140 -60 -318 -140
-397 -178 -188 -89 -733 -377 -952 -502 l-172 -98 -58 29 c-99 50 -164 64
-271 59 -79 -4 -114 -12 -196 -43 -201 -75 -261 -122 -359 -278 -87 -140 -100
-186 -105 -369 -1 -30 -28 -20 -63 24 -56 71 -240 254 -314 310 -38 30 -115
82 -171 117 -57 36 -103 67 -103 70 0 7 394 463 518 601 196 217 422 457 697
740 l170 175 640 6 c756 7 1945 1 2270 -10z m-6338 -7 l92 -6 10 -31 c5 -18
28 -142 51 -277 23 -135 66 -385 96 -556 29 -171 54 -321 54 -332 0 -23 -46
-39 -280 -101 -76 -21 -156 -51 -236 -91 -66 -33 -123 -60 -126 -60 -3 0 -16
26 -29 58 -34 85 -58 117 -158 202 -104 89 -186 136 -264 151 -55 11 -55 12
-142 126 -48 63 -166 210 -262 326 -235 283 -453 570 -453 597 0 11 1465 5
1647 -6z m1579 10 c20 -5 18 -15 -61 -234 -105 -290 -170 -485 -260 -780 -51
-166 -76 -234 -86 -233 -97 14 -295 23 -521 23 l-276 0 -17 98 c-9 53 -30 165
-45 247 -65 337 -147 859 -137 867 2 3 677 12 1132 16 138 1 259 -1 271 -4z
m6259 -34 c679 -21 707 -25 743 -108 31 -72 40 -117 52 -247 6 -66 15 -163 20
-215 13 -135 23 -770 13 -865 l-8 -80 -83 118 c-45 66 -96 145 -112 178 -17
32 -50 89 -74 126 -24 37 -68 118 -99 178 -32 65 -70 124 -92 145 -20 19 -47
58 -60 85 -31 68 -302 336 -359 355 -99 32 -176 -12 -379 -220 -155 -158 -252
-284 -375 -488 -107 -177 -235 -367 -326 -487 -51 -66 -122 -166 -159 -222
-38 -57 -72 -103 -76 -103 -5 0 -20 9 -34 20 -59 46 -237 99 -335 100 -87 0
-254 -46 -385 -108 -87 -40 -100 -44 -108 -30 -5 9 -35 52 -67 95 -80 106
-214 232 -324 303 -161 104 -257 147 -432 190 -159 40 -159 40 -300 34 -242
-11 -373 -56 -552 -187 -50 -37 -98 -67 -106 -67 -8 0 -27 14 -44 31 l-29 30
23 17 c67 51 623 352 927 502 121 59 306 145 410 190 256 111 674 301 870 395
88 42 180 85 205 95 25 10 155 67 290 128 135 60 252 112 260 115 27 10 745 8
1105 -3z m-14625 -203 c52 -29 201 -109 330 -177 129 -67 243 -130 253 -139
17 -16 11 -22 -116 -123 -73 -58 -151 -115 -173 -126 -22 -11 -73 -46 -114
-77 -87 -66 -332 -305 -361 -352 -38 -61 -43 -44 -36 135 4 92 12 327 18 522
8 252 15 364 24 387 14 32 14 32 47 18 19 -7 76 -38 128 -68z m4165 -230 c94
-45 177 -97 287 -178 44 -32 90 -62 102 -65 14 -3 42 7 81 30 204 124 462 124
663 2 143 -86 205 -155 310 -343 34 -60 75 -121 91 -137 32 -31 38 -31 141 -2
96 28 164 22 259 -24 289 -140 348 -443 111 -569 -70 -37 -75 -56 -36 -124 51
-87 41 -303 -19 -431 -25 -52 -123 -180 -210 -271 -42 -45 -124 -68 -244 -69
l-95 -1 -35 -62 c-50 -87 -274 -320 -366 -382 -118 -78 -270 -127 -433 -138
-87 -6 -99 -4 -194 28 -111 37 -102 38 -140 -30 -17 -30 -119 -115 -276 -229
-165 -118 -323 -181 -460 -182 -80 0 -243 20 -277 35 -21 8 -65 56 -133 146
-56 74 -128 168 -160 209 -31 41 -90 131 -131 200 -41 69 -99 161 -131 205
-76 107 -103 155 -140 250 -45 116 -57 143 -100 215 -76 129 -207 356 -240
414 -18 33 -76 108 -129 166 -53 59 -104 120 -113 136 -16 29 -16 32 18 101
41 86 115 169 181 205 27 15 84 37 128 49 71 19 95 21 216 15 153 -7 150 -8
169 64 17 64 100 214 173 313 34 46 83 114 109 150 79 111 283 255 428 303
115 37 163 43 340 41 l175 -2 80 -38z m10405 15 c49 -33 258 -258 279 -300 12
-24 42 -62 65 -85 31 -30 66 -86 120 -192 85 -167 117 -223 227 -393 42 -64
98 -159 124 -209 l48 -93 -16 -327 c-10 -181 -22 -466 -29 -635 -6 -170 -15
-308 -18 -308 -4 0 -12 11 -18 24 -18 40 -75 98 -110 113 -30 13 -40 12 -84
-4 l-50 -18 -34 39 c-40 46 -84 155 -114 286 -56 241 -102 415 -117 443 -28
54 -107 147 -131 153 -29 8 -73 -11 -105 -44 -31 -34 -167 -381 -201 -515 -14
-54 -52 -184 -85 -290 -55 -176 -129 -499 -175 -772 -31 -180 -80 -313 -122
-329 -9 -4 -18 -5 -19 -4 -2 2 -8 46 -14 98 -10 77 -20 113 -56 190 -62 135
-97 322 -114 621 -9 148 -16 174 -63 242 -22 31 -61 36 -97 11 -41 -29 -103
-102 -196 -232 -131 -183 -188 -253 -199 -242 -12 12 16 198 51 330 13 52 57
205 98 340 97 324 100 336 85 355 -23 28 -68 17 -149 -35 -87 -56 -112 -66
-189 -75 l-53 -6 40 80 c92 183 269 457 411 636 111 140 175 233 290 420 131
213 217 331 353 482 210 235 298 294 367 245z m-13464 -127 c45 -19 286 -225
346 -297 25 -29 112 -145 193 -258 263 -364 463 -624 570 -741 33 -36 76 -94
95 -129 19 -34 93 -159 164 -278 80 -134 145 -257 172 -324 48 -119 76 -172
139 -263 47 -66 79 -125 72 -131 -9 -9 -234 135 -291 187 -93 85 -127 97 -175
60 -20 -15 -26 -31 -32 -89 -7 -64 -24 -112 -40 -112 -4 0 -60 62 -125 137
-66 76 -146 168 -180 205 -34 36 -116 147 -184 245 -137 200 -156 223 -181
223 -39 0 -69 -23 -79 -61 -6 -20 -9 -131 -8 -250 2 -206 1 -218 -26 -324 -38
-145 -45 -323 -22 -515 9 -74 21 -198 26 -275 5 -77 21 -196 36 -265 25 -119
26 -134 19 -314 -4 -104 -9 -195 -12 -203 -3 -7 -18 -13 -33 -13 -40 0 -125
91 -183 195 -27 47 -71 115 -99 152 -27 37 -70 97 -94 133 -24 37 -70 91 -102
121 -50 46 -62 64 -81 123 -27 85 -40 110 -154 306 -128 221 -139 235 -192
256 -62 23 -109 9 -163 -50 -76 -83 -92 -129 -182 -521 -42 -183 -87 -305
-113 -305 -34 0 -38 26 -37 233 0 157 -6 256 -25 428 -50 436 -64 565 -70 654
-7 90 -38 203 -69 250 -28 42 -60 33 -136 -41 l-68 -65 -7 74 c-4 41 -6 287
-4 547 l4 472 35 31 c19 17 45 44 57 60 12 16 91 102 176 191 109 113 176 174
226 206 39 25 142 98 229 163 155 116 232 162 295 177 61 15 275 11 313 -5z
m792 -586 c64 -27 163 -75 219 -105 l103 -55 -46 -56 c-25 -30 -57 -80 -72
-109 -14 -30 -29 -54 -33 -54 -10 0 -214 257 -284 359 -70 100 -72 99 113 20z
m5722 -159 c432 -28 702 -88 1033 -229 140 -60 229 -111 336 -191 102 -77 276
-243 308 -293 29 -47 26 -52 -57 -86 -144 -60 -264 -154 -364 -288 -90 -120
-100 -159 -101 -390 l0 -182 -60 -22 c-146 -54 -288 -140 -359 -219 -45 -50
-88 -141 -111 -238 -24 -96 -17 -274 12 -349 48 -121 136 -200 285 -254 127
-47 211 -62 338 -62 145 1 307 39 430 104 67 35 84 40 91 28 5 -8 33 -52 61
-99 80 -131 147 -218 237 -303 l82 -78 -49 -93 c-51 -96 -239 -385 -320 -490
-82 -107 -361 -379 -447 -436 -44 -29 -116 -79 -160 -110 -177 -127 -402 -223
-695 -299 -63 -16 -149 -34 -190 -40 -41 -6 -105 -15 -142 -21 -38 -5 -159
-11 -270 -12 -193 -3 -208 -2 -308 24 -58 15 -159 39 -225 54 -94 20 -157 43
-292 104 -347 156 -570 320 -783 574 -137 161 -169 210 -259 386 -229 448
-317 782 -356 1355 -7 97 10 308 28 340 5 11 62 74 125 140 63 66 139 152 169
191 30 40 64 75 76 78 12 4 70 11 128 16 159 13 171 20 294 174 101 126 130
176 155 269 36 132 37 253 4 408 -5 22 1 29 44 56 54 34 99 92 127 166 18 47
21 50 127 103 146 73 229 105 383 147 179 49 235 58 490 76 11 0 94 -4 185 -9z
m3975 -58 c258 -77 386 -153 565 -338 117 -121 164 -185 176 -238 7 -33 30
-66 48 -66 6 0 48 23 93 51 101 62 215 104 335 125 102 18 145 14 246 -20 156
-53 165 -67 111 -160 -81 -141 -611 -1140 -728 -1375 -68 -134 -141 -296 -163
-360 -70 -200 -131 -303 -276 -468 -59 -68 -106 -90 -165 -77 -18 3 -91 31
-164 60 -191 78 -230 76 -331 -20 -72 -68 -108 -125 -158 -250 -26 -66 -55
-127 -65 -137 -28 -28 -97 -43 -199 -43 -83 0 -103 4 -150 27 -128 63 -219
152 -220 214 0 17 -9 24 -36 32 -41 11 -57 7 -104 -30 -120 -94 -288 -105
-455 -30 -59 27 -221 161 -297 246 -58 65 -117 164 -138 232 -26 85 -34 98
-69 113 -28 11 -39 8 -133 -35 -195 -90 -296 -116 -452 -116 -108 -1 -186 12
-286 46 -136 46 -200 99 -249 205 -33 72 -34 196 -3 317 27 105 50 149 110
211 93 96 279 192 369 192 16 0 39 7 52 16 26 18 25 37 -4 134 -13 42 -15 80
-11 160 8 179 42 253 179 393 85 88 169 144 281 189 70 28 92 32 163 31 105
-3 109 1 92 100 -16 98 -3 165 56 284 81 160 181 249 357 316 75 28 94 31 198
32 109 0 119 -2 182 -32 69 -32 228 -146 228 -163 0 -5 11 -17 24 -25 23 -15
25 -14 107 67 62 62 105 94 164 125 163 84 256 104 465 99 137 -3 167 -7 255
-34z m3149 -672 c48 -53 60 -86 102 -269 85 -378 133 -504 217 -576 47 -40 63
-42 116 -15 39 19 39 19 64 0 13 -11 50 -62 82 -114 l57 -96 -8 -127 c-5 -71
-9 -371 -9 -668 0 -1423 -4 -1785 -20 -1785 -9 0 -47 24 -85 53 -38 28 -90 63
-117 77 -26 14 -66 37 -88 51 -22 15 -59 36 -82 48 -23 12 -66 42 -94 67 -61
54 -194 141 -289 189 -37 19 -114 72 -170 117 -160 131 -165 134 -264 177
-114 50 -173 54 -255 16 -86 -41 -124 -78 -219 -218 -50 -72 -112 -157 -139
-187 -26 -30 -66 -81 -87 -114 -22 -32 -80 -95 -129 -140 -116 -105 -154 -161
-272 -393 -134 -266 -180 -314 -334 -350 -136 -32 -135 -32 -321 46 -183 77
-221 84 -300 56 -69 -25 -141 -19 -228 17 -65 26 -90 31 -158 32 -73 0 -89 -4
-150 -34 -99 -48 -190 -142 -239 -245 -22 -46 -71 -121 -115 -175 -105 -130
-142 -183 -185 -268 -21 -39 -70 -110 -109 -155 -39 -46 -99 -118 -134 -160
-34 -43 -66 -77 -71 -77 -5 0 -39 38 -76 85 -37 47 -94 108 -128 136 -107 88
-187 198 -187 258 0 52 52 243 99 363 22 57 56 162 75 233 35 132 82 251 176
450 29 61 72 160 97 220 56 138 160 336 276 530 92 151 148 266 227 455 51
124 80 168 150 234 62 58 52 59 258 -19 127 -48 156 -55 217 -55 91 0 114 14
208 132 106 133 166 239 242 433 123 311 607 1256 696 1359 55 63 128 106 197
116 46 6 75 18 121 49 33 23 62 41 65 41 15 0 1 -62 -58 -250 -135 -431 -194
-731 -152 -773 22 -22 50 -22 88 1 18 9 96 104 181 217 161 215 203 265 224
265 23 0 41 -59 48 -155 27 -372 65 -589 120 -690 35 -63 55 -139 55 -206 0
-22 7 -55 14 -74 14 -33 18 -35 61 -35 112 0 142 55 200 369 61 321 111 537
171 738 37 120 79 265 95 323 45 165 155 450 186 482 15 15 32 28 39 28 6 0
28 -18 48 -40z m-12985 -313 c120 -178 493 -626 534 -641 66 -24 127 46 127
146 0 84 14 87 90 22 36 -31 99 -76 140 -102 255 -157 298 -190 346 -265 26
-40 86 -121 134 -182 193 -243 290 -427 405 -770 25 -77 60 -165 76 -195 17
-30 48 -97 69 -149 l40 -93 -66 -72 c-88 -96 -155 -199 -262 -401 -119 -227
-280 -508 -357 -625 -35 -53 -117 -152 -187 -225 -68 -71 -139 -152 -157 -178
-54 -79 -97 -185 -121 -297 -12 -58 -24 -108 -27 -113 -7 -13 -96 41 -162 99
-35 30 -80 64 -102 74 -21 11 -83 49 -136 84 -54 35 -133 81 -176 102 -43 21
-97 56 -120 78 -73 71 -185 216 -223 290 -20 39 -56 100 -80 136 -24 36 -52
90 -63 121 -38 111 -73 153 -160 192 -39 17 -58 19 -138 13 -111 -8 -140 2
-199 65 -22 25 -78 112 -124 194 -123 219 -161 255 -267 255 -100 0 -180 -46
-331 -192 -78 -76 -170 -152 -237 -197 -61 -41 -135 -99 -166 -128 -43 -41
-58 -50 -62 -38 -17 44 -32 927 -30 1791 l2 941 52 77 c60 89 100 124 118 102
30 -36 52 -137 66 -310 9 -100 29 -287 45 -416 41 -332 44 -371 44 -593 1
-196 1 -199 25 -218 30 -24 82 -24 113 0 45 36 86 148 129 348 45 214 59 267
100 374 33 86 87 149 127 149 36 0 88 -59 149 -171 28 -52 74 -132 102 -177
28 -46 67 -127 87 -180 32 -82 46 -104 98 -157 36 -36 116 -143 193 -260 168
-253 194 -288 245 -325 31 -23 52 -30 88 -30 88 0 96 20 106 290 7 174 6 176
-30 357 -20 100 -36 208 -36 242 0 33 -9 140 -21 238 -25 213 -21 312 18 463
27 100 28 116 28 345 0 231 6 292 26 280 5 -4 58 -79 118 -168z m3432 -1068
c3 -118 9 -237 14 -266 l7 -51 -68 -21 c-97 -28 -322 -75 -504 -106 -85 -14
-247 -46 -360 -69 -113 -24 -284 -60 -380 -80 -96 -20 -201 -43 -233 -51 -57
-13 -58 -13 -68 8 -58 134 -156 373 -154 375 2 2 38 -1 80 -7 250 -35 446 14
660 164 66 46 164 121 219 167 145 121 125 112 209 89 126 -36 304 -21 472 38
44 16 85 28 90 27 6 -2 12 -87 16 -217z m33 -411 c3 -13 10 -63 16 -111 24
-190 159 -616 261 -819 47 -94 58 -123 48 -134 -15 -18 -289 -191 -459 -289
-127 -73 -265 -163 -425 -276 -38 -27 -73 -48 -78 -46 -4 1 -36 73 -71 158
-66 165 -181 386 -274 529 -68 103 -227 263 -278 280 -20 7 -63 10 -96 8 l-60
-4 -26 40 c-48 76 -152 313 -152 347 0 4 14 12 32 18 50 18 747 167 913 196
83 14 254 48 380 75 127 26 238 48 247 49 11 1 20 -8 22 -21z m4766 -744 c65
-24 90 -28 190 -28 108 0 119 2 187 32 39 18 79 32 89 32 9 0 49 -31 88 -68
78 -74 143 -114 251 -157 63 -25 78 -27 167 -23 54 3 98 2 98 -1 0 -4 -52 -99
-116 -211 -151 -268 -187 -339 -249 -495 -46 -115 -55 -130 -77 -133 -16 -2
-101 31 -224 88 -281 129 -813 395 -848 424 l-30 25 146 218 c80 120 161 244
179 276 38 66 29 64 149 21z m-6053 -39 c53 -22 172 -150 249 -267 132 -199
248 -448 345 -738 39 -117 46 -146 34 -148 -8 -2 -52 31 -98 72 -46 42 -118
102 -160 133 -89 68 -366 312 -451 398 -76 77 -148 180 -197 279 l-38 79 29
37 c128 162 190 195 287 155z m-3260 -291 c25 -27 64 -91 94 -153 67 -137 124
-217 192 -270 71 -54 112 -66 183 -51 42 9 67 9 105 0 74 -18 101 -46 139
-145 32 -84 33 -87 17 -120 -21 -45 -83 -112 -120 -132 -17 -9 -77 -18 -146
-23 -97 -7 -133 -15 -216 -46 -84 -31 -113 -37 -180 -38 -74 0 -90 4 -215 53
-147 59 -180 82 -216 153 -13 26 -39 58 -57 72 -36 28 -204 89 -275 101 -24 4
-55 17 -69 29 -58 50 6 137 187 254 82 53 149 108 235 192 130 128 194 170
258 170 35 0 46 -6 84 -46z m2975 -92 c37 -60 84 -130 105 -155 48 -57 199
-192 456 -406 111 -93 213 -181 227 -196 14 -15 57 -49 95 -75 39 -26 76 -54
82 -61 29 -36 240 -393 271 -459 27 -60 114 -274 173 -428 7 -19 5 -24 -18
-33 -37 -14 -137 11 -278 69 -60 24 -184 71 -275 104 -153 55 -395 171 -555
266 -119 71 -381 267 -450 336 -83 84 -130 169 -180 323 -44 134 -51 193 -32
256 9 26 56 120 105 210 49 89 109 200 132 247 43 87 58 110 69 110 3 0 36
-49 73 -108z m10480 10 c56 -26 110 -62 166 -111 90 -78 118 -97 327 -221 77
-45 160 -102 185 -126 25 -24 95 -72 155 -107 201 -116 190 -105 201 -214 6
-55 4 -60 -29 -103 -46 -58 -74 -74 -176 -100 -46 -12 -105 -32 -131 -45 -76
-39 -156 -47 -347 -35 -345 22 -372 26 -493 65 -70 23 -143 40 -186 42 -78 6
-87 3 -204 -73 -77 -49 -173 -79 -232 -71 -22 3 -69 20 -105 38 -52 26 -69 40
-81 68 -14 33 -13 41 8 101 32 93 79 157 181 251 88 80 232 260 406 504 79
112 93 127 149 155 60 30 110 25 206 -18z m-8469 -70 c140 -211 307 -394 485
-531 45 -36 82 -69 82 -76 0 -41 -297 -429 -627 -819 -56 -67 -154 -188 -217
-271 -137 -178 -173 -222 -179 -215 -2 3 -35 91 -72 195 -123 344 -222 560
-346 750 -32 50 -74 124 -93 165 -33 73 -86 238 -86 270 0 32 153 134 695 464
116 71 224 137 240 147 17 10 35 19 41 19 6 0 40 -44 77 -98z m3953 -169 c129
-70 396 -203 807 -401 92 -44 167 -85 167 -90 0 -5 -27 -72 -60 -148 -32 -76
-78 -203 -100 -281 -22 -79 -52 -173 -66 -210 -15 -38 -40 -111 -56 -163 -32
-99 -44 -123 -52 -99 -112 323 -213 535 -291 614 -131 130 -289 151 -400 53
-85 -75 -249 -336 -348 -553 -32 -71 -61 -132 -63 -134 -7 -8 -46 34 -84 89
-20 30 -110 177 -200 325 -89 149 -180 297 -201 329 -38 57 -39 60 -22 78 10
11 49 38 88 61 213 123 376 252 580 456 82 83 152 151 155 151 4 0 69 -34 146
-77z m-9732 -297 c20 -13 59 -29 88 -36 109 -25 244 -73 266 -94 13 -11 34
-41 47 -66 33 -65 72 -97 156 -129 41 -16 110 -43 154 -61 135 -54 195 -51
405 20 63 21 118 31 210 38 l124 9 66 71 66 72 31 -33 c17 -17 42 -57 56 -87
32 -68 203 -279 260 -322 23 -17 78 -48 122 -68 44 -21 107 -59 140 -85 33
-26 83 -58 110 -72 28 -14 70 -44 95 -68 25 -24 88 -70 140 -103 52 -32 96
-67 98 -76 2 -9 -10 -45 -26 -80 -28 -59 -34 -66 -104 -105 -58 -32 -93 -43
-154 -51 -45 -7 -105 -23 -139 -39 -64 -30 -184 -121 -252 -192 -86 -90 -245
-314 -295 -417 -60 -122 -48 -125 -175 46 -46 62 -104 128 -131 147 -72 54
-199 113 -277 130 -208 45 -220 47 -320 41 -139 -8 -226 -29 -321 -76 -99 -48
-163 -95 -360 -261 l-151 -127 -7 45 c-3 25 -6 285 -7 577 0 292 -4 556 -9
586 -4 30 -4 235 2 455 9 383 10 401 30 418 25 21 20 22 62 -7z m3372 -235
c87 -250 163 -336 494 -560 80 -54 183 -118 230 -141 47 -23 126 -66 175 -95
113 -67 75 -51 665 -272 77 -29 110 -36 178 -38 45 -1 84 -4 87 -7 2 -2 34
-112 69 -244 61 -229 110 -373 163 -477 13 -27 22 -51 20 -53 -7 -7 -137 -41
-227 -59 -97 -20 -189 -16 -265 10 -111 38 -352 148 -511 232 -93 49 -218 108
-279 132 -60 24 -189 81 -285 126 -96 46 -219 102 -273 124 -102 43 -412 184
-555 252 -231 111 -336 348 -252 572 33 89 95 174 215 297 99 102 160 177 258
321 16 23 31 38 35 35 3 -4 30 -74 58 -155z m3203 -30 c214 -116 412 -194 555
-219 59 -11 112 -24 118 -30 15 -15 -25 -161 -102 -372 -37 -102 -106 -305
-154 -452 l-86 -267 -38 -6 c-248 -38 -401 -123 -531 -295 -35 -47 -72 -86
-83 -88 -11 -2 -62 10 -114 27 -106 35 -131 37 -228 16 -111 -23 -188 -65
-259 -140 l-63 -66 -36 54 c-81 122 -145 278 -188 459 l-23 96 88 124 c121
167 202 272 277 355 156 173 610 753 675 864 10 16 19 29 22 29 2 0 79 -40
170 -89z m8835 10 l73 -50 7 -96 c3 -53 3 -618 0 -1255 l-7 -1159 -49 44 c-28
25 -70 51 -99 60 -62 21 -153 22 -199 3 -100 -42 -300 -288 -449 -550 -17 -31
-76 -106 -130 -167 -54 -60 -120 -141 -145 -179 -26 -38 -79 -107 -118 -153
-38 -46 -90 -110 -115 -141 -75 -95 -147 -133 -273 -144 -81 -8 -175 8 -282
46 -138 50 -263 75 -379 74 l-107 0 -90 120 c-49 67 -156 222 -237 346 -178
271 -239 355 -321 440 -34 36 -81 97 -104 135 -61 101 -176 251 -241 315 -65
65 -139 111 -252 157 -113 45 -150 44 -295 -13 -131 -52 -183 -58 -272 -31
-107 32 -113 39 -215 250 -67 138 -112 218 -164 287 -39 52 -71 98 -71 103 0
5 57 75 126 155 70 81 155 190 191 243 l65 97 37 -5 c44 -6 206 19 347 53 118
28 161 30 191 9 12 -9 49 -52 81 -98 83 -114 114 -131 257 -135 310 -9 546 96
646 288 20 37 24 60 24 130 0 79 -2 89 -32 136 -18 28 -33 55 -33 61 0 5 33
18 73 27 165 39 242 99 337 263 l61 104 32 -31 c18 -17 66 -48 107 -68 68 -33
82 -37 150 -35 90 1 145 20 222 74 32 22 78 49 103 60 57 25 83 22 247 -32 95
-32 148 -43 261 -54 340 -33 491 -29 604 19 32 13 97 34 143 46 101 26 138 47
175 99 39 58 53 104 45 156 -4 25 -5 45 -3 45 2 0 37 -22 77 -49z m-6676 -153
c33 -46 132 -203 221 -351 88 -147 188 -308 222 -358 l61 -91 -12 -45 c-14
-60 -130 -434 -182 -588 -51 -154 -134 -313 -288 -550 -195 -302 -192 -297
-206 -283 -14 14 -94 196 -148 338 -33 85 -186 553 -225 685 -11 39 -43 162
-71 275 -28 113 -68 270 -90 350 -78 292 -120 458 -120 476 0 16 16 22 108 37
146 24 351 76 511 131 74 25 136 48 139 51 12 12 24 1 80 -77z m1179 -49 c40
-15 142 -117 164 -164 34 -73 17 -278 -31 -380 -27 -55 -138 -175 -204 -219
-92 -61 -277 -154 -433 -217 -81 -33 -154 -63 -160 -66 -21 -9 142 457 200
572 52 105 248 409 288 448 35 34 43 37 93 37 30 0 67 -5 83 -11z m-2282 -85
l200 -2 12 -44 c7 -23 39 -151 73 -283 98 -390 196 -762 229 -877 55 -190 206
-617 289 -821 l81 -198 -81 -167 c-153 -316 -268 -592 -319 -761 -74 -245
-164 -591 -189 -721 -11 -63 -45 -203 -75 -311 -84 -308 -146 -449 -295 -679
-48 -74 -111 -180 -140 -235 -28 -55 -62 -111 -75 -124 l-23 -23 -22 98 c-68
310 -125 466 -254 704 -120 219 -163 337 -211 575 -38 188 -82 353 -130 490
-23 66 -45 134 -49 150 l-7 31 63 -4 c61 -4 68 -2 176 53 84 43 132 75 186
126 l74 69 88 -6 c108 -7 205 15 330 76 93 45 123 75 156 157 19 50 23 78 25
207 l2 148 65 54 c85 70 100 94 100 158 0 120 -100 233 -253 287 l-76 27 -6
123 c-8 146 -29 221 -90 324 -52 86 -84 124 -163 190 -74 62 -182 112 -272
127 -36 6 -68 17 -71 24 -3 7 65 219 150 471 84 252 162 491 173 532 l18 73
56 -7 c30 -5 145 -9 255 -11z m4337 -190 c108 -42 175 -47 256 -19 67 22 111
16 217 -33 44 -20 124 -52 178 -72 98 -35 99 -35 135 -93 47 -76 47 -127 3
-220 -60 -126 -190 -211 -389 -253 -92 -20 -138 -25 -214 -22 -117 4 -130 12
-204 119 -69 100 -121 133 -212 133 -44 0 -90 -7 -132 -22 -57 -19 -234 -52
-282 -52 -36 0 -16 41 67 141 56 66 99 130 125 184 27 57 57 99 96 139 116
116 196 132 356 70z m-1754 -184 c22 -58 56 -157 76 -220 49 -150 92 -238 161
-328 50 -65 56 -78 51 -106 -8 -41 -66 -137 -130 -217 -52 -64 -30 -51 -366
-211 -216 -103 -260 -136 -500 -378 -265 -267 -339 -320 -559 -399 -150 -54
-247 -74 -326 -69 l-47 3 34 65 c19 36 103 171 187 300 232 357 280 450 358
702 43 142 51 158 78 173 17 9 53 31 82 49 28 18 100 52 160 75 211 83 468
235 550 324 57 62 81 113 104 220 30 142 29 141 39 131 5 -5 27 -56 48 -114z
m-7403 -257 c39 -52 86 -106 105 -119 19 -13 96 -50 170 -82 74 -33 186 -85
248 -116 63 -31 182 -85 266 -120 83 -35 187 -82 231 -104 44 -22 148 -69 231
-105 82 -36 232 -106 332 -156 334 -167 554 -257 653 -268 41 -4 104 4 251 33
l197 38 155 -148 c219 -208 251 -256 448 -670 70 -148 147 -302 169 -343 47
-85 46 -87 -33 -98 -93 -13 -138 1 -377 120 -242 121 -390 183 -712 295 -335
117 -613 192 -1092 295 -377 81 -618 205 -906 464 -53 48 -169 151 -259 230
-237 209 -258 239 -313 441 -20 76 -21 93 -12 166 10 80 11 84 58 131 49 48
90 122 101 181 3 17 9 32 13 32 3 0 38 -44 76 -97z m-299 -225 c-20 -113 -19
-130 19 -248 21 -63 47 -133 58 -155 46 -92 618 -603 808 -723 214 -135 313
-173 630 -241 244 -53 729 -179 884 -230 281 -92 626 -230 865 -346 140 -68
270 -128 289 -134 49 -16 171 -14 221 4 23 8 48 15 55 15 18 0 107 -114 165
-211 27 -43 62 -118 80 -167 62 -171 165 -551 172 -637 5 -61 -15 -67 -202
-62 -262 8 -730 63 -863 102 -48 14 -140 36 -204 50 -214 46 -394 120 -495
202 -116 94 -148 122 -179 159 -19 21 -69 77 -113 124 -44 47 -113 128 -155
180 -152 192 -398 477 -486 564 -109 107 -149 127 -265 133 -146 9 -262 -44
-421 -193 -49 -45 -104 -95 -123 -109 l-35 -27 -58 31 c-76 41 -125 89 -181
175 -177 276 -238 362 -387 541 -149 178 -333 439 -386 546 -42 84 -69 207
-76 341 -7 147 4 196 58 241 42 36 137 73 214 82 28 4 57 10 65 16 8 5 23 9
34 9 15 0 17 -5 12 -32z m-446 -290 c0 -181 45 -345 127 -465 132 -193 327
-458 396 -538 44 -51 137 -185 217 -310 158 -251 197 -299 281 -350 32 -20 57
-41 54 -46 -4 -5 -27 -21 -53 -36 -41 -24 -58 -28 -127 -28 -125 0 -157 20
-361 227 -227 232 -323 345 -437 519 -68 104 -114 163 -157 200 -34 30 -121
123 -195 208 l-134 153 24 65 c39 101 78 168 179 304 91 122 160 199 178 199
4 0 8 -46 8 -102z m8561 47 c86 -91 238 -302 243 -338 10 -67 14 -305 5 -352
-20 -108 -96 -221 -216 -320 -35 -29 -134 -90 -219 -136 -267 -144 -469 -315
-642 -540 -124 -163 -237 -275 -476 -473 -120 -100 -236 -194 -257 -209 -57
-41 -225 -113 -321 -137 -45 -12 -164 -54 -263 -94 -99 -41 -205 -82 -235 -92
-63 -20 -193 -25 -211 -7 -14 14 -8 40 113 468 76 271 102 347 168 495 137
307 207 448 232 464 15 10 59 17 123 21 124 8 175 19 290 62 163 61 193 77
340 172 22 14 130 118 240 230 110 112 228 224 263 249 35 24 168 94 295 153
135 63 249 123 273 143 52 44 121 140 166 229 18 37 34 67 35 67 1 0 25 -25
54 -55z m-9723 -65 c53 -11 118 -24 143 -30 62 -12 205 -79 247 -115 18 -15
68 -71 111 -124 43 -53 109 -130 147 -171 39 -41 115 -127 171 -190 55 -63
147 -162 204 -220 57 -58 116 -123 130 -145 15 -22 56 -85 92 -140 36 -55 119
-161 184 -236 132 -151 392 -408 439 -432 17 -9 67 -25 111 -36 76 -20 83 -20
134 -5 30 9 68 24 84 33 134 79 201 128 267 193 189 187 342 254 484 213 54
-15 69 -26 169 -128 61 -62 202 -224 315 -362 113 -137 246 -290 296 -341 131
-131 172 -194 206 -318 43 -157 130 -277 393 -546 162 -164 241 -254 335 -380
144 -193 270 -342 341 -402 102 -87 251 -292 339 -468 42 -85 66 -118 120
-170 l68 -65 -20 -40 c-24 -47 -98 -132 -298 -341 -175 -184 -224 -224 -321
-262 -101 -41 -135 -49 -274 -67 -238 -30 -394 -104 -496 -231 -70 -89 -109
-168 -144 -292 -14 -52 -53 -162 -86 -245 -34 -84 -86 -219 -116 -302 -108
-292 -247 -596 -400 -875 -32 -58 -75 -145 -97 -195 -90 -212 -225 -417 -407
-618 -172 -192 -252 -255 -398 -317 -237 -101 -336 -93 -544 44 -47 31 -116
69 -154 84 -64 25 -78 27 -224 27 l-155 0 -75 -37 c-169 -85 -436 -322 -718
-640 -115 -128 -174 -184 -371 -346 -293 -241 -342 -278 -559 -424 -303 -205
-402 -296 -541 -503 -64 -95 -120 -160 -120 -139 -7 885 -2 2648 8 3104 11
517 11 658 -3 1075 -16 511 -30 1707 -30 2630 0 707 22 2832 31 2943 5 75 8
84 29 92 13 5 61 44 107 86 195 180 396 321 497 351 63 18 183 41 224 42 15 1
71 -8 125 -19z m6181 -22 c152 -46 252 -126 325 -261 69 -128 80 -177 72 -332
-8 -159 -5 -165 103 -176 83 -9 135 -34 183 -87 85 -94 53 -199 -77 -252 -41
-17 -54 -27 -51 -39 51 -175 22 -380 -64 -453 -51 -44 -173 -95 -259 -108 -59
-10 -79 -9 -130 6 -74 20 -103 14 -130 -30 -74 -118 -317 -239 -420 -207 -29
8 -46 25 -89 90 -28 44 -85 122 -125 173 -90 114 -114 156 -212 373 -182 401
-279 555 -447 716 l-90 87 32 46 c44 64 98 101 194 132 100 32 158 28 268 -16
43 -17 97 -33 121 -36 l44 -6 43 83 c56 108 129 182 235 236 184 94 313 110
474 61z m3898 -404 c18 -32 54 -107 80 -166 51 -117 86 -167 142 -202 35 -23
37 -26 66 -162 25 -115 30 -161 29 -264 -1 -117 -3 -133 -38 -240 -73 -221
-128 -295 -377 -511 -288 -249 -436 -405 -572 -603 -195 -283 -310 -421 -427
-511 -177 -136 -717 -409 -980 -496 -270 -89 -507 -139 -657 -139 -25 0 -93
-12 -152 -26 -74 -18 -137 -26 -206 -28 -105 -1 -263 12 -270 23 -2 4 19 41
46 84 64 99 170 328 202 437 14 47 42 141 63 210 20 69 48 171 62 227 l24 101
127 4 c118 3 131 6 211 40 220 93 317 130 469 179 191 61 267 103 428 235 292
240 446 387 587 562 93 115 244 269 341 348 76 62 158 115 285 184 185 100
287 175 352 260 31 40 69 98 85 129 28 56 28 57 26 224 -3 191 2 198 54 101z
m874 -354 c156 -57 263 -150 306 -266 44 -121 53 -180 55 -364 2 -232 -22
-335 -133 -565 -32 -66 -81 -180 -108 -254 -134 -354 -273 -540 -695 -925
-151 -138 -197 -172 -356 -261 -58 -32 -177 -105 -266 -161 -88 -56 -189 -116
-225 -134 -119 -60 -463 -262 -634 -373 -194 -126 -297 -182 -354 -191 -27 -4
-90 5 -203 28 -375 79 -482 82 -663 22 -171 -57 -371 -174 -465 -271 l-33 -34
-106 100 c-150 142 -237 179 -471 203 -110 11 -115 12 -118 36 -6 35 145 326
182 353 36 26 105 32 209 19 90 -12 267 1 334 23 45 14 126 27 283 45 232 26
570 121 798 224 258 116 612 309 734 398 114 83 260 255 406 477 120 181 206
275 501 545 395 361 400 368 478 601 45 137 46 142 46 265 0 96 -7 153 -27
245 -14 66 -26 127 -26 135 0 13 15 16 88 16 78 1 99 5 212 47 69 25 135 46
147 46 12 1 59 -12 104 -29z m3482 -336 c38 -25 86 -83 117 -144 25 -49 29
-247 36 -1585 3 -610 7 -1112 9 -1115 9 -15 26 -844 29 -1445 3 -575 6 -705
24 -920 42 -499 44 -606 32 -1796 -12 -1231 -28 -2772 -29 -2778 -1 -2 -9 0
-18 4 -10 4 -40 11 -67 16 -52 9 -167 73 -341 190 -107 71 -139 98 -515 424
-133 116 -297 253 -365 305 -67 52 -154 122 -191 156 -38 33 -119 97 -180 142
-62 45 -138 110 -170 145 -56 60 -92 107 -334 447 -165 232 -486 538 -637 607
-165 76 -652 115 -878 69 -101 -20 -154 -16 -225 17 -52 24 -174 143 -240 235
-60 84 -160 263 -211 381 -23 53 -83 186 -134 296 -227 492 -267 587 -362 880
-68 207 -96 270 -233 521 -309 562 -422 687 -736 808 -178 69 -366 73 -522 12
-95 -38 -277 -86 -323 -86 -14 0 -55 15 -90 32 -85 43 -328 285 -459 457 -52
68 -114 147 -138 174 -23 28 -42 55 -42 61 0 16 89 94 165 146 143 97 323 172
440 185 82 9 284 -16 485 -61 91 -19 199 -38 240 -41 85 -6 283 11 368 31 259
63 321 86 587 223 127 66 368 218 440 279 106 89 169 117 360 159 416 93 638
177 816 311 41 31 117 87 169 125 52 38 123 93 156 122 34 28 109 89 167 135
62 48 120 102 138 130 18 26 78 94 134 152 56 58 123 137 150 175 84 121 146
195 176 211 89 45 216 35 426 -35 150 -51 232 -64 346 -59 82 4 101 8 177 45
47 22 99 55 116 74 55 61 244 308 269 351 13 23 66 87 118 142 91 98 159 193
247 344 87 152 267 352 335 371 46 14 126 2 168 -25z m-3039 -84 c32 -59 89
-133 167 -217 31 -34 89 -109 128 -168 l71 -106 0 -108 c0 -204 -48 -495 -130
-791 -75 -270 -80 -280 -221 -455 -77 -95 -311 -268 -475 -351 -152 -76 -374
-150 -614 -203 -222 -49 -303 -85 -433 -193 -95 -79 -339 -224 -483 -287 -49
-21 -123 -57 -165 -80 -63 -34 -111 -49 -275 -87 -137 -31 -209 -43 -233 -39
-43 8 -34 18 69 76 41 23 109 65 150 93 128 89 320 207 375 232 93 43 296 158
460 261 88 55 218 133 288 173 143 80 184 111 384 286 162 142 279 262 385
394 129 162 174 243 289 521 39 95 97 229 129 298 92 198 104 258 105 491 0
107 -3 221 -8 253 -4 31 -3 57 1 57 5 0 21 -22 36 -50z m611 -856 l139 -206
-20 -33 c-52 -90 -179 -251 -275 -350 -58 -61 -113 -124 -122 -142 -15 -29
-92 -103 -108 -103 -3 0 9 53 28 118 86 297 125 485 158 762 23 194 23 195 44
176 10 -9 80 -109 156 -222z m-7869 -516 c96 -59 208 -100 389 -143 77 -19
180 -45 228 -59 156 -45 642 -96 945 -99 l172 -2 14 -40 c8 -22 24 -69 36
-105 12 -36 66 -150 120 -255 95 -186 172 -348 184 -392 6 -18 1 -23 -26 -31
-69 -21 -154 -22 -303 -2 -192 25 -344 25 -531 0 -209 -29 -265 -16 -452 106
-113 73 -137 96 -239 234 -51 68 -163 194 -277 310 -229 233 -357 400 -386
500 -17 58 -14 64 19 43 16 -10 64 -39 107 -65z m895 -1153 c86 -44 130 -47
327 -24 193 23 304 21 511 -6 136 -18 226 -19 306 -4 51 9 61 9 71 -6 27 -37
102 -411 85 -428 -4 -4 -59 -11 -122 -16 -69 -5 -139 -17 -179 -31 -116 -39
-322 -145 -377 -194 -55 -50 -69 -54 -112 -31 -47 24 -96 90 -160 214 -73 140
-191 299 -323 437 -122 126 -125 138 -27 89z m1291 -560 c3 -3 -3 -33 -13 -67
-11 -33 -25 -106 -33 -162 -10 -81 -30 -146 -95 -325 -44 -124 -92 -244 -106
-267 -39 -66 -172 -233 -260 -326 -79 -82 -298 -260 -383 -310 -113 -66 -412
-350 -521 -493 -95 -125 -168 -309 -213 -535 -22 -111 -15 -482 16 -798 14
-151 26 -317 26 -370 0 -87 -4 -108 -39 -207 -52 -145 -89 -233 -114 -270 -11
-16 -66 -77 -121 -135 -56 -58 -194 -206 -308 -330 -113 -124 -280 -297 -370
-385 -90 -88 -189 -194 -220 -235 -127 -170 -293 -473 -408 -745 -40 -93 -114
-258 -165 -365 -51 -107 -106 -224 -120 -260 -105 -251 -306 -568 -487 -765
-35 -38 -92 -104 -125 -146 -34 -42 -113 -130 -175 -195 -62 -66 -150 -162
-195 -214 -46 -52 -130 -138 -189 -190 -58 -52 -138 -128 -177 -170 -76 -80
-173 -231 -202 -315 -20 -60 -37 -195 -29 -234 4 -17 1 -32 -6 -36 -6 -4 -269
-9 -583 -12 -315 -2 -657 -10 -762 -17 -104 -7 -224 -11 -265 -9 -41 3 -108 0
-149 -5 -58 -9 -98 -7 -180 5 -178 25 -243 75 -281 215 -26 98 -43 289 -30
338 11 40 95 108 190 155 69 34 248 163 319 230 29 27 86 93 126 146 115 153
130 245 60 366 -14 23 -42 52 -62 65 -34 20 -50 23 -143 23 -96 -1 -112 -3
-182 -34 -97 -41 -227 -118 -280 -167 -31 -28 -43 -33 -48 -23 -11 21 -25 591
-22 904 3 295 17 412 61 510 24 54 145 238 195 299 64 76 254 246 416 370 81
63 174 139 206 168 33 30 136 112 229 183 94 70 215 165 270 211 154 126 393
357 498 479 161 188 324 328 467 400 189 96 387 69 614 -84 147 -99 213 -112
404 -78 139 25 286 101 421 216 61 52 294 339 363 446 61 94 210 369 231 425
9 25 49 104 88 175 93 169 152 288 174 350 10 28 31 73 46 100 16 28 55 120
88 205 32 85 96 250 141 365 45 116 90 235 101 264 11 30 26 64 33 76 8 12 25
54 39 94 47 135 144 274 216 311 48 24 154 56 233 70 162 29 347 82 436 125
76 37 108 60 188 137 53 51 124 127 158 168 33 41 88 104 120 140 32 36 87
103 122 149 80 106 231 245 321 293 58 31 225 82 333 101 38 7 106 8 112 2z
m376 -54 c70 -16 141 -35 158 -44 53 -28 302 -276 396 -395 50 -64 144 -178
208 -252 63 -74 135 -159 159 -188 79 -96 254 -202 333 -202 43 0 172 33 363
93 135 43 250 43 375 3 47 -16 105 -39 130 -51 76 -39 283 -200 349 -272 164
-178 315 -469 592 -1141 72 -174 166 -393 209 -487 43 -93 103 -228 133 -300
86 -202 209 -450 278 -560 89 -141 241 -297 318 -326 78 -29 177 -34 296 -16
173 27 251 30 364 13 58 -9 128 -16 156 -16 186 0 375 -109 621 -356 171 -172
267 -291 412 -509 150 -226 271 -356 387 -418 99 -53 309 -217 557 -434 68
-60 157 -135 198 -167 41 -32 109 -92 150 -131 70 -68 280 -231 415 -322 33
-22 101 -61 151 -87 50 -25 123 -74 163 -107 l73 -61 -7 -682 c-6 -679 -17
-1032 -36 -1093 -16 -51 -47 -82 -118 -117 -113 -57 -249 -96 -359 -101 -53
-2 -126 -7 -162 -10 -110 -9 -422 -24 -707 -35 -221 -8 -302 -8 -435 4 -219
20 -2290 21 -2857 2 -211 -8 -393 -11 -405 -8 -35 8 -48 24 -83 102 -19 41
-56 120 -83 175 -27 55 -65 154 -84 220 -51 174 -99 312 -131 375 -15 30 -70
117 -121 192 -177 261 -230 391 -438 1078 -41 135 -89 299 -106 365 -18 66
-50 156 -71 200 -46 97 -154 248 -275 387 -309 353 -515 660 -544 808 -6 30
-27 109 -46 175 -47 162 -71 317 -89 578 -8 121 -19 247 -25 280 -5 34 -19
154 -30 267 -25 250 -43 327 -114 497 -72 174 -117 243 -346 523 -272 334
-385 765 -313 1190 42 244 52 454 33 651 -12 117 -86 461 -132 611 -24 79 -28
101 -18 113 16 19 8 20 158 -14z m-249 -13 c24 -73 81 -310 101 -418 11 -63
30 -155 42 -205 18 -75 22 -121 22 -280 1 -172 -2 -203 -28 -330 -27 -131 -29
-155 -29 -385 -1 -271 4 -309 69 -507 63 -191 126 -303 284 -503 122 -155 124
-162 128 -364 3 -145 1 -182 -18 -261 -36 -157 -38 -155 -105 71 -83 281 -108
322 -297 503 -97 91 -100 96 -168 237 -90 186 -134 306 -159 431 -40 194 -28
276 83 582 88 241 146 441 153 527 7 90 -12 243 -44 354 -55 191 -76 340 -67
478 4 56 10 102 15 102 4 0 12 -15 18 -32z m-122 -548 c-11 -299 -127 -626
-315 -889 -127 -179 -217 -252 -473 -387 -90 -47 -190 -102 -221 -120 -101
-62 -164 -152 -242 -351 -19 -50 -70 -152 -112 -225 -103 -178 -142 -260 -155
-330 -7 -32 -15 -61 -19 -63 -10 -6 -30 178 -30 274 0 200 71 436 183 611 174
271 337 437 612 618 180 118 239 164 339 260 185 179 270 322 378 631 29 84
55 145 57 135 2 -11 1 -84 -2 -164z m128 -135 c33 -189 16 -287 -102 -613
-114 -318 -136 -400 -137 -532 -1 -58 3 -126 7 -152 12 -69 -5 -61 -62 27
-150 229 -156 399 -21 605 83 127 164 323 216 522 11 45 37 217 45 303 2 29
40 -84 54 -160z m-558 -1027 c-3 -18 -15 -60 -28 -93 -19 -53 -38 -76 -159
-195 -75 -74 -149 -155 -163 -180 -14 -25 -40 -88 -58 -140 -27 -81 -32 -110
-32 -195 -1 -118 11 -178 65 -340 35 -104 40 -132 40 -210 1 -176 -48 -282
-203 -435 -92 -91 -128 -137 -216 -276 -10 -16 -12 -8 -12 45 -1 74 27 186 71
281 84 182 78 293 -31 570 -27 69 -55 153 -62 188 -18 97 -7 259 26 362 76
237 131 301 360 417 168 84 315 169 360 207 40 34 49 32 42 -6z m124 -115 c15
-43 61 -123 125 -218 102 -153 204 -331 266 -465 19 -41 59 -104 89 -138 90
-106 87 -98 109 -323 22 -232 24 -308 9 -376 -12 -56 -201 -465 -218 -471 -6
-2 -15 7 -20 20 -27 65 -109 270 -161 403 -32 83 -70 177 -84 210 -16 38 -30
105 -41 185 -21 168 -49 307 -84 421 -38 126 -82 387 -82 496 -1 78 31 299 46
324 11 17 22 0 46 -68z m-151 -224 c0 -138 31 -328 93 -559 l52 -195 0 -375
c0 -511 -15 -599 -145 -861 -58 -114 -88 -193 -120 -313 -16 -60 -31 -111 -34
-113 -14 -15 -159 325 -191 447 -25 96 -16 236 29 438 46 204 69 406 64 537
-4 85 -10 114 -42 192 -86 219 -88 414 -5 590 26 56 53 89 156 191 69 67 129
122 134 122 5 0 9 -45 9 -101z m-820 -549 c0 -81 15 -139 79 -312 27 -74 57
-171 66 -215 21 -102 10 -171 -46 -296 -80 -179 -104 -350 -71 -507 25 -118
30 -169 37 -340 3 -74 10 -180 16 -235 13 -113 9 -146 -40 -324 -72 -259 -156
-377 -350 -490 -192 -113 -361 -204 -367 -198 -10 9 26 66 74 120 44 49 153
203 213 300 41 68 75 161 114 320 34 135 37 158 33 250 -4 75 -12 123 -32 181
-14 44 -31 121 -38 171 -9 79 -8 107 7 191 9 54 30 140 45 189 38 119 57 371
39 517 -10 85 -8 119 10 267 12 94 31 196 41 227 19 53 87 180 133 247 26 39
37 21 37 -63z m1682 -270 c51 -69 68 -107 126 -283 l46 -142 0 -150 c0 -144
-2 -159 -51 -380 -84 -374 -90 -475 -38 -683 39 -159 80 -237 175 -337 79 -83
150 -200 135 -225 -3 -5 -65 29 -143 82 -247 165 -323 236 -401 373 -91 160
-139 327 -148 525 -5 110 -4 119 25 200 16 47 71 175 122 285 117 254 126 292
105 458 -19 144 -34 329 -28 340 8 13 33 -8 75 -63z m396 -32 c29 -37 116
-217 150 -314 56 -157 79 -326 107 -774 16 -260 26 -360 51 -505 37 -219 129
-514 194 -620 80 -131 255 -379 315 -445 208 -232 328 -383 365 -464 57 -124
122 -308 210 -599 43 -144 91 -296 105 -337 14 -41 34 -106 44 -145 11 -38 22
-78 26 -87 5 -13 2 -18 -11 -18 -11 0 -72 54 -143 128 l-123 127 -88 176 c-81
166 -110 210 -228 351 -26 31 -81 110 -122 174 -79 126 -99 183 -121 354 -42
328 -181 550 -474 757 -96 67 -169 138 -227 217 -14 20 -56 59 -92 86 -36 28
-78 69 -95 93 -76 112 -150 394 -137 524 6 60 54 306 95 488 11 50 50 176 86
280 57 163 68 208 81 315 8 70 12 152 8 188 -6 61 1 77 24 50z m-997 -431 c6
-23 41 -114 79 -202 109 -258 128 -326 160 -580 17 -126 21 -194 16 -261 -9
-124 -38 -260 -69 -319 -43 -86 -135 -206 -242 -315 -56 -59 -111 -123 -122
-145 -24 -46 -19 -53 -88 115 -102 249 -120 342 -96 511 24 171 59 274 180
538 34 74 68 158 76 188 13 51 38 280 51 468 6 89 6 89 25 66 10 -12 24 -42
30 -64z m-645 -308 c-20 -89 -36 -188 -36 -219 0 -128 46 -296 135 -490 64
-141 77 -181 110 -340 31 -145 59 -233 121 -380 47 -109 99 -303 129 -475 19
-113 15 -184 -17 -298 -23 -87 -87 -222 -98 -211 -4 5 -16 54 -25 109 -29 162
-41 187 -170 340 -124 149 -217 299 -259 420 -21 61 -65 180 -96 265 -78 210
-77 206 -85 365 -4 77 -11 228 -16 335 -5 107 -12 220 -15 250 -12 114 60 242
238 426 136 141 136 141 84 -97z m-812 -611 c8 -112 -12 -202 -72 -332 -81
-172 -179 -287 -356 -419 -85 -63 -131 -87 -311 -163 -60 -25 -163 -73 -228
-106 -65 -33 -120 -58 -123 -55 -5 5 92 137 179 242 103 125 308 333 452 460
170 150 212 193 309 320 83 107 127 156 136 150 4 -3 10 -46 14 -97z m84 -274
c3 -59 -2 -110 -17 -185 -59 -279 -101 -364 -314 -644 -39 -52 -86 -114 -102
-137 -26 -37 -56 -56 -203 -133 -183 -95 -228 -130 -307 -237 -23 -31 -55 -87
-70 -125 -25 -61 -29 -85 -35 -233 -8 -175 -18 -217 -77 -319 -38 -65 -154
-182 -283 -286 -105 -84 -196 -171 -249 -235 -18 -22 -20 -23 -21 -6 0 11 17
69 37 130 41 124 42 137 32 571 -3 164 -1 198 14 250 28 92 279 594 322 642
58 67 286 194 526 292 145 60 260 130 374 227 93 79 105 92 191 214 42 60 71
116 98 190 21 58 43 114 48 124 10 19 11 19 21 0 6 -10 13 -56 15 -100z m1737
-51 c26 -48 78 -132 115 -188 80 -119 111 -178 142 -271 21 -63 23 -86 23
-274 0 -181 -3 -214 -23 -287 -122 -447 -79 -856 133 -1253 111 -208 133 -264
156 -394 19 -109 39 -486 26 -486 -4 0 -62 39 -129 88 -68 48 -142 100 -165
116 -62 42 -144 132 -207 227 -30 46 -82 116 -116 154 -101 117 -164 272 -163
405 1 37 17 136 38 230 49 216 57 363 26 492 -28 117 -63 191 -156 327 -42 63
-108 174 -146 246 -55 105 -69 141 -69 176 0 73 38 137 155 261 169 179 243
292 270 415 9 38 18 78 20 91 3 13 10 20 14 17 5 -3 30 -44 56 -92z m-1240
-448 c98 -284 170 -408 408 -701 51 -64 80 -136 97 -244 14 -94 13 -149 -10
-295 -31 -197 -47 -248 -101 -330 -60 -92 -105 -137 -196 -198 -82 -54 -135
-113 -187 -207 -29 -55 -42 -100 -76 -265 -25 -121 -51 -220 -66 -252 -31 -65
-98 -126 -197 -180 l-77 -41 0 228 c0 386 25 499 157 723 156 262 211 422 220
632 4 100 0 156 -27 340 -17 121 -34 263 -37 315 -6 95 14 587 24 603 11 18
31 -21 68 -128z m1682 1 c135 -87 151 -103 202 -204 39 -76 53 -195 61 -527
11 -440 15 -450 275 -769 103 -127 147 -243 148 -391 0 -92 -29 -311 -43 -320
-5 -3 -31 24 -59 60 -55 70 -110 117 -241 205 -90 60 -199 153 -263 223 -63
69 -116 152 -178 280 -50 104 -61 139 -79 242 -33 187 -29 263 27 530 46 226
47 233 47 410 -1 179 -8 230 -51 341 -9 25 5 18 154 -80z m-1817 -137 c-13
-242 -29 -329 -76 -427 -41 -84 -162 -218 -277 -306 -77 -58 -114 -76 -217
-101 -111 -28 -261 -112 -328 -184 -75 -81 -110 -182 -140 -412 -37 -276 -68
-303 -552 -489 -240 -92 -295 -121 -422 -227 -100 -83 -105 -80 -63 33 57 152
135 247 328 401 206 163 292 264 355 415 24 57 27 76 29 215 3 175 14 216 92
335 90 137 190 209 390 280 47 17 126 50 174 75 138 69 427 232 478 269 80 59
144 149 195 277 16 41 30 65 36 59 5 -5 4 -92 -2 -213z m2185 10 c44 -31 123
-93 176 -137 183 -154 287 -356 319 -621 13 -108 34 -191 65 -259 30 -66 155
-246 230 -332 72 -83 135 -184 181 -291 79 -181 183 -314 345 -440 115 -89
126 -102 175 -206 57 -121 118 -222 191 -319 33 -43 72 -100 86 -126 40 -69
109 -253 152 -403 26 -90 63 -183 120 -302 77 -160 82 -173 63 -179 -11 -3
-106 -3 -211 1 -214 8 -239 15 -295 80 -46 52 -68 100 -102 225 -17 62 -37
124 -45 139 -7 15 -21 58 -29 94 -30 129 -73 189 -212 293 -103 78 -174 144
-261 243 -109 124 -125 163 -203 501 -83 355 -180 554 -349 712 -61 56 -99 81
-196 128 -66 32 -133 72 -148 88 -20 21 -39 63 -62 139 l-33 109 -6 305 c-3
167 -7 311 -10 319 -6 17 -46 275 -46 297 0 17 0 17 105 -58z m-1270 -361 c15
-29 61 -101 102 -160 184 -267 215 -442 140 -798 -48 -230 -54 -297 -33 -380
24 -96 56 -153 201 -370 72 -108 144 -227 158 -264 34 -83 47 -174 37 -247
-10 -74 -16 -92 -52 -164 -26 -51 -202 -352 -214 -364 -9 -9 -17 12 -36 86
-17 65 -21 118 -23 313 -2 207 -5 244 -24 310 -29 98 -88 210 -173 327 -164
226 -224 332 -274 483 -26 78 -28 98 -28 240 -1 176 13 239 87 405 22 50 56
135 75 190 32 90 35 111 36 210 1 61 -3 138 -8 173 -5 34 -6 62 -3 62 3 0 17
-24 32 -52z m-890 -328 c15 -107 27 -231 28 -275 0 -209 -65 -402 -222 -659
-69 -114 -109 -216 -157 -405 -34 -137 -62 -197 -137 -301 -51 -70 -175 -198
-252 -259 -55 -44 -235 -155 -235 -146 0 3 13 37 29 77 35 90 138 402 145 443
3 17 10 89 16 160 15 186 50 348 96 442 34 69 60 100 225 268 105 107 205 218
228 254 53 82 78 163 91 297 11 112 46 236 81 293 16 27 23 31 29 20 4 -8 20
-102 35 -209z m-180 -27 c-13 -128 -42 -250 -76 -315 -25 -47 -79 -109 -214
-248 -239 -244 -279 -301 -349 -498 -40 -112 -118 -253 -191 -344 -91 -116
-250 -227 -403 -282 -83 -29 -94 -31 -237 -30 -129 0 -165 4 -258 27 -60 15
-133 27 -163 27 -30 0 -54 2 -54 5 0 25 64 121 113 168 109 108 195 154 472
257 303 113 414 181 479 293 19 33 30 81 50 217 33 232 55 293 140 387 56 62
179 128 311 168 114 35 168 62 230 117 81 71 139 118 148 118 5 0 6 -30 2 -67z
m-1866 -639 c22 -219 20 -239 -53 -480 -30 -100 -57 -210 -60 -245 -13 -163
-28 -257 -47 -296 -41 -84 -176 -182 -303 -220 -97 -29 -147 -63 -255 -172
-103 -104 -114 -112 -350 -251 -208 -122 -257 -156 -331 -227 -104 -99 -144
-166 -167 -285 -9 -46 -23 -89 -31 -95 -9 -7 -39 -13 -68 -13 -45 0 -52 3 -58
23 -17 65 8 183 71 324 46 106 49 110 168 223 184 175 383 376 569 575 395
421 530 613 758 1077 73 149 134 264 136 257 1 -8 11 -96 21 -195z m4440 92
c69 -39 185 -152 238 -231 95 -142 172 -351 237 -645 19 -85 44 -180 55 -211
25 -65 87 -166 139 -224 58 -64 211 -204 287 -260 92 -69 118 -99 149 -165 27
-57 33 -90 17 -90 -16 0 -254 126 -354 187 -54 34 -137 78 -185 98 -48 21
-117 57 -154 82 -127 83 -248 247 -291 391 -25 86 -27 269 -4 402 41 235 -1
407 -143 580 -34 41 -71 88 -82 103 l-20 28 29 -7 c15 -3 53 -20 82 -38z
m-464 -463 c37 -35 113 -93 169 -130 186 -123 329 -294 360 -431 32 -140 72
-218 173 -334 75 -87 143 -138 267 -200 55 -28 150 -78 210 -113 61 -34 169
-93 240 -130 192 -102 210 -121 251 -274 31 -113 57 -173 100 -225 l35 -43
-442 -7 c-244 -3 -479 -9 -524 -12 l-81 -6 -35 35 c-25 24 -45 62 -67 123 -54
148 -71 172 -276 372 -184 180 -193 190 -238 282 -70 143 -87 220 -97 455 -5
121 -17 244 -29 310 -21 114 -35 146 -196 455 -77 147 -69 159 27 40 47 -58
115 -133 153 -167z m-1405 111 c-17 -53 -61 -161 -96 -241 -76 -170 -94 -238
-94 -353 0 -169 47 -299 146 -409 53 -59 128 -113 259 -189 39 -22 90 -60 114
-84 74 -73 184 -251 225 -363 20 -55 58 -145 86 -199 27 -55 50 -110 50 -123
0 -23 0 -23 -137 -23 -76 0 -354 -5 -617 -11 -390 -8 -481 -8 -487 3 -19 29
-9 144 17 219 22 60 27 97 31 199 4 114 2 138 -27 265 -53 236 -52 305 9 438
28 61 67 221 111 452 34 178 97 269 266 387 44 31 100 80 125 109 57 68 62 49
19 -77z m129 -17 c45 -125 93 -209 215 -381 113 -159 182 -283 216 -391 20
-62 23 -95 26 -300 3 -158 9 -255 20 -310 23 -114 44 -254 44 -295 l0 -35 -20
30 c-10 16 -24 51 -30 77 -14 69 -62 159 -137 260 -87 118 -151 174 -270 237
-154 80 -266 203 -315 345 -20 60 -24 234 -7 318 6 29 36 105 66 168 30 63 72
165 93 225 49 141 51 145 59 145 3 0 21 -42 40 -93z m-1487 -459 c-9 -94 -22
-146 -76 -310 -101 -307 -149 -387 -300 -505 -89 -69 -119 -103 -155 -173 -55
-105 -64 -151 -66 -338 -4 -218 -4 -219 -107 -224 -40 -2 -264 -1 -497 1
l-423 3 5 33 c9 54 72 143 187 260 180 185 236 267 275 400 27 94 91 209 153
271 62 64 170 120 372 195 63 23 142 55 175 72 158 78 320 226 405 371 28 47
48 72 54 66 6 -6 5 -51 -2 -122z m-4664 -105 c67 -49 84 -158 39 -255 -76
-167 -277 -349 -546 -497 -52 -28 -98 -48 -102 -44 -3 5 -9 125 -13 268 l-7
260 48 46 c116 110 296 214 417 239 61 13 134 6 164 -17z m5150 -205 c-3 -149
-5 -167 -28 -213 -53 -108 -294 -309 -463 -384 -34 -16 -111 -45 -172 -66
-114 -39 -265 -107 -324 -146 l-33 -23 7 25 c31 107 106 212 183 256 26 14 65
43 87 63 22 21 105 79 185 130 80 50 175 114 211 141 88 65 200 185 274 292
33 48 64 87 68 87 5 0 7 -73 5 -162z m1950 -21 c31 -24 99 -72 150 -107 115
-78 174 -143 243 -268 88 -161 120 -201 288 -361 89 -85 173 -173 186 -195 23
-40 115 -254 115 -268 0 -5 -57 -8 -127 -8 -146 -1 -1032 29 -1109 36 l-52 5
-25 57 c-37 83 -39 96 -28 220 13 140 31 188 138 352 147 228 180 317 169 455
-3 44 -9 90 -12 103 -9 31 -1 28 64 -21z m-3558 -17 c19 -5 87 -19 150 -30 63
-12 122 -23 130 -26 9 -4 -14 -19 -60 -41 -138 -66 -234 -184 -290 -358 -48
-150 -99 -222 -342 -491 -62 -67 -98 -118 -123 -170 -28 -58 -41 -75 -63 -81
-35 -10 -416 -10 -464 0 -28 6 -39 14 -44 31 -9 37 49 162 160 345 80 132 110
193 147 298 49 139 82 203 121 240 13 13 93 54 177 93 85 38 177 87 205 109
105 81 202 108 296 81z m1866 -181 c-9 -84 -7 -102 24 -252 18 -89 36 -189 40
-222 10 -78 -5 -198 -35 -293 -17 -54 -25 -100 -25 -154 l0 -78 -442 0 c-244
0 -534 -3 -645 -7 l-203 -6 0 124 c0 68 5 141 11 162 24 86 140 160 390 245
221 76 363 162 566 344 134 121 204 173 268 204 28 13 52 24 55 24 3 0 1 -41
-4 -91z m-2744 -401 c-16 -40 -79 -156 -140 -257 -110 -181 -142 -252 -142
-318 l0 -33 -231 0 -231 0 4 54 c7 90 66 197 156 286 86 84 176 147 392 270
80 46 161 94 180 107 l35 23 3 -29 c2 -16 -10 -62 -26 -103z"/>
<path d="M1476 13168 c-30 -95 -71 -227 -91 -293 -53 -173 -159 -453 -220
-580 -40 -84 -68 -127 -119 -182 -69 -75 -76 -98 -30 -109 34 -9 142 0 252 20
52 10 96 15 99 13 6 -6 -127 -431 -184 -587 -62 -169 -139 -340 -196 -433
l-46 -77 23 -15 c21 -14 49 -15 241 -5 119 7 218 10 221 7 2 -2 -19 -71 -47
-153 -52 -155 -233 -547 -290 -631 -43 -63 -131 -173 -138 -173 -4 0 -19 -11
-34 -25 -25 -24 -26 -27 -12 -48 l15 -23 92 23 c93 23 525 103 559 103 10 0
20 -4 23 -8 3 -5 25 -154 50 -333 55 -391 61 -422 87 -445 19 -17 24 -16 150
11 72 16 137 34 146 40 13 10 14 28 4 147 -6 74 -22 213 -36 309 -13 96 -25
219 -27 274 l-3 100 225 46 c388 80 655 154 667 185 10 28 -7 61 -38 75 -50
20 -123 83 -174 149 -26 34 -106 155 -176 268 l-129 206 87 17 c99 20 146 35
221 73 65 33 67 53 9 84 -114 60 -198 164 -302 372 -102 204 -235 489 -235
504 0 7 47 28 115 51 91 29 132 49 190 92 49 35 72 59 69 68 -3 8 -73 62 -155
120 -159 113 -174 129 -403 415 -140 174 -191 250 -261 390 -32 63 -63 118
-69 122 -6 4 -25 8 -43 8 l-32 0 -55 -172z m195 -69 c82 -143 371 -522 459
-602 25 -23 97 -77 158 -120 62 -43 112 -82 112 -86 0 -11 -61 -67 -90 -82
-14 -7 -81 -29 -150 -49 -112 -33 -125 -39 -123 -58 4 -32 245 -541 307 -646
72 -122 125 -187 197 -244 l61 -47 -26 -22 c-34 -29 -106 -49 -221 -63 -49 -6
-93 -16 -97 -23 -8 -13 -4 -20 162 -282 152 -239 196 -295 282 -360 37 -27 63
-54 59 -58 -25 -25 -422 -124 -815 -203 -177 -35 -388 -80 -471 -99 -146 -34
-436 -87 -442 -81 -2 1 22 34 53 72 77 96 120 172 217 379 87 187 130 291 188
457 41 117 36 130 -39 109 -83 -24 -134 -30 -252 -30 -176 -1 -169 -9 -100
122 33 62 71 144 86 182 64 168 275 811 272 829 -4 29 -47 32 -97 7 -34 -18
-192 -51 -243 -51 -27 0 -22 17 28 87 25 35 72 119 104 186 73 152 140 340
275 770 28 90 51 147 58 144 6 -2 46 -64 88 -138z m224 -3039 c3 -5 10 -58 15
-117 5 -59 18 -166 29 -238 11 -71 22 -170 26 -220 3 -49 8 -107 11 -128 6
-36 5 -38 -38 -56 -23 -11 -71 -23 -106 -29 -55 -8 -64 -7 -72 8 -5 9 -16 75
-25 146 -8 71 -20 154 -26 184 -21 116 -57 405 -51 411 9 8 98 36 132 42 48 8
99 7 105 -3z"/>
<path d="M2768 12557 c-33 -26 -34 -30 -88 -377 -23 -146 -55 -323 -71 -394
-32 -142 -32 -140 31 -152 50 -10 246 12 311 34 63 22 236 128 249 153 6 11
-2 33 -27 75 -19 32 -100 188 -180 346 -134 266 -174 338 -191 338 -4 0 -19
-10 -34 -23z m131 -276 c43 -80 97 -184 119 -231 22 -47 56 -112 76 -144 l36
-60 -31 -32 c-39 -41 -125 -87 -204 -110 -59 -17 -217 -26 -230 -12 -4 4 3 49
14 100 12 51 35 181 51 288 51 328 60 372 76 359 8 -6 49 -77 93 -158z"/>
<path d="M3604 12072 c-15 -9 -36 -52 -73 -143 -16 -41 -52 -122 -80 -181 -28
-58 -61 -135 -74 -170 -46 -121 -158 -314 -239 -411 -25 -30 -38 -54 -34 -64
7 -18 32 -16 210 11 55 9 101 14 103 12 6 -6 -48 -202 -93 -334 -54 -160 -127
-332 -182 -427 -35 -60 -38 -72 -26 -84 12 -13 23 -12 86 5 58 15 106 19 235
19 95 0 166 -4 172 -10 5 -5 21 -77 36 -158 15 -82 41 -210 58 -285 l32 -137
55 -3 c36 -2 77 4 122 19 68 21 68 22 68 58 0 20 -18 141 -39 270 -22 129 -37
240 -34 246 2 7 79 31 170 55 246 62 373 115 373 154 0 16 -208 405 -304 570
-48 81 -86 150 -84 152 2 1 44 17 93 35 109 38 214 92 246 125 30 32 20 41
-84 84 -178 73 -356 221 -538 447 -118 145 -143 166 -175 145z m77 -110 c19
-21 63 -75 97 -120 117 -150 248 -260 434 -364 59 -33 105 -64 102 -69 -11
-19 -125 -69 -201 -90 -43 -11 -95 -32 -116 -46 l-39 -24 26 -32 c14 -18 39
-50 55 -73 54 -75 331 -597 331 -624 0 -43 -334 -134 -565 -154 -147 -13 -595
-20 -595 -10 0 2 20 45 45 95 25 49 54 112 65 139 23 58 180 554 180 569 0 20
-40 22 -134 6 -108 -17 -156 -19 -156 -7 0 5 14 29 31 53 113 162 159 245 202
364 14 39 43 105 65 148 22 43 59 123 82 177 23 55 46 100 50 100 4 0 23 -17
41 -38z m168 -1775 c30 -145 61 -333 61 -371 0 -38 -28 -56 -84 -56 -32 0 -34
2 -49 58 -45 162 -95 468 -80 483 14 14 107 15 119 1 6 -7 21 -58 33 -115z"/>
<path d="M4956 11448 c-162 -444 -190 -511 -336 -813 -57 -119 -120 -234 -146
-267 -24 -31 -44 -61 -44 -67 0 -20 101 -14 238 15 19 4 22 0 22 -25 0 -46
-61 -193 -164 -398 -97 -193 -226 -468 -226 -484 0 -25 42 -28 154 -12 74 11
119 14 125 8 6 -6 4 -41 -6 -90 -79 -414 -119 -554 -203 -712 -28 -51 -50 -95
-50 -98 0 -2 9 -9 21 -15 15 -9 30 -8 62 4 23 8 151 36 285 62 266 53 261 53
262 -11 0 -16 11 -82 25 -145 14 -63 34 -176 45 -250 22 -141 42 -226 66 -272
11 -21 22 -28 45 -28 42 0 201 49 229 70 l24 18 -67 328 c-59 289 -78 414 -62
414 2 0 100 18 217 41 324 61 518 112 518 136 0 8 -29 55 -65 105 -81 113
-162 256 -220 390 -40 93 -52 128 -41 128 2 0 58 11 126 25 68 14 124 25 126
25 12 0 -5 35 -82 162 -79 134 -233 435 -319 626 -44 99 -47 93 82 142 45 17
87 37 93 46 11 12 -4 32 -87 117 -129 132 -261 300 -375 479 -91 141 -190 322
-200 366 -4 15 -14 22 -31 22 -21 0 -28 -8 -41 -42z m111 -184 c165 -272 224
-360 328 -489 62 -77 136 -161 164 -188 28 -26 51 -52 51 -57 0 -6 -15 -17
-32 -24 -131 -57 -168 -77 -168 -89 0 -21 176 -392 247 -522 33 -60 87 -158
121 -217 47 -84 58 -109 48 -117 -7 -6 -57 -18 -111 -26 -129 -19 -135 -25
-106 -107 41 -115 138 -301 221 -427 45 -67 78 -126 73 -130 -20 -18 -195 -57
-733 -165 -317 -64 -615 -125 -663 -135 -63 -14 -87 -16 -87 -7 0 6 20 56 44
111 24 55 55 136 70 180 32 95 133 591 123 601 -10 10 -44 8 -165 -9 l-104
-14 6 31 c4 17 62 144 130 281 69 138 143 293 165 345 34 82 91 256 91 280 0
20 -41 18 -125 -5 -49 -14 -93 -25 -97 -25 -18 0 -4 41 43 130 141 266 269
556 373 843 10 26 22 47 26 47 5 0 35 -43 67 -96z m106 -2631 c23 -46 143
-671 131 -683 -14 -14 -140 -44 -157 -37 -20 8 -45 95 -66 237 -11 69 -31 181
-46 248 -15 70 -25 146 -23 175 l3 52 70 16 c39 9 71 17 72 18 1 0 9 -11 16
-26z"/>
<path d="M6317 9994 c-10 -52 -25 -170 -33 -261 -20 -234 -48 -340 -124 -480
l-41 -73 24 -11 c19 -9 57 -4 177 20 131 26 167 38 259 84 135 68 221 123 221
142 0 8 -10 21 -23 30 -44 29 -126 142 -225 310 -113 194 -136 238 -146 280
-10 40 -24 55 -50 55 -19 0 -23 -10 -39 -96z m101 -126 c16 -24 64 -102 106
-174 43 -72 99 -157 124 -189 73 -90 71 -83 37 -111 -40 -32 -149 -89 -230
-119 -59 -22 -235 -58 -235 -48 0 2 10 22 21 45 63 123 92 237 109 433 14 162
20 205 31 205 4 0 21 -19 37 -42z"/>
<path d="M2809 9949 c-11 -23 -39 -94 -61 -158 -97 -279 -493 -1122 -595
-1265 -47 -66 -38 -82 43 -78 68 4 200 29 226 43 25 13 24 7 -18 -134 -81
-274 -99 -320 -245 -618 -82 -168 -149 -309 -149 -315 0 -5 9 -15 20 -22 24
-15 175 -1 243 23 44 16 77 19 77 9 0 -30 -263 -611 -410 -904 -103 -207 -148
-274 -216 -321 -44 -30 -46 -33 -28 -46 22 -16 8 -18 259 42 121 29 273 56
420 75 127 17 264 35 307 42 42 6 83 8 91 5 10 -4 20 -38 31 -99 10 -51 26
-128 38 -170 20 -78 20 -78 54 -78 35 0 247 30 397 56 48 8 103 22 121 30 l33
16 -28 82 c-36 103 -57 255 -38 267 16 9 274 73 384 94 44 8 166 29 270 45
105 17 224 37 265 45 41 8 105 17 141 20 65 6 66 7 77 42 10 33 9 38 -9 51
-113 79 -245 225 -368 407 -88 130 -238 375 -256 420 l-15 34 72 22 c40 11 97
32 126 45 30 13 65 24 77 24 13 0 33 8 45 18 l21 17 -63 57 c-51 44 -116 131
-318 424 -139 203 -277 401 -305 439 -86 115 -85 112 -18 130 32 9 90 26 128
39 39 13 89 28 112 35 23 6 45 16 49 22 3 6 -23 35 -58 66 -184 163 -445 457
-588 663 -63 91 -138 196 -168 235 -30 38 -65 91 -78 117 -33 64 -64 66 -95 7z
m137 -179 c39 -52 115 -160 170 -240 79 -116 142 -191 322 -382 123 -131 233
-243 244 -249 17 -9 18 -13 7 -24 -24 -24 -161 -63 -244 -70 -44 -4 -86 -12
-92 -17 -10 -8 3 -30 50 -92 94 -121 294 -406 376 -536 92 -145 200 -297 269
-378 l53 -62 -57 -25 c-91 -40 -142 -55 -189 -55 -54 0 -75 -8 -75 -27 0 -19
181 -320 306 -508 105 -159 178 -246 281 -337 l72 -63 -107 -22 c-94 -19 -222
-42 -572 -99 -52 -8 -196 -40 -320 -69 -301 -72 -494 -111 -615 -124 -55 -7
-152 -18 -215 -26 -63 -8 -191 -24 -285 -36 -93 -11 -237 -36 -319 -55 -82
-19 -151 -33 -153 -31 -2 3 22 47 54 98 31 52 94 175 139 274 45 99 116 252
159 340 83 172 221 488 227 519 7 40 -24 41 -135 2 -111 -38 -193 -47 -203
-22 -3 7 45 114 107 237 151 303 182 375 229 541 23 79 57 182 77 231 52 130
38 142 -93 80 -53 -25 -96 -38 -136 -41 l-58 -4 203 410 c236 473 345 723 424
972 5 18 -4 28 99 -110z m359 -3367 c4 -10 16 -56 26 -103 10 -47 24 -104 31
-128 11 -37 10 -44 -2 -52 -35 -22 -291 -69 -394 -73 -69 -2 -69 -2 -78 28
-20 71 -46 250 -36 256 5 4 94 21 196 39 103 18 198 37 212 41 36 11 37 11 45
-8z"/>
<path d="M1030 9563 c-5 -21 -57 -195 -114 -388 l-104 -350 21 -17 c37 -29
137 -53 223 -53 70 0 88 4 137 30 80 42 216 155 216 180 1 30 -79 202 -163
349 -41 72 -90 166 -110 209 -32 71 -37 77 -65 77 -26 0 -32 -5 -41 -37z m208
-351 c46 -90 90 -183 97 -207 l13 -43 -76 -57 c-95 -71 -149 -96 -228 -102
-75 -7 -159 24 -150 54 2 10 17 63 31 118 33 123 132 429 152 469 l15 29 31
-49 c17 -27 68 -122 115 -212z"/>
<path d="M1245 8563 c-21 -49 -66 -169 -100 -268 -75 -218 -115 -314 -161
-391 -84 -138 -96 -176 -60 -190 8 -3 67 9 131 27 63 18 118 30 121 27 8 -9
-62 -274 -96 -360 -16 -42 -48 -115 -73 -164 -24 -49 -61 -127 -82 -174 -21
-47 -51 -106 -67 -131 -33 -55 -33 -55 -8 -69 16 -9 34 -4 94 24 64 31 87 36
178 42 80 5 107 4 113 -6 4 -7 18 -91 31 -186 24 -178 47 -258 80 -271 19 -7
204 51 223 70 17 17 13 90 -14 247 -14 80 -25 148 -25 152 0 3 33 18 73 33
164 62 207 84 266 135 l60 53 -58 71 c-102 125 -139 189 -246 427 -78 174 -80
158 23 219 110 66 241 161 242 177 0 6 -53 51 -117 101 -151 115 -230 199
-338 361 -82 123 -89 131 -119 131 -31 0 -34 -4 -71 -87z m174 -123 c54 -90
112 -153 258 -277 69 -58 121 -109 116 -113 -47 -44 -197 -136 -246 -152 -34
-12 -64 -22 -65 -24 -11 -8 39 -140 110 -289 91 -194 131 -263 201 -354 l50
-65 -45 -40 c-59 -53 -201 -109 -328 -130 -59 -10 -173 -17 -302 -19 -186 -2
-208 -1 -208 14 0 9 38 94 84 190 93 195 128 285 158 408 11 47 33 118 49 159
17 41 28 81 25 89 -8 19 -50 16 -94 -6 -31 -15 -153 -51 -175 -51 -16 0 -5 33
29 85 48 77 96 191 160 383 29 89 70 197 89 239 l35 76 30 -28 c16 -16 48 -59
69 -95z m54 -1560 c4 -30 17 -108 27 -174 11 -65 18 -122 15 -126 -7 -11 -94
-40 -121 -40 -13 0 -26 5 -29 10 -16 26 -57 323 -49 356 7 28 22 33 94 31 l55
-2 8 -55z"/>
<path d="M4646 7733 c-22 -77 -147 -742 -144 -771 3 -34 6 -37 38 -40 49 -5
177 16 226 38 69 30 220 137 241 171 l21 31 -80 127 c-43 69 -117 201 -164
294 -74 146 -88 167 -109 167 -14 0 -26 -7 -29 -17z m112 -237 c27 -52 82
-147 122 -211 l73 -116 -48 -49 c-27 -27 -75 -63 -108 -81 -98 -52 -212 -75
-223 -45 -6 16 11 114 62 361 45 217 53 247 64 240 5 -3 31 -48 58 -99z"/>
<path d="M1295 5718 c-17 -50 -61 -225 -100 -398 -25 -113 -70 -301 -100 -418
-30 -117 -55 -223 -55 -236 0 -41 40 -49 160 -31 57 9 115 18 129 22 53 13
154 64 199 100 58 47 202 190 202 201 0 4 -17 26 -37 49 -57 62 -175 298 -253
505 -67 176 -91 218 -126 218 -8 0 -17 -6 -19 -12z m104 -275 c58 -153 84
-206 180 -367 55 -93 68 -122 61 -136 -6 -10 -51 -53 -101 -95 -124 -105 -207
-142 -361 -160 l-58 -6 0 33 c0 18 11 74 24 123 71 269 88 337 126 513 43 200
58 248 72 234 4 -4 30 -67 57 -139z"/>
<path d="M15815 12488 c-3 -7 -59 -186 -125 -397 -91 -293 -117 -387 -107
-394 6 -5 37 -21 67 -35 48 -24 67 -27 150 -27 79 0 109 5 179 30 46 16 85 34
87 40 4 11 -125 582 -164 725 -16 62 -19 65 -50 68 -20 2 -34 -2 -37 -10z m44
-175 c25 -64 131 -522 131 -570 0 -7 -19 -23 -42 -35 -59 -31 -194 -33 -253
-3 -36 18 -40 23 -37 54 1 19 33 127 71 240 37 113 76 236 86 274 10 37 21 67
25 67 4 0 13 -12 19 -27z"/>
<path d="M15288 11663 c-23 -57 -174 -375 -263 -553 -101 -201 -182 -324 -289
-437 -95 -101 -92 -103 125 -103 93 0 169 -2 169 -4 0 -3 -14 -44 -31 -93 -46
-132 -216 -471 -307 -613 -68 -105 -79 -127 -66 -136 17 -13 89 -21 282 -30
78 -4 142 -11 142 -16 0 -5 -8 -25 -19 -46 -10 -20 -54 -145 -96 -277 -106
-329 -177 -490 -292 -660 -18 -27 -33 -53 -33 -57 0 -11 225 -9 280 2 25 5
122 12 216 16 l172 7 6 -39 c3 -21 15 -111 26 -199 12 -88 27 -175 35 -192 17
-39 24 -40 148 -17 75 14 88 19 91 38 3 11 8 93 11 181 4 88 10 183 13 210 l7
50 75 8 c41 4 152 17 247 27 94 11 175 20 181 20 5 0 12 12 15 26 3 19 -3 35
-23 58 -41 46 -122 180 -181 297 -104 208 -248 542 -240 557 7 12 29 14 105
13 93 -2 187 16 201 39 3 4 -11 32 -32 61 -73 106 -161 310 -253 584 -54 161
-86 273 -81 278 13 13 86 26 143 27 42 0 181 39 197 55 3 4 -60 71 -141 149
-80 77 -164 166 -186 196 -45 62 -108 186 -192 375 -105 236 -98 225 -126 225
-17 0 -28 -8 -36 -27z m127 -275 c115 -248 156 -310 318 -475 l139 -141 -32
-17 c-20 -10 -78 -20 -158 -26 -70 -6 -131 -15 -137 -20 -6 -6 18 -93 64 -237
92 -287 146 -425 226 -581 36 -68 62 -128 58 -134 -4 -6 -54 -7 -137 -3 -185
9 -182 12 -121 -139 73 -184 276 -603 340 -705 46 -73 55 -94 44 -101 -8 -5
-18 -9 -24 -9 -5 0 -59 -7 -120 -15 -60 -8 -195 -21 -300 -30 -104 -8 -226
-19 -270 -25 -205 -25 -585 -48 -585 -34 0 3 27 53 60 112 84 150 131 264 215
518 41 122 92 265 115 319 23 53 40 104 38 113 -5 26 -34 26 -94 1 -51 -20
-65 -21 -180 -15 -69 4 -134 10 -144 14 -18 7 -11 22 71 162 109 187 208 389
279 569 52 129 53 134 35 148 -11 7 -26 10 -35 7 -46 -20 -123 -34 -185 -33
-118 1 -118 0 -29 119 141 190 181 264 419 764 20 43 40 74 45 70 4 -5 42 -84
85 -176z m121 -2724 c10 -38 -2 -324 -15 -356 -8 -21 -19 -28 -48 -33 -21 -4
-45 -9 -55 -11 -11 -3 -19 5 -27 28 -13 41 -30 198 -33 303 l-3 80 50 6 c111
13 124 11 131 -17z"/>
<path d="M14231 11347 c-19 -24 -79 -222 -146 -482 -36 -140 -65 -256 -65
-259 0 -2 14 -9 30 -16 21 -9 63 -11 133 -8 81 4 119 12 186 37 102 37 154 70
145 91 -30 72 -151 437 -173 520 -15 58 -30 111 -34 118 -11 16 -62 15 -76 -1z
m119 -368 c45 -138 79 -257 76 -265 -3 -8 -36 -29 -73 -46 -54 -26 -84 -33
-151 -36 -48 -3 -88 0 -93 5 -11 11 34 209 100 442 23 78 41 144 41 147 0 2 4
4 9 4 5 0 46 -113 91 -251z"/>
<path d="M13512 11017 c-6 -6 -71 -174 -145 -372 -167 -444 -150 -405 -260
-614 -66 -125 -108 -191 -149 -236 -32 -35 -58 -68 -58 -74 0 -16 97 -41 159
-41 31 0 94 10 141 21 114 27 160 33 160 23 0 -11 -169 -475 -227 -624 -25
-63 -79 -181 -120 -262 -77 -151 -124 -209 -213 -263 -19 -11 -35 -25 -37 -31
-6 -17 141 -46 267 -51 96 -5 129 -2 196 15 44 12 88 24 98 28 23 9 24 13 -66
-231 -89 -241 -187 -464 -343 -781 -100 -202 -133 -260 -170 -297 -35 -35 -45
-52 -40 -67 8 -25 51 -26 292 -5 95 9 230 16 300 18 l128 2 17 -145 c9 -80 21
-215 27 -300 11 -180 19 -207 68 -216 32 -6 238 12 254 22 17 10 20 98 9 259
-22 344 -23 359 -8 377 11 15 47 20 213 33 251 19 369 37 482 73 85 27 88 29
97 63 8 34 4 43 -71 160 -44 68 -96 153 -116 189 -37 68 -189 420 -237 550
-32 87 -83 285 -78 301 3 8 61 11 191 10 180 -2 227 4 227 30 0 5 -58 96 -128
202 -157 235 -175 266 -222 381 -21 50 -67 156 -102 236 -68 150 -138 345
-138 381 0 18 4 20 33 15 17 -3 77 -8 132 -12 103 -6 189 6 270 41 45 18 45
17 -78 159 -88 101 -348 447 -494 659 -71 102 -140 232 -173 325 -20 56 -26
62 -50 62 -15 0 -32 -6 -38 -13z m88 -209 c22 -44 61 -112 86 -151 80 -123
358 -494 536 -714 32 -40 58 -75 58 -77 0 -2 -20 -12 -45 -22 -40 -15 -63 -16
-178 -8 -161 10 -216 9 -228 -3 -18 -18 75 -270 223 -606 89 -201 114 -249
224 -414 68 -102 124 -191 124 -198 0 -9 -26 -15 -85 -20 -102 -9 -164 -1
-230 29 -39 18 -56 21 -73 13 -27 -12 -26 -20 30 -226 89 -327 255 -697 429
-958 56 -82 57 -80 -45 -118 -111 -42 -416 -74 -811 -86 -181 -5 -432 -18
-557 -29 -124 -11 -229 -20 -232 -20 -14 0 -3 27 53 123 152 264 285 562 488
1096 60 157 72 205 54 216 -7 4 -54 -14 -104 -39 -134 -67 -229 -78 -380 -45
l-47 11 58 62 c100 107 230 387 405 871 36 99 75 204 87 234 22 57 21 81 -4
81 -9 0 -80 -18 -158 -40 -169 -48 -236 -57 -260 -38 -16 12 -14 18 25 68 48
63 185 319 247 460 35 79 157 388 232 588 11 29 24 50 29 46 5 -3 27 -41 49
-86z m95 -3624 c19 -5 22 -20 38 -197 21 -231 22 -382 5 -394 -7 -4 -56 -9
-109 -11 l-96 -4 -6 53 c-4 30 -7 97 -7 149 0 52 -7 149 -15 215 -21 175 -21
183 13 188 43 6 155 7 177 1z"/>
<path d="M11953 10148 c-6 -7 -16 -31 -23 -53 -20 -61 -267 -639 -312 -730
-63 -125 -112 -206 -158 -258 -35 -39 -40 -50 -30 -62 19 -22 72 -32 208 -39
68 -3 128 -8 132 -11 17 -10 -33 -155 -142 -410 -128 -302 -142 -327 -221
-411 -52 -56 -57 -65 -47 -84 10 -18 18 -21 48 -16 68 10 358 19 405 12 l47
-7 0 -157 c1 -208 16 -469 30 -509 15 -43 61 -57 154 -50 84 7 131 22 142 45
4 9 8 157 8 329 1 171 5 315 9 320 5 4 39 8 75 7 82 -1 449 16 479 22 12 2 25
13 28 25 5 16 -7 35 -57 87 -83 87 -137 159 -187 252 -49 92 -261 588 -261
611 0 19 6 21 155 44 95 15 225 51 225 62 0 3 -28 36 -62 72 -69 73 -273 320
-322 389 -17 24 -87 152 -156 285 -74 144 -131 243 -141 245 -9 2 -20 -3 -26
-10z m132 -309 c104 -202 115 -219 301 -443 198 -239 182 -213 137 -226 -21
-6 -105 -21 -188 -32 -82 -12 -151 -22 -152 -23 -4 -2 206 -505 251 -601 54
-113 128 -224 207 -309 l61 -65 -68 0 c-38 0 -121 -5 -184 -11 -87 -8 -179 -8
-380 3 -146 7 -340 13 -432 12 -93 0 -168 1 -168 2 0 2 20 32 45 68 50 71 75
123 205 426 88 206 155 394 145 410 -3 4 -70 6 -149 3 -145 -6 -196 -1 -196
18 0 6 20 37 45 69 67 87 108 171 266 543 78 185 147 336 153 334 6 -2 52 -82
101 -178z m15 -1779 c25 -6 25 -7 32 -156 5 -82 5 -218 2 -302 -6 -150 -7
-153 -32 -170 -28 -18 -136 -23 -151 -6 -11 11 -31 322 -31 466 0 129 8 176
29 182 18 5 113 -3 151 -14z"/>
<path d="M10962 9553 c-72 -201 -242 -723 -242 -742 0 -29 19 -36 157 -62 118
-22 124 -22 185 -5 76 21 174 85 171 112 -1 11 -20 71 -42 134 -37 107 -62
238 -111 583 -7 52 -20 67 -61 67 -24 0 -29 -8 -57 -87z m87 -215 c22 -151 49
-271 87 -393 l25 -80 -35 -32 c-53 -49 -100 -59 -199 -43 -105 17 -127 25
-127 49 0 27 110 367 197 609 8 24 19 40 24 35 5 -5 17 -70 28 -145z"/>
<path d="M9870 9448 c-72 -241 -104 -337 -131 -397 -24 -54 -27 -67 -16 -78
16 -16 136 -43 192 -43 53 0 143 25 175 48 14 10 44 29 68 42 23 13 41 29 39
35 -3 5 -55 119 -117 253 l-113 242 -33 0 -33 0 -31 -102z m159 -187 c45 -96
81 -180 81 -187 0 -37 -121 -94 -199 -94 -41 0 -121 16 -121 24 0 2 16 46 35
97 20 52 44 130 56 174 30 122 50 178 59 168 5 -4 45 -86 89 -182z"/>
<path d="M15896 8271 c-3 -4 -47 -150 -97 -322 -50 -173 -96 -331 -102 -352
-17 -56 -2 -65 123 -73 154 -9 352 24 367 62 5 14 -95 321 -142 432 -14 34
-33 97 -40 140 -25 130 -21 122 -65 122 -21 0 -41 -4 -44 -9z m54 -188 c37
-83 110 -292 135 -384 l23 -88 -41 -17 c-46 -18 -204 -31 -261 -20 -22 4 -36
13 -36 22 0 12 128 471 145 522 7 20 13 14 35 -35z"/>
<path d="M15140 7965 c-43 -112 -226 -557 -258 -626 -69 -149 -267 -462 -331
-523 -38 -36 -40 -63 -5 -76 14 -6 86 -10 161 -10 l135 0 -28 -47 c-55 -96
-225 -341 -310 -448 -48 -60 -139 -162 -201 -226 -144 -147 -145 -144 72 -169
50 -5 132 -10 183 -10 56 0 92 -4 92 -10 0 -21 -90 -187 -132 -245 -68 -92
-179 -201 -221 -216 -26 -9 -37 -19 -37 -34 1 -47 -29 -41 575 -99 72 -6 136
-15 143 -20 10 -6 11 -64 6 -280 -7 -288 -4 -340 25 -355 10 -6 92 -13 183
-17 157 -7 166 -6 172 12 3 10 10 111 16 224 9 182 19 286 35 358 5 20 11 22
78 22 39 0 164 -9 277 -20 375 -37 334 -36 354 -6 l17 27 -58 57 c-46 45 -83
101 -181 274 -68 120 -122 226 -120 235 3 15 19 19 103 25 115 7 246 33 256
50 5 7 -5 27 -22 48 -102 123 -263 370 -337 517 -48 94 -164 393 -159 407 3 7
45 22 93 34 137 33 274 109 274 152 0 3 -17 16 -37 28 -57 32 -101 74 -229
217 -154 173 -260 314 -318 427 -27 51 -83 150 -125 220 -68 115 -79 128 -104
128 -20 0 -30 -7 -37 -25z m155 -262 c90 -165 186 -309 272 -405 167 -189 220
-246 270 -288 29 -24 53 -50 53 -57 0 -18 -138 -82 -198 -92 -30 -5 -73 -6
-96 -4 -63 8 -74 -12 -52 -85 81 -260 244 -577 427 -829 32 -45 62 -88 65 -96
10 -27 -61 -41 -216 -42 -120 0 -145 -3 -148 -15 -1 -8 27 -67 62 -130 35 -63
96 -171 134 -239 38 -69 86 -146 106 -173 19 -26 31 -48 26 -48 -65 0 -1092
81 -1390 110 -113 11 -214 20 -224 20 -14 0 6 25 70 88 104 99 131 136 231
317 88 159 88 162 -39 144 -72 -11 -107 -10 -212 3 -69 8 -129 18 -132 21 -4
3 48 66 115 140 146 162 178 202 329 419 142 205 194 288 190 308 -3 13 -26
14 -161 11 -146 -3 -157 -2 -151 14 4 9 52 83 106 163 55 81 115 173 133 204
56 94 232 498 270 618 9 30 24 66 33 79 l15 25 21 -27 c12 -15 53 -84 91 -154z
m-60 -2514 c55 -6 103 -16 108 -22 4 -7 5 -28 2 -47 -9 -61 -25 -311 -25 -400
0 -47 -4 -91 -9 -99 -7 -11 -32 -13 -122 -9 -63 3 -122 9 -131 13 -24 10 -32
62 -23 148 4 40 9 142 10 227 1 85 6 167 10 182 6 25 11 27 44 23 20 -3 81
-10 136 -16z"/>
<path d="M12561 6753 c-29 -104 -89 -307 -132 -453 -44 -146 -82 -272 -85
-282 -9 -31 57 -43 246 -43 l175 1 150 44 c144 43 150 46 148 71 -2 35 -91
234 -253 567 -134 272 -139 282 -167 282 l-29 0 -53 -187z m215 -160 c104
-212 214 -458 214 -479 0 -27 -221 -91 -348 -101 -72 -5 -222 11 -222 24 0 6
197 664 221 741 9 27 13 31 25 21 8 -6 57 -99 110 -206z"/>
<path d="M15748 4372 c-89 -273 -168 -532 -168 -550 0 -7 15 -21 33 -32 83
-51 256 -80 362 -61 72 13 185 66 185 87 0 8 -11 40 -24 72 -13 31 -27 73 -31
92 -4 19 -25 76 -47 125 -80 183 -137 333 -159 418 -20 82 -23 87 -48 87 -25
0 -28 -8 -103 -238z m187 -137 c78 -178 128 -315 141 -379 6 -33 5 -34 -49
-54 -30 -12 -81 -24 -114 -27 -103 -12 -261 34 -249 73 3 9 21 78 41 152 65
243 132 438 145 422 4 -4 42 -88 85 -187z"/>
<path d="M7384 9182 c-93 -39 -187 -97 -224 -140 -53 -60 -100 -156 -100 -204
0 -104 72 -140 201 -102 57 17 345 162 387 195 71 55 91 132 53 195 -40 66
-218 97 -317 56z m224 -44 c37 -11 52 -33 52 -76 0 -22 -11 -39 -42 -68 -83
-75 -390 -223 -465 -224 -13 0 -27 9 -34 21 -40 75 66 227 211 303 116 62 186
72 278 44z"/>
<path d="M6636 8623 c-11 -3 -43 -21 -71 -39 -38 -25 -81 -42 -161 -60 -167
-39 -229 -60 -298 -104 -59 -37 -68 -48 -110 -130 -56 -108 -71 -177 -56 -257
12 -70 34 -102 85 -127 83 -41 244 14 430 149 50 36 147 99 217 141 263 159
315 230 257 350 -30 62 -80 84 -190 83 -46 -1 -93 -4 -103 -6z m201 -54 c15
-5 31 -16 35 -22 14 -23 8 -102 -10 -132 -24 -39 -106 -101 -212 -160 -47 -26
-146 -90 -221 -141 -165 -112 -235 -149 -313 -163 -50 -9 -63 -8 -83 5 -59 38
-58 155 2 283 63 133 118 169 350 225 100 25 171 48 211 71 34 18 75 35 90 38
57 8 123 7 151 -4z"/>
<path d="M6070 7644 c-19 -8 -79 -30 -132 -49 -107 -37 -243 -113 -302 -171
-40 -39 -83 -121 -86 -164 -5 -65 1 -83 39 -121 35 -35 44 -39 91 -39 62 0
138 28 305 114 182 93 275 194 275 298 0 34 -27 108 -47 130 -20 23 -93 24
-143 2z m113 -69 c21 -45 21 -78 1 -121 -35 -73 -189 -183 -364 -260 -145 -64
-210 -56 -210 25 0 89 92 202 221 271 61 33 286 116 320 119 8 0 23 -15 32
-34z"/>
<path d="M5830 6641 c-236 -81 -283 -102 -412 -185 -298 -190 -451 -349 -494
-510 -21 -79 -18 -184 6 -224 23 -38 96 -75 180 -93 63 -13 186 -1 330 32 47
10 140 30 207 43 146 29 215 59 284 123 56 52 160 183 221 277 87 135 119 338
70 438 -40 81 -96 107 -242 114 -76 3 -106 0 -150 -15z m272 -54 c75 -31 102
-121 75 -250 -22 -107 -62 -188 -150 -304 -92 -121 -191 -217 -251 -242 -25
-11 -98 -29 -163 -41 -65 -11 -142 -28 -172 -36 -163 -46 -302 -55 -384 -24
-64 24 -86 45 -94 92 -7 46 29 188 64 247 82 141 439 412 649 492 234 89 235
90 314 85 42 -2 92 -11 112 -19z"/>
<path d="M4010 5331 c-87 -14 -369 -174 -499 -286 -74 -63 -126 -128 -164
-205 -28 -56 -32 -75 -32 -145 0 -133 47 -185 168 -185 81 0 145 19 212 63 72
49 149 86 300 147 227 92 277 125 321 211 97 192 58 356 -95 399 -39 11 -140
11 -211 1z m224 -62 c52 -25 71 -62 71 -137 0 -113 -49 -213 -132 -269 -27
-18 -121 -62 -211 -97 -90 -36 -202 -88 -250 -115 -172 -98 -252 -115 -309
-67 -26 23 -28 29 -28 98 1 63 6 82 34 138 81 157 387 383 611 450 74 22 169
22 214 -1z"/>
<path d="M5090 5243 c-135 -36 -290 -129 -369 -220 -60 -70 -131 -213 -137
-276 -14 -139 128 -231 277 -182 107 36 156 66 302 187 217 179 269 257 233
351 -50 132 -157 181 -306 140z m155 -52 c48 -22 69 -44 90 -95 16 -37 15 -40
-10 -91 -28 -59 -94 -124 -247 -246 -123 -98 -168 -124 -250 -146 -84 -22
-138 -9 -169 40 -29 46 -20 103 31 204 49 95 125 181 212 236 76 49 234 111
293 116 6 0 28 -8 50 -18z"/>
<path d="M2645 4904 c-11 -3 -75 -24 -142 -46 -118 -40 -129 -47 -305 -175
-202 -146 -249 -186 -273 -234 -42 -81 -23 -249 35 -301 24 -22 40 -28 78 -28
71 0 158 26 234 70 62 36 116 59 313 134 39 14 97 41 130 59 50 28 65 43 88
88 79 156 68 367 -23 414 -32 17 -103 27 -135 19z m120 -61 c38 -38 44 -103
21 -226 -18 -91 -45 -148 -85 -177 -35 -24 -198 -97 -291 -130 -36 -12 -108
-44 -160 -70 -102 -51 -141 -65 -207 -75 -39 -6 -43 -5 -58 25 -9 18 -19 65
-22 104 -8 110 22 155 192 287 167 130 275 195 365 219 25 6 52 18 61 27 39
34 156 45 184 16z"/>
<path d="M4200 4319 c-330 -95 -416 -136 -645 -312 -87 -67 -205 -167 -260
-222 -181 -179 -324 -394 -376 -564 -20 -67 -21 -83 -12 -153 18 -134 67 -182
229 -224 113 -29 187 -28 271 4 58 22 243 144 353 232 41 33 124 85 183 116
59 31 142 83 185 114 161 121 345 343 421 511 64 141 95 292 71 353 -18 48
-79 104 -138 127 -65 25 -224 35 -282 18z m267 -61 c81 -30 108 -70 103 -153
-3 -48 -78 -265 -115 -331 -119 -212 -324 -418 -522 -522 -106 -55 -160 -92
-329 -219 -60 -46 -142 -100 -183 -120 -70 -36 -80 -38 -165 -38 -157 0 -257
47 -286 134 -17 53 -9 158 19 241 28 81 80 171 176 299 103 139 212 245 410
400 140 109 191 143 294 192 69 33 173 74 231 91 215 62 261 65 367 26z"/>
<path d="M2080 3865 c-105 -23 -208 -83 -505 -295 -393 -281 -475 -356 -539
-490 -28 -58 -31 -75 -31 -155 1 -152 61 -258 182 -322 73 -39 141 -53 252
-53 201 0 369 60 484 173 175 171 513 558 565 646 38 64 82 208 82 266 0 96
-81 211 -167 234 -53 15 -245 12 -323 -4z m358 -63 c18 -13 41 -40 51 -61 34
-65 35 -100 7 -192 -49 -158 -90 -213 -461 -621 -180 -198 -209 -223 -300
-268 -106 -52 -218 -74 -344 -67 -159 8 -244 56 -298 165 -24 49 -28 69 -28
147 0 81 3 97 32 157 17 37 53 90 79 118 121 130 644 508 811 588 108 51 160
61 298 59 108 -2 123 -4 153 -25z"/>
<path d="M2629 2631 c-115 -37 -177 -82 -260 -192 -15 -19 -57 -53 -95 -74
-87 -51 -172 -137 -341 -349 -155 -192 -272 -362 -317 -456 -29 -61 -31 -72
-31 -176 1 -101 3 -114 27 -155 27 -46 79 -89 131 -108 42 -16 232 -13 306 4
87 21 261 96 343 148 95 60 295 252 376 360 38 51 94 135 124 187 30 52 72
122 92 155 60 97 78 170 83 325 l5 135 -39 55 c-96 136 -250 190 -404 141z
m236 -53 c106 -54 146 -116 153 -238 8 -138 -27 -236 -166 -476 -97 -166 -175
-266 -310 -396 -151 -145 -267 -216 -455 -280 -73 -25 -113 -32 -197 -35 -95
-4 -109 -2 -149 19 -64 33 -81 62 -93 157 -13 102 4 184 58 273 100 164 349
483 475 608 71 70 102 93 238 173 38 22 57 41 64 62 19 61 73 99 202 142 78
25 115 24 180 -9z"/>
<path d="M8621 9181 c-46 -46 -45 -125 3 -182 14 -16 61 -102 105 -192 115
-234 184 -297 328 -297 97 1 148 25 164 79 16 55 0 126 -43 189 -77 113 -338
351 -445 406 -43 22 -89 20 -112 -3z m109 -62 c100 -61 314 -261 399 -372 31
-41 45 -69 48 -100 6 -55 -8 -67 -87 -74 -86 -8 -135 13 -207 91 -55 59 -86
116 -177 326 -9 19 -29 51 -47 72 -57 66 -9 105 71 57z"/>
<path d="M9936 8436 c-116 -49 -174 -136 -163 -244 9 -81 26 -117 128 -266 97
-141 224 -281 292 -320 71 -42 386 -143 480 -155 106 -13 149 -2 197 48 45 47
60 98 62 207 l1 86 -61 122 c-34 67 -74 134 -89 148 -60 57 -301 240 -346 262
-26 14 -70 39 -96 56 -76 48 -155 72 -256 77 -79 3 -97 1 -149 -21z m274 -61
c24 -8 92 -43 150 -77 254 -149 394 -278 476 -442 47 -94 49 -102 49 -180 0
-147 -43 -182 -196 -164 -114 13 -405 111 -482 162 -70 46 -177 161 -221 235
-18 31 -51 81 -74 111 -65 85 -92 146 -92 207 0 44 5 58 31 88 31 35 70 60
119 76 37 13 189 3 240 -16z"/>
<path d="M8727 8300 c-102 -18 -157 -82 -157 -183 0 -120 51 -215 242 -454
119 -148 197 -215 326 -280 l94 -48 117 0 c131 1 196 19 274 75 98 70 111 162
42 286 -97 173 -267 384 -356 440 -50 31 -208 96 -322 132 -104 33 -190 44
-260 32z m258 -104 c50 -21 124 -51 165 -67 141 -56 155 -64 215 -124 133
-131 295 -384 295 -460 0 -47 -36 -86 -112 -121 -58 -26 -72 -29 -173 -28 -90
0 -120 4 -166 22 -142 56 -277 177 -437 391 -105 140 -151 229 -159 304 -4 41
-1 57 13 75 31 38 89 53 184 49 71 -4 102 -11 175 -41z"/>
<path d="M9610 7107 c-67 -19 -107 -47 -198 -139 -93 -95 -157 -175 -183 -233
-37 -80 -13 -301 45 -419 37 -75 179 -258 258 -331 185 -172 407 -239 684
-206 219 26 322 69 424 177 126 135 140 254 59 479 -24 66 -44 99 -102 167
-40 47 -84 101 -98 119 -43 56 -352 290 -449 339 -77 39 -361 70 -440 47z
m302 -72 c37 -8 87 -22 110 -33 61 -27 361 -247 411 -302 79 -86 172 -202 199
-248 35 -61 82 -253 73 -301 -21 -111 -139 -232 -270 -276 -27 -9 -120 -26
-205 -37 -149 -19 -159 -19 -260 -3 -58 9 -125 26 -150 36 -81 36 -194 107
-254 161 -71 63 -223 263 -261 343 -51 108 -69 261 -40 332 17 39 65 99 182
223 79 84 107 104 170 120 47 11 205 4 295 -15z"/>
<path d="M10980 6673 c-62 -19 -108 -89 -117 -177 -11 -109 28 -171 258 -407
112 -114 162 -150 316 -229 123 -62 174 -71 235 -41 64 31 83 69 83 166 0 112
-32 174 -139 275 -44 41 -135 127 -202 191 -92 88 -141 126 -201 156 -93 49
-195 78 -233 66z m153 -93 c93 -39 142 -79 358 -292 202 -198 219 -223 219
-324 0 -37 -5 -51 -30 -76 -27 -26 -36 -30 -70 -25 -56 7 -228 87 -303 141
-83 59 -337 327 -371 390 -37 70 -33 150 11 198 25 28 105 23 186 -12z"/>
<path d="M10775 5677 c-56 -19 -81 -33 -127 -75 -77 -70 -105 -168 -74 -263
10 -29 49 -111 89 -182 53 -99 93 -156 164 -236 122 -137 189 -196 347 -299
237 -156 342 -197 501 -196 120 0 154 13 229 84 62 59 81 109 80 210 -2 83
-18 131 -112 319 -70 141 -85 164 -171 255 -108 116 -277 247 -396 306 -44 22
-118 49 -165 60 -108 27 -308 36 -365 17z m350 -77 c174 -46 340 -155 522
-344 99 -103 103 -109 194 -291 78 -156 93 -194 97 -244 10 -134 -57 -213
-203 -240 -75 -14 -148 -2 -265 45 -116 47 -192 92 -351 211 -150 112 -271
234 -349 350 -61 92 -170 313 -170 346 0 32 51 109 94 142 19 15 55 33 78 41
62 20 250 12 353 -16z"/>
<path d="M12578 5356 c-84 -23 -157 -89 -187 -169 -42 -112 56 -303 222 -431
45 -36 128 -100 183 -143 56 -43 159 -131 230 -195 193 -175 232 -199 414
-261 251 -86 448 -77 552 23 69 68 85 155 52 289 -38 152 -131 267 -369 458
-188 151 -218 169 -471 281 -253 111 -333 137 -474 152 -111 11 -93 12 -152
-4z m245 -77 c56 -11 136 -35 177 -53 41 -19 141 -63 222 -99 214 -95 252
-118 400 -235 155 -123 283 -248 323 -316 62 -106 84 -268 45 -331 -56 -90
-234 -112 -455 -54 -203 52 -327 132 -599 387 -44 40 -141 119 -215 175 -195
146 -253 211 -287 324 -18 58 -6 109 37 157 59 67 172 82 352 45z"/>
<path d="M9587 5250 c-90 -16 -119 -52 -132 -166 -6 -50 -3 -72 20 -139 15
-44 38 -96 50 -117 26 -39 168 -159 330 -279 55 -40 154 -118 220 -172 153
-125 206 -152 281 -144 105 11 161 72 171 186 4 46 -1 71 -26 140 -64 175
-137 277 -328 461 -94 90 -129 117 -196 149 -139 67 -290 99 -390 81z m240
-81 c127 -39 186 -80 343 -238 163 -164 208 -225 252 -338 16 -43 37 -97 46
-120 14 -37 15 -46 1 -89 -19 -63 -55 -89 -122 -89 -59 0 -84 14 -247 144 -52
42 -161 125 -241 186 -211 159 -282 228 -321 311 -27 56 -33 82 -33 136 0 55
4 71 20 88 44 43 176 47 302 9z"/>
<path d="M12175 4280 c-69 -10 -116 -32 -163 -75 -58 -52 -82 -107 -82 -186 0
-76 22 -130 71 -175 39 -36 220 -142 329 -192 112 -51 195 -109 320 -220 149
-133 212 -165 336 -170 139 -6 194 19 240 109 53 106 36 211 -58 354 -67 103
-345 388 -409 420 -25 13 -124 46 -220 74 -224 64 -281 73 -364 61z m330 -119
c94 -29 194 -63 222 -76 104 -47 372 -334 439 -470 58 -117 58 -184 1 -250
-31 -36 -36 -38 -108 -43 -133 -8 -241 41 -385 178 -93 88 -123 107 -359 235
-280 150 -314 177 -334 265 -21 92 37 175 149 211 14 5 66 7 115 5 73 -3 122
-14 260 -55z"/>
<path d="M14212 3964 c-79 -40 -104 -152 -57 -252 50 -108 229 -262 363 -312
31 -12 102 -32 157 -45 55 -13 141 -38 190 -55 107 -37 218 -48 294 -30 66 16
101 61 101 130 0 37 -9 59 -50 122 -102 160 -275 303 -443 369 -177 68 -485
109 -555 73z m231 -59 c334 -44 550 -173 723 -432 49 -74 53 -104 17 -133 -25
-20 -36 -22 -118 -18 -64 4 -112 13 -165 32 -41 15 -127 40 -190 55 -215 54
-296 97 -417 223 -69 72 -123 160 -123 201 0 49 52 86 120 87 20 0 89 -7 153
-15z"/>
<path d="M10782 3839 c-244 -48 -356 -290 -262 -563 24 -70 31 -83 119 -199
56 -75 88 -105 211 -197 158 -117 232 -162 355 -211 102 -40 436 -139 495
-146 26 -3 84 3 140 15 163 34 239 82 290 186 54 110 51 244 -11 423 -22 64
-111 181 -231 303 -75 78 -98 93 -243 171 -169 91 -261 131 -337 148 -26 6
-82 22 -125 36 -115 38 -302 54 -401 34z m174 -59 c339 -28 773 -223 921 -415
26 -33 77 -94 114 -136 60 -66 72 -87 98 -167 25 -73 31 -109 31 -175 0 -146
-55 -221 -199 -274 -113 -42 -186 -38 -381 16 -355 99 -454 145 -650 297 -25
19 -67 52 -94 72 -113 86 -226 258 -256 391 -15 64 -8 161 16 219 24 63 111
137 187 161 75 24 57 23 213 11z"/>
<path d="M13747 3178 c-26 -16 -46 -39 -64 -76 -25 -51 -26 -57 -15 -114 21
-114 122 -243 260 -332 39 -26 128 -69 197 -96 110 -44 134 -50 198 -50 123 1
176 38 212 148 22 67 17 191 -10 242 -31 60 -98 140 -143 170 -24 16 -69 34
-100 40 -32 6 -133 29 -227 51 -194 45 -253 49 -308 17z m258 -74 c50 -14 136
-35 192 -45 56 -10 120 -27 142 -38 43 -23 99 -83 139 -151 33 -56 36 -140 8
-214 -15 -39 -26 -51 -60 -67 -68 -31 -121 -25 -263 31 -168 65 -243 110 -329
196 -139 140 -163 263 -60 310 41 19 116 12 231 -22z"/>
<path d="M12375 2511 c-114 -28 -188 -132 -189 -266 0 -58 5 -81 31 -137 42
-89 103 -178 167 -241 55 -55 207 -168 306 -228 77 -47 274 -116 382 -135 82
-14 85 -14 273 21 209 40 252 58 309 128 28 35 31 46 31 106 0 61 -5 78 -48
164 -79 160 -192 258 -383 330 -49 19 -114 49 -144 67 -59 35 -212 105 -301
138 -128 47 -347 74 -434 53z m252 -77 c104 -21 199 -58 385 -148 87 -42 188
-87 225 -101 205 -77 339 -209 397 -391 20 -62 13 -87 -37 -131 -45 -39 -64
-45 -277 -83 -174 -32 -175 -32 -245 -15 -280 68 -507 194 -685 381 -92 97
-160 230 -160 313 0 84 44 149 121 180 38 15 193 12 276 -5z"/>
<path d="M14865 2303 c-133 -69 -193 -121 -236 -205 -30 -58 -23 -161 15 -236
65 -129 418 -425 607 -511 80 -36 130 -46 349 -71 232 -27 262 -26 375 10 118
38 170 76 210 155 78 152 10 340 -197 547 -94 94 -119 113 -201 153 -52 25
-134 55 -183 66 -49 11 -152 36 -229 55 -162 39 -353 74 -404 74 -22 0 -64
-15 -106 -37z m232 -43 c65 -11 159 -31 208 -44 50 -13 155 -40 234 -60 174
-43 242 -73 343 -154 124 -99 220 -226 264 -349 30 -85 30 -115 0 -179 -32
-68 -73 -97 -181 -129 -82 -24 -100 -26 -200 -20 -209 12 -377 42 -477 86
-125 54 -161 76 -301 188 -185 148 -270 235 -306 311 -51 107 -38 176 48 251
49 44 193 119 228 119 11 0 74 -9 140 -20z"/>
<path d="M11160 1950 c-51 -26 -90 -101 -90 -171 0 -47 6 -64 50 -135 27 -44
71 -99 98 -121 115 -97 332 -218 544 -305 130 -53 194 -56 256 -15 57 37 85
94 85 172 0 38 -7 74 -18 96 -27 52 -160 213 -227 274 -103 92 -261 163 -458
205 -119 25 -194 25 -240 0z m236 -65 c181 -41 260 -73 370 -151 101 -71 263
-265 282 -336 23 -84 -32 -158 -115 -158 -79 0 -392 139 -561 249 -127 83
-188 144 -233 236 -35 72 -34 108 5 144 49 46 104 50 252 16z"/>
<path d="M455 415 c-20 -50 -14 -120 11 -151 14 -18 15 -18 7 6 -13 41 -9 156
6 174 8 9 9 16 3 16 -6 0 -18 -20 -27 -45z"/>
<path d="M776 428 c16 -31 16 -117 0 -163 -7 -19 -7 -19 8 -1 25 31 31 101 11
151 -9 25 -21 45 -26 45 -5 0 -2 -14 7 -32z"/>
<path d="M529 379 c-15 -15 -19 -28 -14 -47 13 -52 43 -66 81 -37 23 17 12 20
-15 3 -26 -16 -51 5 -51 42 0 37 22 55 49 41 28 -15 36 -14 21 4 -17 21 -46
19 -71 -6z"/>
<path d="M669 390 c-25 -15 -32 -58 -14 -86 18 -27 42 -31 71 -9 23 17 12 20
-15 3 -26 -16 -51 5 -51 42 0 37 22 55 49 41 28 -15 36 -14 21 4 -14 17 -37
19 -61 5z"/>
<path d="M930 340 l0 -60 34 0 c42 0 65 24 49 50 -8 12 -9 20 -1 28 18 18 -10
42 -48 42 l-34 0 0 -60z m68 28 c3 -13 -3 -18 -22 -18 -20 0 -26 5 -26 21 0
15 5 20 22 17 13 -2 24 -11 26 -20z m-3 -53 c0 -13 -8 -21 -22 -23 -19 -3 -23
1 -23 23 0 22 4 26 23 23 14 -2 22 -10 22 -23z"/>
<path d="M1051 395 c0 -5 6 -21 14 -35 8 -14 14 -37 15 -52 0 -16 5 -28 10
-28 6 0 10 12 10 28 0 15 9 42 20 60 11 17 16 32 12 32 -5 0 -15 -11 -22 -25
-13 -24 -30 -34 -30 -17 0 5 -7 17 -15 28 -8 10 -14 15 -14 9z"/>
<path d="M1289 373 c-3 -16 -1 -44 2 -63 6 -32 6 -31 8 15 l2 50 27 -47 c15
-27 30 -48 33 -48 11 0 16 61 8 94 -6 28 -7 25 -8 -19 l-2 -50 -27 47 c-15 27
-30 48 -33 48 -4 0 -8 -12 -10 -27z"/>
<path d="M1426 378 c-22 -30 -20 -61 4 -83 20 -18 70 -14 70 6 0 6 -7 6 -21
-1 -27 -15 -49 3 -49 40 0 37 22 55 49 41 29 -16 39 -13 17 4 -28 21 -52 19
-70 -7z"/>
<path d="M1661 383 c-13 -25 -3 -40 32 -48 15 -4 27 -14 27 -21 0 -19 -29 -29
-43 -15 -17 17 -31 13 -17 -4 24 -28 80 -13 80 23 0 7 -16 20 -35 28 -19 8
-35 19 -35 24 0 18 29 23 47 9 14 -12 16 -12 11 1 -7 23 -55 25 -67 3z"/>
<path d="M1795 363 c-9 -20 -18 -48 -21 -62 -5 -24 -4 -25 9 -8 17 21 56 22
63 2 4 -8 10 -15 15 -15 4 0 -2 27 -13 60 -12 33 -26 60 -30 60 -4 0 -15 -17
-23 -37z m35 -25 c0 -10 -7 -18 -15 -18 -17 0 -18 4 -8 38 4 18 8 20 14 10 5
-7 9 -21 9 -30z"/>
<path d="M14700 340 l0 -60 38 1 c30 2 32 3 10 6 -27 4 -28 7 -28 59 0 30 -4
54 -10 54 -6 0 -10 -27 -10 -60z"/>
<path d="M14810 340 l0 -60 38 1 c30 2 32 3 10 6 -19 3 -28 10 -28 23 0 13 9
20 28 23 l27 4 -27 2 c-23 1 -28 6 -28 25 0 19 6 26 28 29 22 3 20 4 -10 6
l-38 1 0 -60z"/>
<path d="M14920 340 c0 -33 4 -60 10 -60 6 0 10 27 10 60 0 33 -4 60 -10 60
-6 0 -10 -27 -10 -60z"/>
<path d="M15005 363 c-9 -20 -18 -48 -21 -62 -5 -24 -4 -25 9 -8 17 21 56 22
63 2 4 -8 10 -15 15 -15 4 0 -2 27 -13 60 -12 33 -26 60 -30 60 -4 0 -15 -17
-23 -37z m35 -25 c0 -10 -7 -18 -15 -18 -17 0 -18 4 -8 38 4 18 8 20 14 10 5
-7 9 -21 9 -30z"/>
<path d="M15110 340 c0 -33 4 -60 10 -60 6 0 10 14 10 30 0 25 4 30 25 30 21
0 25 -5 25 -30 0 -16 5 -30 10 -30 6 0 10 27 10 60 0 33 -4 60 -10 60 -5 0
-10 -11 -10 -25 0 -20 -5 -25 -25 -25 -20 0 -25 5 -25 25 0 14 -4 25 -10 25
-6 0 -10 -27 -10 -60z"/>
<path d="M15242 338 c1 -50 2 -54 5 -20 5 53 16 54 32 2 15 -49 26 -51 41 -5
16 48 31 54 28 11 -1 -19 1 -38 5 -42 4 -4 7 21 7 55 0 74 -16 79 -40 13 -8
-23 -17 -42 -21 -42 -3 0 -12 20 -19 45 -19 69 -40 59 -38 -17z"/>
<path d="M15450 351 c0 -57 -13 -71 -42 -44 -15 12 -20 14 -16 4 7 -25 36 -37
56 -25 19 13 31 114 13 114 -6 0 -11 -22 -11 -49z"/>
<path d="M15522 340 c-11 -33 -17 -60 -13 -60 5 0 11 7 15 15 7 20 46 19 63
-2 13 -17 14 -16 9 8 -8 38 -35 99 -44 99 -4 0 -18 -27 -30 -60z m47 -7 c1 -7
-6 -13 -14 -13 -16 0 -19 17 -8 46 6 16 7 16 14 -2 4 -10 8 -25 8 -31z"/>
<path d="M15639 388 c-4 -53 -4 -79 2 -95 5 -11 8 1 8 32 l1 50 30 -47 c17
-27 33 -48 38 -48 4 0 5 28 2 62 -5 63 -5 63 -8 14 l-3 -48 -29 46 c-31 48
-39 55 -41 34z"/>
<path d="M15771 383 c-13 -25 -3 -40 32 -48 28 -8 36 -29 14 -38 -8 -3 -20 -1
-28 4 -22 14 -33 11 -19 -6 24 -28 80 -13 80 23 0 7 -16 20 -35 28 -19 8 -35
19 -35 24 0 18 29 23 47 9 14 -12 16 -12 11 1 -7 23 -55 25 -67 3z"/>
<path d="M15880 340 l0 -60 43 2 c36 1 38 2 10 5 -43 6 -47 40 -5 46 l27 4
-27 2 c-23 1 -28 6 -28 25 0 20 6 25 33 29 28 3 26 4 -10 5 l-43 2 0 -60z"/>
<path d="M16001 338 c1 -56 2 -59 9 -28 5 19 6 38 4 42 -3 5 -1 8 4 8 4 0 18
-18 31 -40 12 -22 26 -40 32 -40 5 0 9 28 9 62 0 34 -3 58 -7 54 -4 -4 -6 -22
-5 -41 3 -46 -9 -44 -37 5 -12 22 -26 40 -32 40 -5 0 -9 -28 -8 -62z"/>
<path d="M16216 378 c-21 -30 -20 -61 2 -81 23 -21 42 -21 68 -2 22 17 12 20
-17 4 -27 -14 -49 4 -49 41 0 37 22 55 49 41 29 -16 39 -13 17 4 -28 21 -52
19 -70 -7z"/>
<path d="M16347 382 c-38 -42 -4 -111 48 -98 15 4 30 17 35 31 23 61 -42 113
-83 67z m54 -2 c27 -15 26 -66 -2 -80 -15 -9 -24 -8 -35 1 -17 14 -19 60 -2
77 15 15 15 15 39 2z"/>
<path d="M16472 338 c1 -41 3 -50 5 -25 5 46 15 47 32 2 7 -19 16 -35 20 -35
4 0 14 19 22 43 l13 42 7 -45 c8 -59 14 -25 10 60 -1 29 -20 24 -27 -7 -4 -16
-11 -37 -17 -47 -9 -18 -12 -15 -26 24 -25 68 -41 63 -39 -12z"/>
<path d="M1170 350 c0 -5 16 -10 35 -10 19 0 35 5 35 10 0 6 -16 10 -35 10
-19 0 -35 -4 -35 -10z"/>
<path d="M1540 350 c0 -5 16 -10 35 -10 19 0 35 5 35 10 0 6 -16 10 -35 10
-19 0 -35 -4 -35 -10z"/>
<path d="M16137 303 c-12 -11 -8 -23 8 -23 8 0 15 7 15 15 0 16 -12 20 -23 8z"/>
</g>
</svg>
