<?xml version="1.0" standalone="no"?>
<!DOCTYPE svg PUBLIC "-//W3C//DTD SVG 20010904//EN"
 "http://www.w3.org/TR/2001/REC-SVG-20010904/DTD/svg10.dtd">
<svg version="1.0" xmlns="http://www.w3.org/2000/svg"
 width="736.000000pt" height="1098.000000pt" viewBox="0 0 736.000000 1098.000000"
 preserveAspectRatio="xMidYMid meet">

<g transform="translate(0.000000,1098.000000) scale(0.100000,-0.100000)"
fill="#000000" stroke="none">
<path d="M4333 10688 c-87 -7 -144 -27 -217 -77 -42 -30 -100 -85 -130 -126
-14 -20 -15 -20 -43 8 -46 43 -103 32 -127 -25 -11 -25 -11 -42 1 -96 7 -36
12 -67 9 -69 -2 -2 -14 1 -27 7 -70 30 -267 32 -379 4 -85 -22 -157 -56 -197
-94 -31 -29 -34 -30 -61 -16 -55 28 -156 48 -252 48 -76 0 -112 -5 -180 -27
-118 -38 -251 -108 -342 -182 l-77 -62 -37 55 c-86 129 -264 224 -424 225
-142 1 -330 -110 -444 -262 -54 -72 -73 -131 -82 -248 -6 -77 -3 -96 21 -171
26 -79 33 -90 104 -160 70 -70 102 -92 172 -119 22 -8 27 -18 33 -61 6 -43 3
-60 -19 -108 -35 -75 -43 -169 -21 -244 9 -31 16 -68 16 -82 0 -15 7 -55 16
-89 18 -72 13 -129 -30 -367 -15 -80 -31 -172 -37 -205 -56 -330 -214 -897
-437 -1570 -132 -397 -161 -489 -232 -720 -34 -110 -97 -310 -141 -443 -44
-134 -81 -251 -83 -260 -2 -10 -6 -24 -9 -32 -4 -8 -17 -49 -31 -90 -13 -41
-45 -131 -71 -200 -85 -225 -157 -432 -218 -625 -14 -44 -57 -172 -95 -285
-85 -247 -120 -363 -201 -667 -49 -183 -61 -245 -59 -290 3 -57 4 -56 45 107
117 455 247 885 312 1035 5 11 32 92 61 180 71 221 103 310 117 327 13 15 55
112 109 251 19 49 47 114 63 145 16 32 54 120 84 197 109 275 216 513 334 745
66 129 171 334 233 455 64 125 131 242 155 270 48 57 122 165 185 273 45 77
62 89 35 26 -9 -21 -38 -126 -66 -234 -28 -107 -59 -222 -69 -255 -11 -33 -44
-145 -75 -250 -172 -592 -231 -778 -274 -864 -23 -45 -50 -104 -61 -131 -11
-27 -58 -133 -106 -237 -248 -538 -401 -986 -524 -1536 -37 -163 -61 -351
-121 -947 -25 -255 -35 -671 -20 -860 24 -296 72 -576 141 -820 67 -239 166
-533 204 -609 7 -14 23 -69 36 -121 22 -92 34 -120 45 -108 3 3 -7 61 -23 129
-41 173 -77 366 -87 464 -5 47 -23 169 -30 199 -19 81 -46 494 -51 790 -9 515
15 925 71 1216 8 41 19 118 25 170 21 189 72 488 130 765 11 55 30 151 41 215
30 174 122 556 172 715 67 216 100 325 114 375 20 74 40 145 58 205 8 28 31
106 51 175 72 252 86 296 105 350 10 30 33 102 50 160 127 438 185 642 214
750 18 69 57 208 88 310 54 184 85 303 153 600 20 85 51 220 70 300 18 79 39
186 45 237 l12 92 61 -6 c34 -3 75 -13 91 -22 27 -15 31 -23 36 -82 16 -154
132 -334 259 -399 23 -12 64 -24 91 -27 43 -5 53 -11 86 -52 46 -56 41 -51
144 -130 46 -35 110 -76 141 -90 l57 -26 -46 -35 c-58 -43 -84 -81 -107 -155
-24 -74 -9 -95 27 -39 47 76 185 199 203 182 9 -10 16 -183 9 -261 -6 -80 -8
-87 -28 -87 -39 -1 -106 -38 -160 -89 -80 -75 -300 -201 -502 -287 -177 -74
-335 -166 -335 -194 0 -8 -28 -38 -63 -66 -85 -68 -113 -127 -132 -270 -8 -60
-15 -158 -15 -219 0 -171 -18 -430 -44 -660 -14 -115 -27 -239 -31 -275 -12
-139 -26 -257 -35 -305 -14 -75 -17 -91 -50 -350 -32 -246 -52 -388 -70 -485
-41 -222 -84 -503 -105 -675 -8 -71 -19 -159 -24 -195 -6 -36 -13 -92 -16
-125 -10 -98 -44 -282 -74 -400 -90 -348 -90 -356 -1 -569 34 -83 67 -157 73
-167 8 -12 2 -50 -23 -150 -18 -74 -34 -145 -35 -159 -2 -27 -43 -104 -124
-231 -142 -220 -248 -443 -238 -498 2 -14 14 -80 26 -146 29 -166 30 -167 108
-163 58 3 64 1 96 -30 18 -17 40 -32 48 -32 9 0 37 16 62 36 46 36 46 36 97
24 46 -11 55 -10 85 6 19 10 37 15 41 11 4 -4 -2 -71 -14 -150 -26 -167 -26
-177 -8 -177 19 0 23 17 31 115 4 44 13 103 21 130 8 28 19 84 25 125 5 41 16
111 24 155 8 44 21 132 30 195 29 213 75 514 90 590 8 41 21 116 29 165 53
324 106 569 211 970 13 50 32 124 43 165 53 205 185 614 247 770 25 62 141
285 179 343 24 37 36 47 51 43 11 -3 45 -10 75 -17 30 -6 58 -15 62 -18 4 -4
-6 -47 -22 -98 -34 -106 -94 -335 -116 -443 -8 -41 -26 -127 -39 -190 -13 -63
-40 -200 -60 -305 -20 -104 -43 -221 -50 -260 -8 -38 -39 -234 -70 -435 -31
-201 -58 -372 -60 -380 -5 -16 -55 -394 -81 -610 -8 -69 -24 -197 -36 -285
-21 -169 -34 -284 -43 -375 -3 -30 -7 -75 -10 -100 -3 -25 -7 -76 -10 -115 -3
-38 -8 -84 -11 -102 -5 -26 -3 -33 10 -33 12 0 16 10 16 48 0 55 24 291 44
442 8 58 17 132 21 165 3 33 12 107 20 165 25 177 64 491 70 565 4 39 27 192
51 340 38 235 74 464 104 655 8 54 34 197 50 275 5 22 15 74 23 115 74 376
150 700 203 866 l27 85 76 -7 c94 -8 142 -17 143 -27 2 -16 -24 -265 -33 -309
-9 -50 -35 -481 -43 -728 -3 -80 -14 -320 -25 -535 -11 -214 -23 -502 -27
-640 -3 -137 -7 -277 -9 -310 -1 -33 -6 -199 -10 -370 -4 -170 -9 -341 -10
-380 -4 -103 7 -415 15 -415 3 0 7 147 7 328 1 180 6 437 12 572 6 135 13 328
16 430 8 289 24 671 40 955 8 143 17 337 20 430 10 281 25 498 51 735 13 124
26 230 28 235 2 7 35 8 92 4 49 -4 126 -8 170 -8 65 -1 83 -4 88 -17 3 -9 4
-19 1 -23 -4 -7 4 -193 20 -446 2 -44 7 -134 10 -200 12 -264 39 -497 71 -610
25 -91 62 -289 74 -395 6 -58 24 -186 39 -285 16 -99 34 -227 40 -285 7 -58
21 -166 32 -240 11 -74 24 -166 30 -205 5 -38 18 -122 29 -185 19 -111 74
-513 85 -615 17 -155 21 -175 37 -175 7 0 8 14 5 38 -22 137 -31 201 -57 411
-17 130 -41 306 -55 391 -31 198 -54 364 -65 465 -38 343 -113 849 -165 1110
-27 137 -51 302 -65 455 -10 108 -39 663 -40 758 l0 53 183 -7 c100 -3 183 -7
184 -8 9 -8 85 -286 138 -506 19 -80 51 -206 70 -280 20 -74 58 -220 86 -325
27 -104 63 -237 79 -295 17 -58 34 -123 39 -145 5 -22 45 -182 89 -355 44
-173 97 -389 117 -480 20 -91 43 -190 52 -220 26 -99 172 -670 220 -867 30
-122 53 -193 61 -193 16 0 16 2 -17 131 -17 63 -55 213 -86 334 -68 267 -147
573 -173 675 -11 41 -32 131 -47 200 -15 69 -31 141 -35 160 -34 151 -192 764
-235 910 -14 47 -40 146 -59 220 -18 74 -48 187 -65 250 -18 63 -43 160 -56
215 -75 302 -104 416 -128 498 -11 37 -18 69 -16 71 2 3 94 10 203 16 229 14
203 23 262 -92 46 -90 107 -247 150 -382 20 -61 62 -187 94 -281 63 -182 144
-440 180 -570 13 -44 31 -105 41 -135 10 -30 30 -95 45 -145 15 -49 40 -130
56 -178 15 -49 37 -121 47 -160 44 -166 118 -409 211 -686 91 -274 167 -531
266 -903 24 -91 44 -148 52 -148 16 0 16 1 -13 100 -14 47 -41 143 -60 215
-20 72 -44 159 -55 195 -11 36 -40 137 -66 225 -25 88 -52 178 -60 200 -8 22
-21 63 -29 90 -8 28 -33 102 -55 165 -23 63 -52 151 -65 195 -14 44 -34 109
-45 145 -11 36 -32 110 -45 165 -14 55 -43 154 -64 220 -21 66 -65 208 -96
315 -82 281 -79 273 -243 770 -146 442 -183 540 -243 641 -15 27 -25 50 -21
53 11 6 78 15 167 22 46 3 87 12 96 20 14 13 22 8 67 -40 62 -65 116 -172 194
-381 166 -445 198 -533 204 -565 3 -19 18 -59 31 -89 14 -30 38 -93 53 -140
15 -47 41 -120 58 -161 36 -88 127 -321 171 -435 16 -44 42 -116 55 -161 27
-84 74 -212 146 -394 151 -384 316 -868 415 -1216 39 -138 49 -163 61 -151 4
4 -1 35 -11 69 -9 35 -28 101 -42 148 -48 169 -201 641 -268 825 -58 161 -172
456 -205 530 -5 11 -36 101 -70 200 -34 99 -97 275 -142 390 -101 266 -188
504 -195 532 -4 17 3 29 26 49 18 15 51 54 73 88 37 54 160 201 210 249 10 10
25 28 34 41 14 22 13 27 -3 53 -28 46 -84 105 -134 143 -26 19 -45 38 -42 43
2 4 34 7 70 7 l66 0 -6 82 c-15 222 -42 379 -102 595 -87 311 -118 399 -146
414 -14 7 -34 3 -76 -14 -84 -33 -142 -51 -148 -45 -3 3 -1 55 5 116 6 61 14
182 20 269 23 406 32 518 50 646 11 76 22 142 25 147 20 32 662 487 755 535
28 14 29 14 50 -16 44 -61 159 -368 225 -599 50 -176 160 -631 190 -790 9 -47
29 -139 45 -205 16 -66 34 -161 39 -210 6 -50 15 -112 21 -140 13 -63 69 -489
75 -575 3 -36 7 -85 10 -110 3 -25 7 -76 10 -115 3 -38 12 -128 20 -200 40
-359 43 -1527 5 -1795 -5 -36 -12 -101 -15 -145 -18 -248 -75 -613 -140 -890
-14 -60 -30 -128 -35 -150 -5 -22 -16 -62 -24 -90 -19 -61 -20 -85 -3 -85 13
0 45 112 86 302 16 74 36 122 26 62 -2 -16 -7 -51 -9 -79 -3 -27 -12 -88 -20
-135 -18 -99 -20 -150 -6 -150 6 0 10 15 10 33 0 17 7 68 15 112 9 44 20 121
25 170 5 50 18 153 30 230 11 77 20 160 20 185 0 25 11 122 24 215 23 159 46
420 62 685 10 188 12 951 3 1145 -5 99 -9 198 -9 220 -1 22 -5 87 -11 145 -28
269 -34 339 -28 332 6 -6 69 -240 103 -377 8 -33 24 -109 35 -170 12 -60 32
-168 46 -240 14 -71 36 -193 50 -270 14 -77 35 -189 46 -250 11 -60 31 -173
44 -250 13 -77 33 -192 45 -255 42 -236 127 -905 135 -1065 17 -358 17 -370 1
-460 -9 -50 -19 -100 -22 -112 -10 -36 13 -27 25 10 14 46 67 313 86 437 9 58
27 155 40 215 61 288 100 632 124 1107 16 306 -2 1260 -29 1563 -21 233 -30
323 -40 400 -6 44 -22 166 -36 270 -40 300 -147 813 -240 1155 -83 302 -239
757 -331 970 -105 240 -123 293 -108 310 7 8 23 41 35 72 18 49 32 66 94 116
89 70 141 130 213 240 117 181 148 267 162 446 15 193 -15 272 -155 406 -49
47 -145 130 -214 185 -69 54 -179 142 -245 194 -344 272 -356 283 -451 402
-126 157 -169 190 -294 224 -36 10 -71 23 -78 28 -56 43 -387 714 -497 1005
l-27 73 25 57 c51 116 59 227 28 380 -23 111 -56 168 -145 248 -61 56 -170
124 -197 124 -8 0 -32 9 -52 19 -40 20 -81 22 -234 9z m107 -41 c0 -7 -38 -43
-84 -80 -117 -93 -230 -227 -269 -318 l-15 -34 -41 88 c-22 48 -41 96 -41 106
0 53 128 176 226 217 77 32 224 46 224 21z m101 -14 c7 -18 14 -209 19 -513
l8 -485 -49 -50 c-26 -27 -81 -93 -121 -146 -40 -52 -85 -110 -99 -128 l-26
-33 -15 24 c-15 24 -98 204 -98 214 0 3 -49 128 -109 278 -111 278 -180 478
-203 586 -11 57 -11 62 10 82 44 44 75 4 178 -232 74 -172 276 -540 296 -540
23 0 37 76 47 250 16 263 58 598 87 703 4 11 15 17 35 17 23 0 32 -6 40 -27z
m146 -49 c28 -18 29 -31 4 -39 -11 -3 -36 -19 -56 -35 -21 -17 -41 -30 -46
-30 -7 0 -18 128 -12 142 4 8 79 -17 110 -38z m-267 -11 c0 -5 -7 -64 -17
-133 l-16 -125 -52 -70 c-29 -38 -65 -89 -80 -112 -15 -24 -30 -43 -32 -43 -3
0 -27 16 -53 35 -26 19 -55 35 -64 35 -19 0 -20 11 -6 62 20 70 131 212 238
304 60 51 82 63 82 47z m387 -85 c53 -55 103 -125 103 -143 0 -8 -23 -9 -75
-3 -65 7 -186 0 -235 -13 -12 -3 -16 8 -18 52 -3 55 -2 57 35 86 40 32 111 72
128 73 6 0 34 -24 62 -52z m70 -174 c20 -3 38 -14 45 -27 14 -26 23 -266 10
-285 -6 -9 -22 -6 -68 17 -71 35 -196 71 -247 71 l-37 0 0 93 c0 59 5 99 13
110 21 30 160 40 284 21z m-1136 -24 c92 -17 106 -27 125 -82 9 -27 14 -52 11
-54 -3 -3 -19 2 -36 10 -46 24 -242 18 -268 -8 -13 -13 5 -14 82 -5 97 11 176
-1 219 -35 24 -18 40 -47 70 -127 21 -57 53 -140 71 -184 27 -65 120 -298 150
-377 7 -17 5 -17 -29 -3 -19 8 -58 15 -87 15 -44 0 -55 -4 -80 -31 -22 -24
-29 -41 -29 -72 l0 -41 -40 42 c-23 23 -42 42 -43 42 -1 0 -2 -44 -3 -98 -1
-120 -25 -186 -71 -195 -39 -8 -125 -65 -118 -78 4 -6 24 0 52 16 53 29 67 26
32 -8 -40 -40 -131 -77 -143 -59 -3 5 5 24 18 43 64 94 78 238 37 362 -37 109
-90 157 -172 157 -39 0 -48 -5 -95 -54 -30 -30 -55 -67 -59 -85 -3 -17 -8 -31
-10 -31 -2 0 -18 15 -37 34 -87 87 -206 62 -283 -58 -62 -97 -80 -188 -60
-294 8 -42 15 -79 15 -82 0 -3 -27 -6 -59 -8 l-59 -3 -23 48 c-19 39 -23 65
-24 135 0 49 -3 88 -7 88 -4 0 -15 -15 -25 -32 -14 -26 -18 -57 -18 -154 l0
-121 -78 -41 -77 -41 -16 24 c-19 28 -44 119 -44 158 0 45 -16 22 -30 -43 -8
-40 -11 -90 -6 -147 6 -83 5 -88 -24 -140 -17 -30 -28 -58 -25 -61 4 -4 11 1
16 11 6 9 21 29 34 44 l23 28 20 -25 c11 -13 18 -30 15 -36 -3 -7 6 -14 19
-16 13 -2 23 -7 23 -12 0 -14 -95 -44 -141 -45 -51 -1 -81 29 -114 114 -25 64
-36 82 -46 73 -3 -3 7 -39 21 -80 15 -40 26 -85 26 -101 -3 -72 86 -157 165
-157 l25 0 -22 -29 c-28 -38 -69 -55 -119 -48 -29 4 -40 1 -40 -8 0 -15 22
-25 56 -25 13 0 24 -4 24 -10 0 -9 -43 -23 -112 -35 -21 -3 -38 -10 -38 -15 0
-14 89 -11 132 4 35 12 37 12 47 -12 7 -13 10 -27 7 -29 -7 -8 -120 -6 -158 2
-135 29 -253 186 -265 353 -6 68 -7 73 -20 56 -17 -23 -11 -103 14 -179 18
-57 33 -82 82 -144 l35 -44 -56 6 c-31 3 -69 12 -86 21 -44 23 -109 125 -117
186 -10 75 -29 76 -23 1 2 -33 1 -61 -4 -61 -18 0 -67 84 -83 144 -15 53 -16
76 -7 142 6 44 7 83 2 88 -11 11 -30 -58 -30 -111 0 -24 -3 -43 -7 -43 -5 0
-19 16 -32 36 -50 73 -45 199 14 319 18 38 31 72 28 75 -11 11 -62 -64 -78
-117 -24 -76 -40 -56 -39 50 1 84 11 117 57 179 40 53 191 138 247 138 17 0
20 -7 20 -41 0 -22 7 -71 16 -109 18 -80 40 -108 30 -39 -13 97 -17 226 -8
264 l9 40 12 -60 c19 -95 49 -178 82 -230 16 -26 32 -45 35 -43 2 3 -11 38
-30 79 -44 93 -65 172 -72 274 l-6 80 51 100 c28 55 58 109 66 120 15 19 15
19 30 -2 19 -27 127 -113 185 -146 64 -36 200 -81 212 -69 7 7 -11 16 -49 27
-32 9 -95 37 -140 61 -84 46 -203 145 -203 170 0 23 65 66 166 111 138 61 215
82 317 85 48 1 87 6 87 10 0 14 -174 8 -235 -8 -33 -8 -102 -33 -154 -55 -51
-22 -95 -38 -97 -36 -4 4 44 48 95 89 43 35 256 88 359 89 59 0 64 2 38 11
-33 12 -196 -4 -272 -27 -24 -7 -44 -10 -44 -6 0 4 30 25 68 47 133 79 250
120 372 131 79 7 217 -17 267 -47 45 -27 54 -26 89 10 31 33 96 70 154 89 88
28 258 38 351 21z m630 -71 c-5 -13 -24 -33 -41 -43 -37 -21 -35 -14 14 48 31
40 44 38 27 -5z m-2399 -16 c115 -26 240 -116 289 -208 l23 -42 -59 -67 c-32
-36 -59 -65 -61 -63 -1 1 -26 38 -55 81 -98 147 -216 255 -312 286 -44 14 -42
20 10 30 43 8 70 5 165 -17z m-211 -29 c78 -23 147 -65 205 -126 59 -61 138
-166 164 -219 l19 -36 -35 -57 c-36 -56 -36 -56 -58 -39 -183 144 -215 157
-396 158 -147 0 -190 -10 -259 -63 l-34 -25 7 57 c3 32 16 76 27 99 40 78 215
232 305 267 0 0 25 -7 55 -16z m2602 -81 c-4 -50 -11 -74 -26 -90 -29 -32 -40
-29 -71 17 -31 47 -27 58 39 110 57 45 64 41 58 -37z m-182 -20 c25 -27 57
-64 69 -83 30 -44 40 -50 66 -44 12 3 25 1 28 -5 9 -14 -5 -191 -15 -191 -11
0 -101 152 -160 269 -27 53 -49 97 -49 99 0 11 23 -6 61 -45z m589 -42 c130
-43 162 -76 124 -129 -17 -24 -163 -152 -173 -152 -3 0 -14 20 -24 44 -10 24
-40 64 -66 88 -47 44 -48 45 -50 110 -2 62 0 67 21 70 31 5 95 -7 168 -31z
m-135 -191 c34 -36 31 -42 -12 -24 -22 9 -33 21 -33 34 0 28 11 25 45 -10z
m-2794 -32 c59 -22 197 -114 186 -124 -2 -2 -44 5 -93 17 -74 18 -108 20 -204
16 -139 -7 -191 -22 -276 -82 -36 -25 -67 -45 -69 -45 -8 0 -25 65 -25 96 0
62 84 126 190 144 86 14 220 4 291 -22z m3086 -98 c65 -167 153 -359 261 -570
52 -102 98 -189 102 -195 4 -5 26 -44 48 -86 l41 -75 -51 0 c-50 0 -51 1 -116
73 -37 40 -72 73 -79 73 -18 0 -36 48 -67 175 -49 201 -74 292 -87 321 -16 32
-44 49 -107 64 -45 12 -50 18 -71 98 -7 23 -26 58 -42 77 -17 19 -29 39 -27
44 5 15 132 120 142 117 4 -1 28 -53 53 -116z m-288 66 c27 -14 61 -56 61 -74
0 -8 -91 -34 -97 -28 -1 1 -5 28 -9 59 -7 63 -3 67 45 43z m-2678 -107 c41
-11 77 -24 82 -28 4 -4 0 -28 -10 -54 l-17 -47 -89 0 c-141 0 -264 -39 -350
-111 l-47 -40 -31 25 c-58 49 -100 108 -97 135 6 49 140 124 258 145 53 10
230 -5 301 -25z m2778 -28 c11 -11 25 -39 31 -63 24 -89 42 -107 127 -128 52
-13 60 -27 97 -175 59 -238 69 -274 101 -375 54 -169 57 -194 33 -258 -26 -69
-74 -122 -133 -146 l-46 -18 -72 31 c-90 40 -148 79 -164 111 -6 14 -16 63
-22 110 -6 47 -12 93 -13 103 -2 14 11 23 62 40 53 18 67 27 74 50 14 40 -12
80 -56 87 -21 3 -34 11 -36 23 -2 9 1 17 6 17 5 0 37 20 71 45 65 48 92 88 74
106 -7 7 -17 -1 -31 -25 -14 -24 -47 -50 -103 -83 -73 -42 -79 -48 -60 -57 25
-11 26 -18 5 -57 -20 -39 -11 -49 19 -21 39 36 87 25 87 -19 0 -23 -174 -75
-198 -60 -27 17 -106 215 -95 236 5 8 61 69 125 137 122 130 168 182 168 192
0 22 -34 -4 -87 -66 -35 -40 -99 -109 -144 -153 -44 -44 -85 -90 -89 -102 -10
-25 3 -80 32 -137 19 -37 19 -41 4 -52 -13 -9 -26 -8 -64 6 l-47 17 -47 134
c-25 74 -47 145 -47 158 -1 15 20 50 57 95 31 39 71 89 87 110 51 70 159 179
190 192 43 19 82 17 104 -5z m-2739 -131 c0 -5 -9 -10 -21 -10 -26 0 -112 -42
-158 -77 -18 -14 -42 -41 -53 -59 -18 -30 -25 -34 -62 -34 -45 0 -132 25 -142
42 -18 28 96 99 208 128 78 20 228 27 228 10z m1545 -32 c38 -17 31 -23 -28
-24 -43 0 -62 -7 -100 -33 -60 -41 -61 -26 -2 28 47 44 81 51 130 29z m-1570
-60 c-10 -80 -13 -85 -51 -93 -19 -3 -62 -18 -95 -32 -33 -14 -62 -23 -65 -21
-3 3 4 26 16 51 22 46 69 90 136 126 61 33 67 29 59 -31z m1613 -18 c49 -35
56 -56 15 -44 -36 11 -171 11 -203 0 l-25 -8 24 25 c57 62 127 72 189 27z
m-378 0 c0 -5 -2 -10 -4 -10 -3 0 -8 5 -11 10 -3 6 -1 10 4 10 6 0 11 -4 11
-10z m916 -10 c69 -34 135 -130 180 -264 24 -70 29 -111 18 -140 -10 -25 -19
-19 -33 22 -27 75 -75 103 -105 60 l-16 -22 -27 25 c-16 14 -40 33 -55 42 -36
23 -122 181 -122 225 0 68 76 92 160 52z m-871 -10 c3 -6 -1 -7 -9 -4 -18 7
-21 14 -7 14 6 0 13 -4 16 -10z m-70 -11 c17 -8 15 -9 -9 -5 -16 2 -51 -2 -78
-9 -39 -10 -46 -10 -37 1 18 22 90 29 124 13z m437 -49 c20 -9 28 -22 32 -55
13 -86 -28 -239 -81 -297 -22 -25 -7 -38 44 -38 62 0 124 33 173 92 39 45 44
48 91 48 62 0 70 -15 37 -78 -25 -49 -31 -52 -130 -67 -65 -10 -42 -22 42 -22
70 -1 89 -5 155 -36 41 -20 75 -40 75 -46 0 -22 -20 -19 -61 11 -101 73 -238
70 -279 -6 -7 -14 -22 -26 -32 -26 -20 0 -25 -16 -7 -22 8 -3 8 -14 0 -43 -12
-46 2 -70 17 -28 12 34 68 92 101 105 98 37 233 -27 322 -154 38 -54 59 -71
59 -48 0 6 14 10 30 10 43 0 37 16 -9 24 -22 3 -41 12 -43 18 -3 7 15 25 40
41 52 33 51 44 -1 22 -70 -29 -102 -11 -54 31 50 45 50 44 95 14 l42 -28 -27
-21 -28 -21 24 -20 c14 -13 38 -20 62 -20 47 0 46 9 14 -169 -13 -75 -29 -202
-35 -282 -15 -215 -32 -295 -90 -403 -86 -161 -217 -289 -430 -418 -41 -25
-102 -61 -135 -82 -78 -48 -117 -58 -187 -47 -79 13 -201 57 -286 102 -40 21
-103 51 -140 67 -157 66 -287 173 -361 296 -33 55 -80 200 -116 356 -9 41 -33
109 -51 149 -31 67 -33 76 -18 84 9 5 24 17 34 27 13 13 32 17 66 16 45 -1 49
1 52 24 17 129 78 225 176 274 47 24 65 28 114 24 39 -3 69 -11 89 -26 17 -12
33 -22 36 -22 11 0 17 34 7 45 -7 9 -6 16 5 25 25 20 17 29 -15 17 -44 -16
-59 2 -33 40 11 15 23 36 26 46 6 17 21 21 65 17 32 -2 27 6 -17 35 -66 41
-121 160 -121 262 0 39 5 46 68 102 38 35 82 66 102 71 67 18 170 24 194 11
19 -11 30 -9 72 14 44 24 57 26 124 22 41 -2 87 -10 102 -17z m-517 -9 c-22
-10 -55 -30 -73 -46 -37 -31 -49 -30 -26 3 19 28 81 61 114 61 21 1 19 -2 -15
-18z m-1375 -39 c0 -16 -8 -37 -19 -46 -17 -16 -19 -15 -25 15 -10 51 -8 59
19 59 21 0 25 -5 25 -28z m2193 -14 c8 -18 18 -61 22 -95 l7 -63 -52 0 c-50 0
-52 1 -45 23 23 73 35 125 35 150 0 34 12 29 33 -15z m101 -114 c26 -47 46
-87 44 -90 -3 -2 -26 5 -52 17 -41 18 -47 24 -42 44 3 12 2 44 -3 69 -5 25 -6
46 -2 46 3 0 28 -39 55 -86z m157 -165 c23 -33 51 -60 64 -63 31 -8 69 7 89
35 8 13 17 21 18 18 2 -2 8 -13 14 -23 14 -27 123 -62 146 -47 23 14 28 14 28
-3 0 -22 49 -56 80 -56 35 0 38 -8 46 -120 8 -99 9 -96 -56 -90 -31 2 -357
164 -387 192 -12 11 -27 34 -34 51 -7 18 -27 64 -46 103 -18 39 -33 75 -33 79
0 14 31 -19 71 -76z m76 35 c13 -21 23 -45 23 -51 0 -25 -38 -13 -62 20 -20
26 -23 36 -15 55 14 30 27 24 54 -24z m-194 -1 c54 -27 53 -38 -7 -67 -34 -16
-141 -23 -134 -8 3 4 15 31 28 60 27 58 27 58 113 15z m-1256 -90 c-3 -3 -13
-3 -22 0 -11 5 -15 20 -15 54 l1 48 21 -48 c11 -26 18 -50 15 -54z m1327 1
c12 -32 5 -49 -27 -65 -31 -15 -34 -15 -70 9 l-38 25 33 12 c18 6 42 16 53 23
28 16 42 15 49 -4z m-1169 -10 c11 -3 29 -17 39 -31 l19 -26 -40 5 c-44 6 -96
35 -87 49 6 10 39 12 69 3z m-95 -38 c20 -13 60 -32 90 -42 30 -10 56 -20 58
-20 2 -1 -9 -21 -24 -44 -17 -26 -32 -39 -41 -35 -8 3 -23 5 -34 5 -30 0 -25
38 7 46 17 4 22 10 15 17 -6 6 -20 6 -42 -2 -49 -17 -57 -14 -84 29 -34 54
-33 58 15 69 3 0 21 -10 40 -23z m2337 -70 c7 -12 12 -46 13 -77 0 -45 -7 -71
-35 -127 -69 -136 -213 -218 -351 -197 -34 5 -58 19 -106 60 -73 64 -108 113
-88 125 17 11 39 3 70 -26 14 -12 59 -39 100 -60 45 -23 68 -40 58 -42 -9 -2
-26 2 -37 7 -26 15 -31 14 -31 -4 0 -56 168 -30 271 41 46 31 86 107 104 196
13 60 7 108 -13 108 -8 0 -32 65 -32 86 0 10 59 -59 77 -90z m-2677 60 c0 -7
9 -25 20 -39 18 -23 19 -27 4 -41 -25 -25 -34 -19 -34 23 0 22 -3 46 -6 55 -3
9 -1 16 5 16 6 0 11 -6 11 -14z m237 -13 c3 -10 15 -31 26 -47 20 -28 20 -29
2 -42 -27 -20 -83 -17 -134 7 -49 22 -49 23 24 68 58 35 73 38 82 14z m1403
-13 c0 -5 -7 -10 -16 -10 -8 0 -12 5 -9 10 3 6 10 10 16 10 5 0 9 -4 9 -10z
m-50 -63 c0 -15 -30 -19 -45 -7 -23 19 0 43 26 27 10 -6 19 -15 19 -20z
m-1482 -32 c28 -14 55 -25 61 -25 17 0 14 -5 -31 -49 l-42 -42 -25 19 c-13 10
-34 30 -45 45 l-20 27 24 25 c13 14 25 25 26 25 1 0 25 -11 52 -25z m2629 -60
c-11 -109 -99 -228 -212 -285 -51 -26 -79 -33 -137 -36 l-73 -3 70 13 c90 17
129 35 198 91 69 56 125 159 134 249 5 45 8 54 16 41 5 -10 7 -41 4 -70z m210
30 c145 -47 189 -77 285 -199 286 -361 565 -679 623 -708 11 -6 -10 21 -46 58
-53 55 -188 215 -338 398 -25 31 1 12 136 -96 87 -70 127 -96 140 -92 12 4 14
3 6 -3 -9 -6 40 -51 164 -148 97 -77 204 -166 238 -197 118 -111 162 -222 150
-383 -13 -184 -47 -273 -173 -461 -77 -115 -122 -164 -222 -237 -41 -30 -57
-55 -92 -150 -2 -4 -42 -13 -89 -21 -96 -16 -152 -41 -254 -114 -113 -82 -125
-90 -240 -164 -269 -173 -321 -208 -500 -336 -104 -75 -226 -164 -271 -198
l-80 -63 -12 -63 c-20 -109 -43 -370 -58 -656 -8 -160 -34 -473 -44 -537 -5
-33 -16 -118 -25 -190 -8 -71 -20 -151 -26 -177 -11 -47 -12 -48 -48 -48 -21
0 -84 6 -142 14 -57 8 -178 19 -269 25 -91 6 -244 16 -340 22 -96 6 -204 13
-240 15 -36 2 -108 8 -160 13 -52 6 -153 15 -225 21 -71 6 -157 15 -190 20
-33 6 -204 17 -380 25 -496 24 -468 22 -476 43 -34 92 -77 782 -48 782 6 0 34
-20 62 -44 29 -25 82 -69 119 -98 138 -110 305 -255 374 -325 39 -40 74 -73
78 -73 8 0 122 234 175 360 36 84 142 374 199 545 l20 60 69 6 c38 4 88 16
111 27 l42 20 5 -21 c3 -12 21 -93 40 -181 42 -194 100 -366 171 -511 54 -112
136 -240 165 -258 22 -14 69 21 111 81 55 80 197 213 350 327 145 109 326 215
366 215 31 0 31 18 1 108 -44 130 -146 319 -207 385 l-26 27 12 133 c7 72 19
159 27 192 7 33 24 106 37 162 21 96 38 131 38 81 0 -39 61 -202 126 -333 67
-138 157 -285 173 -285 5 0 -6 24 -25 53 -29 43 -34 58 -29 86 9 46 100 328
137 420 16 40 27 78 25 84 -3 9 -41 -91 -137 -358 -16 -44 -32 -90 -35 -102
-4 -13 -10 -23 -14 -23 -19 0 -132 243 -165 356 -60 202 -76 294 -82 474 l-6
165 57 90 c213 332 281 418 348 436 23 6 64 8 93 4 42 -5 60 -2 94 15 60 30
152 103 202 159 l44 49 61 -101 c60 -100 71 -133 135 -377 17 -65 73 -169 116
-213 44 -45 181 -151 188 -144 2 2 -17 21 -43 42 -75 60 -160 155 -192 215
-27 51 -80 211 -94 288 -6 31 -6 32 16 21 12 -6 36 -21 52 -34 17 -12 89 -52
160 -90 72 -37 162 -89 200 -115 90 -60 95 -63 95 -53 0 19 -188 148 -306 211
-202 107 -219 122 -294 252 -94 164 -174 269 -335 440 -119 126 -164 180 -194
232 -36 63 -62 207 -45 251 5 13 12 13 50 -4 24 -11 66 -23 94 -26 27 -3 55
-12 61 -19 7 -8 11 -54 11 -116 -1 -82 1 -98 10 -78 6 14 11 67 12 117 l1 93
46 15 c90 30 173 100 199 169 l9 26 50 -20 c28 -11 53 -15 56 -11 6 11 -56 51
-80 51 -12 0 -15 5 -11 16 11 30 19 122 12 157 -4 22 -25 55 -52 86 -43 48
-44 51 -22 51 13 0 74 -16 135 -35z m-1129 -2 l37 -17 -49 -4 c-55 -4 -64 1
-46 23 15 19 13 19 58 -2z m-1614 -38 c-45 -42 -70 -57 -62 -36 4 13 91 81
102 81 5 0 -13 -20 -40 -45z m2590 14 c13 -38 -11 -132 -47 -186 -39 -58 -128
-131 -216 -176 -90 -47 -122 -52 -157 -25 l-27 22 68 13 c93 17 167 55 230
119 64 63 115 163 115 224 0 46 19 51 34 9z m-817 -56 c40 -20 73 -42 73 -49
0 -14 -93 -99 -130 -118 -37 -20 -73 -26 -89 -17 -11 7 -11 25 4 109 16 87 21
102 39 105 12 2 23 5 25 6 2 0 37 -16 78 -36z m863 -20 c0 -70 -20 -114 -78
-176 -32 -33 -83 -79 -115 -103 -65 -48 -165 -90 -179 -76 -6 6 3 14 24 21 18
6 62 29 97 50 139 86 202 161 223 266 12 63 28 73 28 18z m-3620 -54 c0 -45
44 -130 87 -166 24 -21 65 -60 91 -87 26 -26 57 -52 70 -57 21 -8 22 -13 17
-61 -11 -95 -46 -271 -81 -412 -19 -76 -44 -180 -55 -230 -11 -50 -26 -97 -33
-106 -7 -8 -30 -62 -51 -120 -44 -125 -182 -415 -256 -537 -29 -49 -109 -171
-178 -273 -70 -102 -149 -221 -177 -265 -28 -44 -77 -120 -108 -168 -31 -48
-70 -115 -87 -149 -62 -123 -43 -48 75 302 142 419 354 1099 440 1415 51 187
154 715 181 922 l7 52 29 -21 c16 -12 29 -30 29 -39z m906 26 c-26 -19 -42
-19 -26 0 7 8 20 15 29 15 13 -1 13 -3 -3 -15z m1964 -50 c0 -16 -87 -71 -97
-61 -8 7 80 85 90 79 4 -2 7 -10 7 -18z m-1982 -4 c1 -1 -5 -15 -14 -32 -12
-24 -18 -28 -24 -18 -7 10 -12 9 -27 -8 -33 -38 -58 -38 -102 3 -44 39 -51 55
-23 48 9 -2 31 0 47 5 23 7 107 8 143 2z m2722 -103 c-11 -31 -36 -71 -54 -90
-36 -37 -120 -81 -173 -91 -40 -8 -44 9 -7 23 64 25 223 171 240 221 6 17 9
19 11 8 2 -9 -5 -41 -17 -71z m-663 20 c32 -29 81 -75 111 -103 l52 -50 4
-100 c5 -137 27 -201 105 -301 35 -43 96 -114 137 -156 64 -66 81 -91 114
-170 21 -51 45 -117 54 -146 l15 -52 -60 -50 c-33 -28 -78 -59 -99 -70 -51
-26 -145 -27 -173 -2 -16 14 -39 17 -141 17 -141 -1 -314 -31 -441 -78 -229
-85 -279 -93 -385 -61 -50 15 -77 15 -126 -1 -20 -6 -22 -2 -33 90 -12 93 -8
175 9 175 16 0 155 111 227 181 86 83 113 120 183 257 48 93 58 106 99 127
129 65 230 251 231 422 0 76 2 83 26 102 15 12 28 21 30 21 2 0 29 -24 61 -52z
m-2094 -37 c-4 -15 -41 -41 -59 -41 -3 0 7 16 22 35 27 36 46 39 37 6z m1944
13 c11 -29 -13 -169 -39 -226 -38 -82 -100 -176 -105 -158 -14 49 -27 62 -59
57 l-31 -5 4 96 c6 135 8 145 34 131 17 -9 19 -17 14 -50 -7 -42 8 -56 19 -16
11 43 6 86 -11 96 -14 8 -16 14 -7 38 8 23 15 28 44 28 31 0 36 -4 45 -32 18
-53 28 -51 22 5 l-6 52 35 0 c23 0 37 -6 41 -16z m-200 -26 c-3 -8 -6 -5 -6 6
-1 11 2 17 5 13 3 -3 4 -12 1 -19z m-2022 -228 c9 0 14 -21 17 -70 2 -38 9
-75 16 -82 11 -11 12 -1 7 52 -3 36 -2 70 2 76 4 6 26 14 48 17 53 8 72 -16
55 -69 -17 -51 -3 -112 33 -148 39 -39 48 -19 13 27 -18 24 -26 46 -26 75 0
23 4 42 9 42 12 0 26 -39 51 -148 l23 -93 -22 -20 c-11 -11 -21 -24 -21 -30 0
-14 21 -52 34 -62 25 -19 -42 7 -76 29 -101 65 -193 215 -213 346 -8 52 -1 72
22 64 8 -3 21 -6 28 -6z m2043 -123 c2 -12 -3 -17 -17 -17 -12 0 -21 6 -21 13
0 31 32 34 38 4z m-28 -57 c0 -4 -9 -10 -20 -13 -17 -4 -20 0 -20 25 0 30 0
31 20 13 11 -10 20 -21 20 -25z m-1750 -224 c-15 -15 -34 9 -26 31 7 17 8 17
22 -1 9 -13 11 -23 4 -30z m30 -30 c0 -11 -19 -15 -25 -6 -3 5 1 10 9 10 9 0
16 -2 16 -4z m2691 -228 c31 -45 39 -65 32 -76 -19 -32 -32 -21 -53 45 -13 37
-25 74 -28 81 -10 28 10 8 49 -50z m-1521 -208 c0 -73 29 -267 46 -311 15 -35
14 -43 -7 -111 -51 -166 -159 -379 -344 -683 -51 -82 -102 -174 -115 -202 -33
-75 -55 -72 -105 14 -110 187 -183 400 -216 634 l-11 84 35 65 c53 95 69 185
70 378 1 107 5 161 12 158 161 -73 320 -115 387 -102 20 4 81 35 134 71 54 35
102 61 106 59 4 -3 8 -27 8 -54z m-1960 18 c-21 -92 -37 -133 -91 -243 -33
-66 -68 -131 -80 -145 -11 -14 -3 9 19 55 47 95 114 254 132 310 7 22 15 43
17 48 9 16 11 5 3 -25z m2890 -98 c0 -9 -98 -181 -275 -485 -110 -188 -211
-368 -261 -465 -30 -58 -45 -76 -63 -78 -19 -3 -22 0 -17 13 3 9 82 153 175
318 182 326 180 323 295 535 43 78 85 149 93 157 16 17 53 20 53 5z m60 4 c0
-14 -125 -239 -246 -441 -130 -217 -284 -497 -298 -540 -9 -27 -32 -47 -46
-38 -11 7 78 185 170 340 27 44 87 148 135 230 49 83 100 170 115 195 15 25
45 77 66 115 54 101 83 145 94 145 6 0 10 -3 10 -6z m130 3 c0 -1 -29 -33 -65
-70 -90 -94 -238 -323 -393 -607 -140 -259 -191 -344 -200 -336 -8 9 142 286
280 516 74 124 168 287 208 363 l74 137 48 0 c26 0 48 -1 48 -3z m-396 -228
c-237 -434 -287 -525 -314 -569 -15 -25 -42 -72 -60 -105 -73 -132 -78 -140
-100 -143 -20 -3 -20 -2 -9 20 53 101 208 380 342 613 87 154 171 300 184 324
27 46 62 86 69 78 3 -3 -47 -101 -112 -218z m46 196 c0 -3 -43 -81 -96 -173
-53 -92 -129 -223 -169 -292 -40 -69 -127 -225 -194 -347 -104 -188 -126 -222
-149 -228 -15 -3 -86 -35 -158 -70 -108 -53 -140 -74 -185 -122 -30 -32 -62
-69 -71 -82 l-17 -24 -34 26 c-18 14 -50 32 -70 41 l-38 15 16 38 c18 44 68
132 190 333 153 253 299 589 307 709 3 45 -15 61 -20 18 -4 -35 -22 -25 -22
12 0 22 7 31 30 41 31 13 62 10 140 -10 67 -17 159 -5 264 37 149 59 276 95
276 78z m-1467 -272 c-2 -17 -11 -50 -22 -74 l-20 -44 0 43 c-1 44 -15 56 -26
23 -3 -11 -6 -68 -7 -128 -1 -217 91 -541 210 -736 22 -37 38 -68 34 -70 -4
-3 -20 -7 -37 -11 -16 -4 -47 -18 -68 -32 l-39 -25 -66 40 c-37 22 -94 52
-127 66 -33 15 -78 43 -100 63 -75 67 -472 509 -464 516 2 2 39 18 83 35 167
67 414 208 493 283 51 47 128 91 148 84 6 -2 9 -17 8 -33z m1428 -528 c6 -55
16 -127 23 -161 l13 -61 -39 14 c-22 7 -79 16 -129 20 -49 3 -89 9 -89 14 0 4
28 58 63 121 35 62 81 147 103 188 l39 75 2 -55 c2 -30 8 -100 14 -155z
m-2013 -48 c89 -100 189 -211 222 -246 33 -35 58 -66 55 -69 -9 -9 -130 111
-370 368 -39 41 -79 85 -89 97 -19 23 -14 46 7 37 7 -3 85 -87 175 -187z
m-171 101 c142 -152 243 -258 306 -323 37 -38 63 -71 57 -73 -31 -11 -75 26
-265 220 -202 206 -206 212 -183 224 12 7 24 13 25 14 1 0 28 -28 60 -62z
m-27 -85 c297 -304 304 -322 23 -55 -134 127 -162 162 -135 162 4 0 55 -48
112 -107z m4010 85 c0 -2 25 -64 56 -138 145 -353 198 -495 278 -740 80 -248
147 -479 167 -578 5 -24 11 -47 14 -51 10 -17 84 -353 119 -536 53 -283 70
-404 116 -845 24 -222 29 -283 35 -385 3 -60 8 -144 11 -187 6 -83 -10 -117
-19 -40 -3 26 -10 81 -16 122 -5 41 -12 117 -15 167 -10 154 -48 388 -116 718
-59 281 -151 598 -340 1170 -82 248 -162 493 -179 545 -33 108 -135 388 -218
598 -38 97 -53 146 -46 153 13 13 153 37 153 27z m-5034 -140 c-77 -144 -326
-640 -343 -683 -6 -17 -37 -91 -68 -165 -32 -74 -79 -189 -105 -255 -55 -136
-99 -234 -99 -221 -1 9 14 57 119 376 37 113 75 230 84 260 35 109 133 306
229 455 124 195 240 366 244 361 2 -2 -25 -60 -61 -128z m1064 -48 c125 -120
177 -176 166 -178 -9 -2 -31 7 -49 21 -74 57 -337 299 -337 311 0 17 11 27 26
24 6 -2 94 -82 194 -178z m3842 -11 c142 -360 164 -424 297 -844 48 -154 120
-367 195 -580 70 -199 201 -675 231 -840 9 -49 30 -148 45 -220 30 -141 44
-225 36 -225 -2 0 -10 26 -17 58 -11 57 -73 286 -123 457 -15 50 -70 223 -122
385 -52 162 -100 311 -106 330 -34 117 -217 596 -274 718 -24 52 -44 96 -44
99 0 14 -221 454 -282 561 -39 67 -68 128 -65 136 8 19 148 117 161 113 6 -2
37 -68 68 -148z m-3967 26 c55 -49 127 -113 159 -140 l59 -50 -44 -8 c-24 -5
-48 -13 -54 -18 -5 -5 -12 -35 -16 -67 -8 -73 -72 -372 -80 -372 -7 0 -31 70
-72 215 -42 143 -40 137 -83 345 l-34 165 21 17 c12 10 26 15 33 11 6 -4 56
-48 111 -98z m-146 -135 c18 -91 41 -196 52 -235 42 -150 61 -213 85 -280 24
-65 24 -75 15 -155 -6 -47 -13 -118 -15 -158 -4 -66 -8 -76 -38 -110 -47 -52
-98 -128 -98 -145 0 -8 15 -26 33 -40 17 -13 44 -37 60 -52 l27 -28 0 -186 c0
-226 31 -591 56 -655 4 -11 20 -16 48 -16 63 -1 230 -11 243 -15 8 -3 10 -43
7 -144 l-4 -140 -40 -62 c-52 -81 -140 -254 -180 -354 -32 -79 -149 -432 -189
-571 -25 -85 -170 -659 -201 -799 -13 -55 -37 -174 -55 -265 l-32 -165 -79 -3
c-109 -3 -127 8 -134 78 -5 48 -7 52 -14 28 -4 -16 -5 -39 -2 -53 10 -39 -12
-31 -63 25 -35 38 -60 81 -101 178 -91 213 -92 241 -24 512 46 186 71 317 89
460 46 380 94 713 140 970 20 114 71 460 90 617 9 71 20 130 25 131 6 2 10 19
10 37 0 40 44 480 66 655 21 171 41 436 49 637 11 302 30 391 98 461 22 23 33
28 38 20 4 -7 21 -87 38 -178z m3895 49 c60 -98 235 -443 324 -639 84 -186
105 -237 257 -640 29 -75 255 -788 279 -880 8 -30 28 -98 45 -151 43 -133 96
-366 137 -599 107 -612 107 -607 110 -1075 2 -277 -2 -444 -11 -545 -8 -80
-18 -215 -24 -300 -18 -262 -34 -376 -106 -744 -19 -98 -35 -194 -35 -212 0
-18 -4 -36 -10 -39 -5 -3 -10 0 -10 7 0 7 -5 87 -10 178 -22 350 -121 1040
-246 1715 -19 105 -42 228 -50 275 -9 47 -24 130 -34 185 -11 55 -26 141 -35
190 -20 111 -55 261 -99 425 -19 69 -42 159 -51 200 -10 41 -23 95 -31 120 -7
25 -18 92 -24 150 -6 58 -22 173 -35 255 -13 83 -27 173 -30 200 -10 77 -43
248 -70 365 -14 58 -41 179 -61 270 -120 556 -235 933 -361 1184 -19 38 -31
72 -26 76 22 22 149 100 158 97 5 -2 27 -32 49 -68z m-1476 -25 c29 -8 28 -21
-7 -162 -36 -146 -48 -235 -61 -437 -17 -250 -42 -384 -76 -403 -54 -30 -372
82 -564 200 -82 50 -199 129 -204 137 -3 4 1 25 9 47 8 21 14 64 15 95 0 52 3
60 35 87 53 48 121 74 192 76 69 1 82 10 29 20 -60 11 -160 -21 -238 -76 -16
-11 -28 -15 -28 -10 0 5 -13 29 -29 52 -27 40 -28 46 -16 70 24 44 128 137
195 174 147 79 257 115 435 140 42 6 285 -1 313 -10z m-1831 -139 c115 -22
193 -48 298 -101 138 -69 134 -64 101 -124 -15 -27 -33 -69 -40 -93 l-12 -42
-73 -3 c-43 -2 -93 3 -122 11 -27 8 -49 11 -49 7 0 -18 97 -40 172 -40 l78 0
0 -32 c0 -39 49 -145 79 -172 11 -11 21 -24 21 -31 0 -29 -155 -155 -271 -221
-156 -89 -355 -123 -508 -87 -27 7 -27 4 10 248 19 127 22 185 21 375 -1 124
-3 245 -5 269 -2 40 1 46 23 53 35 10 179 2 277 -17z m765 -139 c172 -84 204
-315 61 -447 -57 -53 -104 -72 -178 -73 -50 0 -70 5 -123 34 -93 49 -135 114
-148 222 -4 41 -1 66 15 108 28 72 63 113 131 150 50 28 62 30 130 27 46 -1
89 -10 112 -21z m-1085 -218 c-6 -251 -17 -313 -60 -350 -40 -34 -46 -34 -42
0 2 15 6 61 9 102 9 102 77 450 89 450 6 0 8 -75 4 -202z m2188 -262 c55 -92
127 -247 139 -298 6 -26 1 -29 -91 -77 -215 -111 -517 -354 -633 -510 -51 -68
-74 -82 -96 -54 -146 188 -246 442 -329 836 l-23 109 27 29 c16 16 31 29 35
29 4 0 39 -22 79 -48 116 -78 225 -142 306 -180 193 -89 397 -135 434 -98 30
30 67 189 67 288 0 53 8 80 21 72 5 -3 34 -47 64 -98z m-1305 -66 c0 -5 -4
-12 -10 -15 -5 -3 -10 -15 -10 -25 0 -27 -131 -400 -187 -535 -52 -123 -129
-288 -151 -323 l-15 -23 -76 74 c-74 71 -189 170 -433 369 -66 53 -146 120
-179 149 l-59 51 19 32 c31 48 172 206 180 201 4 -2 0 -50 -10 -107 -10 -56
-15 -106 -11 -110 4 -4 54 -13 110 -19 112 -13 184 -6 312 32 114 33 300 151
399 253 l44 45 39 -20 c21 -11 38 -24 38 -29z m-1996 -87 c-7 -27 -27 -100
-44 -163 -17 -63 -43 -155 -59 -205 -122 -374 -189 -639 -247 -970 -13 -77
-36 -192 -50 -255 -37 -166 -74 -383 -99 -585 -9 -66 -22 -156 -30 -200 -13
-74 -30 -195 -55 -390 -37 -290 -31 -1179 10 -1520 22 -174 61 -445 78 -543
10 -56 15 -99 10 -94 -20 20 -155 440 -202 627 -36 146 -52 229 -80 425 -58
403 -55 711 14 1350 32 306 41 379 59 515 22 162 48 291 86 425 13 47 33 123
45 170 44 176 216 679 280 817 17 35 30 66 30 68 0 4 16 39 156 341 46 99 88
193 93 207 17 43 19 31 5 -20z m3847 -883 c32 -83 88 -276 139 -477 30 -121
78 -469 66 -481 -5 -4 -73 -6 -152 -5 -161 3 -225 19 -361 89 -65 34 -70 39
-107 112 -24 49 -58 95 -93 129 l-55 52 6 62 c4 35 7 64 9 65 1 2 45 -4 97
-12 52 -7 101 -14 108 -14 28 0 40 53 73 337 8 69 17 108 28 117 23 21 172 75
200 73 19 -2 29 -12 42 -47z m-2176 -320 c61 -6 173 -17 250 -25 294 -31 557
-49 915 -64 193 -7 370 -23 419 -37 10 -3 12 -17 6 -62 -12 -100 -11 -100 -68
-111 -29 -6 -81 -12 -117 -15 -36 -3 -85 -7 -110 -10 -25 -3 -126 -11 -225
-17 -211 -12 -794 2 -1020 25 -170 18 -344 58 -362 82 -9 12 -13 55 -13 130
l0 113 73 3 c77 4 85 4 252 -12z m1873 -586 c68 -29 146 -56 250 -84 79 -22
115 -38 150 -66 73 -58 132 -117 148 -146 14 -26 12 -29 -79 -130 -51 -57
-108 -125 -127 -153 -19 -27 -47 -63 -62 -80 -16 -16 -28 -33 -28 -36 0 -4 -7
-9 -15 -12 -10 -4 -17 4 -24 26 -5 18 -33 93 -61 167 -29 74 -67 178 -85 230
-18 52 -43 119 -54 148 -12 28 -30 75 -41 102 -11 28 -17 50 -15 50 3 0 22 -7
43 -16z m-3139 -1919 c25 -9 77 -15 123 -15 l79 0 -3 -32 c-3 -29 -7 -33 -36
-36 -57 -6 -257 65 -277 97 -3 6 -3 22 1 36 l7 26 31 -30 c17 -17 51 -37 75
-46z m-77 -36 c63 -32 116 -50 191 -63 37 -6 67 -16 67 -21 0 -6 -33 -10 -74
-9 -64 1 -84 6 -152 40 -47 23 -80 46 -82 57 -4 22 0 21 50 -4z m95 -104 c28
-8 74 -17 102 -18 60 -4 65 -8 57 -42 -5 -19 -13 -25 -34 -25 -42 0 -128 28
-203 65 -72 37 -92 55 -84 78 5 12 15 10 58 -14 29 -16 75 -36 104 -44z m-115
-25 c51 -31 170 -76 222 -83 17 -2 32 -9 34 -17 4 -10 -8 -12 -54 -6 -70 8
-264 97 -264 121 0 21 6 19 62 -15z m106 -106 c37 -13 79 -24 94 -24 34 0 58
-9 58 -22 0 -7 -22 -9 -60 -5 -72 6 -253 90 -258 120 -3 15 5 12 48 -14 28
-17 81 -42 118 -55z m-150 8 c52 -35 177 -84 230 -89 29 -3 54 -9 57 -13 2 -3
-3 -44 -11 -91 -30 -171 -34 -196 -48 -308 -9 -62 -17 -116 -19 -118 -3 -2
-22 20 -43 48 -22 29 -43 58 -48 65 -7 9 -3 18 12 31 25 21 112 133 112 144 0
19 -20 17 -31 -3 -7 -13 -15 -25 -18 -28 -4 -3 -26 -29 -50 -58 -24 -30 -77
-78 -117 -108 -86 -63 -98 -80 -115 -156 -6 -31 -24 -81 -39 -110 -21 -41 -33
-54 -54 -56 -25 -3 -26 -1 -27 50 -6 197 6 336 34 413 8 22 29 68 47 103 34
69 37 107 3 51 -53 -86 -85 -162 -94 -220 -28 -175 -30 -199 -22 -304 l8 -110
39 -10 c35 -8 40 -7 57 15 38 52 50 61 77 58 19 -2 28 -10 30 -24 3 -24 8 -21
-128 -69 -124 -43 -167 -49 -180 -26 -11 21 -50 240 -50 282 0 35 61 180 115
273 84 144 235 386 242 386 2 0 17 -8 31 -18z m140 -584 c61 -83 65 -93 51
-136 -17 -57 -91 -206 -107 -218 -18 -13 -72 -5 -79 12 -3 8 17 39 46 70 67
73 68 99 5 203 l-45 76 28 22 c41 34 58 29 101 -29z m-122 -47 c1 -12 11 -36
23 -52 39 -53 39 -91 -3 -147 -41 -57 -157 -162 -178 -162 -8 0 -25 11 -38 25
l-23 24 24 9 c13 5 53 19 89 32 68 23 100 45 100 65 0 28 -42 65 -72 65 -20 0
-29 4 -25 13 2 6 12 39 22 72 9 33 21 66 27 72 16 20 53 9 54 -16z m135 -284
c-17 -17 -22 -2 -9 29 11 28 12 29 16 5 2 -13 -1 -28 -7 -34z"/>
<path d="M3190 10039 c0 -8 5 -30 10 -49 26 -85 70 -296 70 -332 0 -27 4 -37
11 -32 8 5 10 28 5 73 -10 109 -96 413 -96 340z"/>
<path d="M3525 9813 c-56 -30 -103 -73 -154 -141 -49 -67 -62 -91 -75 -144
-10 -43 12 -33 23 10 28 100 195 272 266 272 9 0 13 5 10 10 -9 14 -35 12 -70
-7z"/>
<path d="M2980 9750 c8 -5 25 -10 38 -10 35 0 95 -35 131 -76 32 -36 76 -122
67 -131 -2 -3 -17 2 -33 10 -33 18 -82 28 -138 29 -68 1 -85 -2 -85 -13 0 -6
11 -8 28 -4 43 9 170 -21 212 -50 20 -14 39 -25 43 -25 15 0 5 52 -22 112 -32
73 -78 123 -136 149 -42 20 -133 27 -105 9z"/>
<path d="M3824 8786 c-63 -28 -93 -103 -94 -232 0 -81 27 -196 60 -248 14 -24
20 -45 16 -61 -7 -29 9 -42 23 -18 10 17 12 17 41 1 16 -9 30 -13 30 -9 0 13
63 20 77 9 15 -12 29 14 18 32 -4 6 2 21 13 33 52 57 74 202 47 305 -33 123
-68 171 -140 191 -50 13 -53 13 -91 -3z m88 -26 c49 -14 83 -57 108 -137 20
-64 27 -138 13 -131 -5 3 -22 10 -40 17 -23 9 -33 21 -37 42 -3 16 -9 42 -12
58 -3 17 -19 48 -35 70 -29 41 -58 52 -76 29 -19 -23 -35 -90 -35 -139 0 -46
-2 -49 -26 -49 -25 0 -25 0 -18 67 10 92 36 150 78 168 40 17 35 17 80 5z m-1
-135 c33 -72 19 -205 -22 -205 -5 0 -22 19 -39 42 -24 33 -30 51 -30 92 0 59
14 116 32 127 17 11 38 -9 59 -56z m-97 -157 c20 -28 21 -102 2 -117 -17 -14
-22 -8 -41 56 -23 74 3 113 39 61z m196 7 c30 -15 35 -29 24 -59 -5 -13 -13
-11 -45 15 -61 48 -46 79 21 44z m-22 -76 c28 -26 31 -33 21 -52 -7 -12 -13
-23 -14 -25 -5 -5 -55 83 -55 96 0 19 13 14 48 -19z m-75 -72 c9 -30 17 -57
17 -60 0 -4 -16 -7 -35 -7 -49 0 -95 47 -64 65 5 4 14 18 19 31 17 43 44 30
63 -29z m45 9 c12 -21 17 -39 11 -47 -11 -18 -16 -11 -33 44 -16 53 -8 54 22
3z"/>
<path d="M2843 8634 c-38 -19 -75 -65 -91 -113 -31 -89 -4 -252 53 -327 22
-28 24 -36 13 -53 -16 -27 -3 -38 20 -18 24 22 32 21 32 -3 0 -24 13 -26 30
-5 15 18 47 20 53 3 3 -9 9 -8 19 5 8 11 23 17 33 15 15 -2 21 5 26 32 3 19
14 53 23 75 38 88 27 244 -22 330 -40 67 -120 93 -189 59z m137 -41 c48 -44
93 -194 54 -179 -9 3 -19 6 -23 6 -5 0 -16 29 -26 65 -21 78 -52 115 -95 115
-18 0 -29 4 -25 10 3 6 24 10 45 10 29 0 48 -7 70 -27z m-141 -32 c-6 -17 -9
-61 -7 -96 3 -58 2 -65 -14 -65 -10 0 -23 -11 -30 -25 -16 -36 -28 -21 -28 37
0 68 18 124 52 160 34 36 42 33 27 -11z m102 -33 c27 -52 36 -153 17 -188 -24
-46 -50 -37 -80 28 -44 94 -35 202 17 202 19 0 29 -10 46 -42z m90 -138 c14
-8 19 -21 19 -49 0 -51 -8 -55 -36 -21 -18 21 -23 35 -18 54 7 29 8 30 35 16z
m-184 -28 c30 -19 44 -111 19 -131 -29 -24 -66 19 -66 79 0 53 16 72 47 52z
m183 -109 c0 -7 -3 -13 -7 -13 -12 0 -53 67 -45 74 7 8 51 -44 52 -61z m-30
-40 c0 -6 -4 -14 -9 -17 -9 -6 -31 45 -31 68 1 15 39 -36 40 -51z m-50 2 c7
-25 10 -49 6 -52 -11 -11 -80 -3 -94 11 -10 10 -8 15 13 26 14 8 28 24 31 37
10 37 30 27 44 -22z"/>
<path d="M3460 8318 c0 -13 9 -36 19 -51 15 -23 17 -36 10 -65 -19 -82 0 -110
35 -52 30 51 37 88 20 105 -9 8 -21 15 -29 15 -7 0 -18 14 -25 30 -16 39 -30
47 -30 18z"/>
<path d="M4012 8268 c3 -7 15 -15 28 -16 21 -3 22 -2 11 12 -16 19 -44 21 -39
4z"/>
<path d="M4020 8156 c0 -2 6 -18 14 -36 15 -36 29 -20 15 18 -7 18 -29 32 -29
18z"/>
<path d="M3907 8144 c-8 -9 11 -44 23 -44 6 0 10 6 10 14 0 16 -24 38 -33 30z"/>
<path d="M2952 8039 c1 -12 9 -24 16 -27 9 -3 13 3 10 19 -1 12 -9 24 -16 27
-9 3 -13 -3 -10 -19z"/>
<path d="M2835 8030 c-9 -27 6 -50 16 -24 4 10 8 25 8 32 1 20 -17 14 -24 -8z"/>
<path d="M3630 8029 c-47 -35 -211 -51 -294 -28 -50 14 -55 5 -44 -67 25 -162
151 -404 209 -404 54 0 125 102 154 221 23 96 31 271 14 285 -11 9 -20 7 -39
-7z m26 -75 c-2 -16 -4 -36 -5 -44 -1 -8 -12 3 -25 25 l-23 40 21 17 c25 20
37 7 32 -38z m-78 3 c21 -14 49 -80 55 -132 11 -86 -58 -243 -115 -261 -43
-13 -110 86 -166 246 -16 47 -32 101 -35 120 l-5 35 127 0 c69 0 132 -4 139
-8z"/>
<path d="M3720 6810 c-30 -16 -92 -41 -137 -55 -66 -21 -88 -33 -117 -66 -35
-38 -39 -59 -12 -59 7 0 19 11 26 25 18 33 40 46 134 79 82 29 141 61 165 90
19 23 4 19 -59 -14z"/>
<path d="M3654 5699 c-3 -5 1 -11 8 -14 23 -7 158 -10 158 -3 0 14 -158 30
-166 17z"/>
<path d="M3225 5879 c-43 -12 -101 -63 -132 -116 -22 -39 -27 -58 -27 -122 0
-82 7 -101 60 -168 54 -67 157 -97 244 -73 72 20 127 65 161 132 28 55 31 69
26 123 -14 167 -170 272 -332 224z m45 -24 c0 -15 -32 -80 -43 -87 -7 -4 -34
-8 -61 -8 l-50 0 30 31 c40 43 124 86 124 64z m83 -55 c18 -30 40 -56 48 -57
58 -7 89 -15 89 -22 0 -5 -16 -32 -36 -61 -34 -49 -36 -56 -29 -106 3 -30 4
-58 0 -64 -4 -6 -25 0 -55 15 -70 36 -103 32 -157 -18 -32 -28 -38 -16 -25 44
19 82 16 105 -23 148 -19 21 -35 41 -35 45 0 3 21 6 46 6 71 0 79 7 114 103 5
16 15 27 20 25 6 -2 25 -28 43 -58z m95 13 c42 -31 41 -45 -5 -41 -30 2 -42
10 -60 37 -13 19 -23 38 -23 42 0 12 48 -10 88 -38z m-318 -138 c18 -20 21
-28 12 -37 -19 -19 -14 -56 7 -63 16 -5 19 -12 14 -43 -8 -50 -11 -52 -38 -18
-30 37 -48 107 -39 152 7 41 13 42 44 9z m400 -19 c0 -30 -3 -33 -24 -29 -18
4 -27 -1 -36 -17 -14 -26 4 -54 31 -47 21 6 16 -13 -13 -56 -27 -38 -38 -26
-38 40 0 46 6 65 31 105 34 53 49 54 49 4z m-360 -46 c0 -5 -2 -10 -4 -10 -3
0 -8 5 -11 10 -3 6 -1 10 4 10 6 0 11 -4 11 -10z m152 -156 c11 -3 25 -1 30 4
7 7 18 7 35 -1 l24 -11 -23 -13 c-31 -17 -149 -17 -173 1 -17 12 -15 15 26 39
43 26 44 26 53 7 5 -11 18 -22 28 -26z"/>
<path d="M3297 5762 c-10 -10 -17 -24 -17 -31 0 -7 -9 -24 -20 -38 -41 -53 -9
-133 53 -133 76 1 109 76 63 143 -14 21 -26 44 -26 51 0 8 -7 17 -16 20 -21 8
-19 9 -37 -12z m59 -87 c31 -48 -20 -110 -64 -79 -30 20 -29 68 0 88 31 22 45
20 64 -9z"/>
<path d="M6346 10463 c-3 -10 -12 -43 -20 -73 -8 -30 -20 -70 -27 -87 -10 -25
-11 -35 -1 -45 6 -6 15 -9 18 -5 11 11 64 209 58 218 -9 15 -22 10 -28 -8z"/>
<path d="M6128 10378 c-2 -50 2 -82 14 -95 18 -22 23 -7 20 61 -3 49 -7 66
-18 66 -9 0 -15 -12 -16 -32z"/>
<path d="M6552 10383 c-43 -62 -77 -163 -54 -163 7 0 92 168 92 183 0 16 -20
6 -38 -20z"/>
<path d="M6085 10126 c-95 -30 -182 -104 -221 -188 -27 -59 -29 -72 -29 -183
0 -114 2 -123 29 -173 31 -55 72 -88 123 -98 46 -9 50 13 6 31 -95 40 -126
100 -127 245 -1 93 2 111 25 161 33 70 79 116 154 154 49 24 71 29 134 29 141
1 189 -28 254 -152 49 -92 48 -140 -5 -264 -17 -39 -27 -49 -70 -68 -65 -28
-144 -36 -192 -20 -29 9 -47 26 -77 73 -35 54 -39 66 -39 126 0 80 13 108 62
133 31 16 43 18 78 8 52 -14 77 -39 86 -85 5 -29 2 -41 -15 -59 -28 -29 -27
-48 2 -44 14 2 29 17 41 41 16 33 17 45 7 77 -18 60 -46 88 -107 106 -54 15
-56 15 -101 -8 -74 -36 -88 -64 -88 -166 0 -86 1 -88 42 -148 23 -33 53 -68
67 -77 39 -26 124 -32 187 -13 109 31 148 74 180 198 15 59 16 81 7 122 -13
64 -79 178 -118 206 -66 47 -206 64 -295 36z"/>
<path d="M372 7535 c-21 -45 -9 -180 12 -146 11 17 17 171 7 171 -4 0 -13 -11
-19 -25z"/>
<path d="M161 7463 c1 -42 32 -128 47 -128 16 0 16 9 -4 88 -18 68 -45 93 -43
40z"/>
<path d="M0 7298 c0 -34 20 -68 41 -68 15 0 11 15 -16 61 l-25 44 0 -37z"/>
<path d="M336 7163 c-3 -4 -16 -8 -27 -10 -11 -2 -34 -11 -51 -21 -17 -9 -42
-23 -57 -31 -38 -20 -108 -89 -141 -141 -33 -51 -55 -159 -47 -222 8 -59 60
-158 112 -211 65 -67 112 -89 187 -85 87 4 85 24 -3 31 -61 5 -78 11 -114 39
-77 60 -135 149 -149 228 -8 48 17 160 47 207 32 50 104 116 157 143 57 29
161 50 202 41 139 -32 202 -196 130 -339 -25 -49 -37 -61 -88 -88 -53 -28 -65
-30 -118 -24 -52 6 -63 11 -97 48 -44 46 -50 86 -25 147 16 38 42 55 85 55 54
0 82 -58 45 -95 -18 -18 -12 -45 10 -45 20 0 35 29 42 83 6 40 4 46 -26 70
-57 48 -153 28 -185 -39 -48 -101 -15 -196 86 -249 72 -38 193 -10 264 61 66
66 93 198 60 295 -18 51 -76 119 -122 143 -32 16 -163 23 -177 9z"/>
<path d="M0 118 c0 -75 10 -118 26 -118 8 0 14 1 14 3 0 13 -32 162 -35 166
-3 2 -5 -21 -5 -51z"/>
</g>
</svg>
