<?xml version="1.0" standalone="no"?>
<!DOCTYPE svg PUBLIC "-//W3C//DTD SVG 20010904//EN"
 "http://www.w3.org/TR/2001/REC-SVG-20010904/DTD/svg10.dtd">
<svg version="1.0" xmlns="http://www.w3.org/2000/svg"
 width="675.000000pt" height="857.000000pt" viewBox="0 0 900.000000 1143.000000"
 preserveAspectRatio="xMidYMid meet">

<g transform="translate(0.000000,1143.000000) scale(0.100000,-0.100000)"
fill="#000000" stroke="none">
<path d="M3241 10699 c51 -55 118 -120 148 -144 76 -58 256 -175 270 -175 6 0
11 -3 11 -8 0 -4 -24 -13 -53 -20 -160 -37 -360 -138 -487 -244 -140 -118
-351 -399 -454 -607 -55 -111 -175 -412 -272 -686 -87 -245 -141 -350 -219
-428 -10 -11 -13 -22 -8 -31 10 -19 76 35 217 179 54 55 96 91 92 81 -4 -11
-16 -76 -27 -145 -37 -220 -23 -510 35 -732 57 -216 160 -468 255 -623 23 -37
41 -69 39 -70 -2 -1 -82 -28 -178 -59 -96 -32 -227 -79 -290 -104 -191 -78
-455 -221 -529 -287 -30 -27 -60 -92 -61 -131 0 -24 -13 -44 -60 -90 -33 -32
-69 -79 -81 -104 -40 -86 -43 -291 -8 -686 18 -213 59 -421 128 -650 51 -167
91 -342 91 -394 0 -23 -9 -82 -20 -132 -25 -112 -20 -149 50 -359 61 -185 71
-209 181 -447 136 -295 166 -373 319 -848 16 -49 38 -148 50 -220 11 -71 25
-154 30 -184 13 -71 13 -67 -12 -91 l-22 -20 25 0 c18 0 60 38 174 159 407
432 526 577 588 726 14 33 35 78 46 100 21 39 30 108 12 89 -5 -5 -43 -72 -83
-149 -59 -113 -167 -279 -197 -305 -3 -3 -18 -21 -33 -40 -15 -19 -40 -50 -56
-69 l-29 -34 4 174 c4 228 -7 314 -52 404 -19 39 -109 171 -199 295 -100 135
-172 243 -181 271 -9 25 -20 96 -25 156 -9 100 -43 311 -70 433 -6 25 -22 97
-36 160 -91 416 -179 734 -230 833 -27 51 -27 20 0 -50 68 -180 204 -734 235
-958 17 -125 41 -380 45 -493 3 -63 10 -111 18 -122 17 -23 204 -272 277 -368
124 -162 148 -208 170 -328 19 -99 27 -347 13 -416 -6 -30 -40 -73 -171 -214
-117 -126 -166 -172 -172 -162 -4 7 -13 52 -19 98 -6 47 -20 130 -30 185 -10
55 -24 134 -30 175 -13 95 -37 207 -60 290 -11 36 -26 106 -35 155 -17 95 -21
111 -56 245 -25 97 -77 230 -89 230 -5 0 0 -26 11 -57 28 -82 66 -230 74 -283
l6 -45 -16 35 c-9 19 -25 53 -35 75 -30 64 -60 137 -60 147 0 5 -18 45 -40 89
-22 44 -40 84 -40 89 0 5 -21 44 -46 87 -90 152 -175 381 -174 472 1 20 7 63
15 96 19 78 19 132 0 186 -33 93 -136 526 -150 629 -4 25 -12 86 -20 135 -25
163 -38 400 -33 623 4 214 5 221 31 273 15 30 38 67 51 83 l24 29 7 -39 c17
-100 56 -277 79 -358 41 -146 132 -343 150 -325 3 3 -19 79 -48 170 -30 90
-63 207 -75 259 -11 52 -27 120 -36 150 -25 90 -30 226 -12 291 15 50 23 60
74 96 32 22 94 60 138 84 44 23 82 47 83 51 2 4 10 8 17 8 7 0 44 15 81 34 38
18 132 57 209 85 77 29 151 57 165 62 45 17 82 21 74 8 -4 -8 -3 -9 5 -5 6 4
9 11 6 16 -6 10 77 46 127 55 37 7 37 6 77 -55 22 -34 43 -70 46 -80 3 -10 12
-21 20 -24 13 -5 13 0 -1 26 -9 18 -25 60 -35 95 l-18 63 27 21 27 20 6 -23
c4 -13 22 -71 39 -130 l33 -106 -54 -134 c-75 -187 -75 -209 -9 -412 l52 -158
-32 -70 c-49 -106 -41 -165 35 -241 37 -37 88 -182 257 -732 34 -112 125 -359
198 -540 27 -66 69 -174 94 -240 24 -66 56 -148 69 -182 l25 -61 -117 -129
c-64 -71 -123 -137 -131 -148 -12 -15 -15 -54 -15 -204 -1 -216 -13 -329 -60
-571 -18 -96 -43 -228 -55 -292 -29 -164 -37 -184 -129 -353 -46 -82 -80 -141
-76 -130 7 23 10 33 65 285 22 101 39 191 38 200 -5 22 -43 -89 -68 -195 -11
-49 -43 -160 -71 -245 -96 -290 -146 -499 -174 -721 -21 -164 -11 -338 34
-551 l28 -138 -26 7 c-29 7 -155 55 -218 84 -73 33 -267 205 -344 305 l-42 55
30 32 c75 79 154 223 228 412 49 124 49 125 37 125 -9 0 -32 -43 -73 -135
l-23 -50 -7 105 c-4 58 -12 132 -18 165 -7 33 -18 98 -27 144 -13 78 -30 128
-40 119 -2 -2 1 -20 6 -39 15 -53 50 -302 59 -423 l9 -109 -58 -94 c-33 -51
-78 -118 -102 -149 -24 -31 -49 -65 -57 -75 -12 -17 -7 -28 59 -114 39 -52
114 -134 165 -182 l94 -88 11 -195 c13 -236 34 -407 66 -558 13 -63 24 -126
24 -142 0 -41 10 -60 31 -60 23 0 23 3 0 76 -18 56 -36 153 -45 239 -2 22 -9
76 -16 120 -9 68 -39 485 -35 493 1 1 26 -11 57 -27 65 -35 211 -81 257 -81
l33 0 -7 57 c-4 32 -13 90 -21 128 -28 133 -7 600 35 770 5 22 17 75 26 118
10 42 21 80 26 83 5 3 28 -8 51 -24 58 -39 236 -136 386 -211 68 -34 158 -89
202 -124 43 -34 144 -100 225 -146 l145 -84 1 -111 c1 -197 3 -213 22 -234 22
-24 17 -28 -48 -37 -68 -10 -92 -25 -40 -24 22 0 64 4 93 8 28 4 52 4 52 1 0
-4 -29 -28 -65 -55 -36 -26 -65 -49 -65 -52 0 -3 29 12 65 32 56 31 65 33 65
18 0 -19 -50 -165 -120 -348 -102 -266 -192 -566 -176 -583 8 -7 8 -9 40 93
16 50 34 99 40 110 6 11 20 47 31 80 10 33 22 65 26 70 4 6 10 25 14 42 14 68
20 37 17 -89 -4 -132 12 -293 29 -304 6 -3 7 21 2 63 -11 91 -7 354 5 423 5
30 33 107 61 170 27 63 58 147 68 185 10 39 19 72 20 74 6 9 83 -50 83 -64 0
-8 14 -24 30 -37 18 -13 30 -31 30 -45 0 -40 26 -88 65 -120 40 -34 27 5 145
-428 49 -181 77 -266 64 -197 -3 17 -7 51 -9 75 -4 43 -12 88 -40 232 -9 44
-18 94 -20 110 -11 67 -28 141 -37 158 -9 17 -8 17 23 2 18 -10 60 -34 93 -54
85 -52 231 -131 242 -131 10 0 -24 22 -141 92 -44 26 -90 56 -103 65 -13 10
-52 34 -86 53 -95 53 -131 84 -143 124 -6 20 -10 36 -9 36 2 0 68 -31 147 -69
126 -60 282 -124 359 -146 49 -14 6 13 -80 51 -73 31 -239 118 -386 200 -22
12 -54 42 -70 65 -29 42 -29 44 -33 206 -1 89 -1 163 0 163 2 0 57 -13 122
-30 255 -64 616 -95 827 -71 57 7 113 17 123 23 17 9 18 10 2 22 -13 9 -31 10
-69 4 -70 -12 -363 -11 -499 2 -181 18 -358 52 -487 93 -90 29 -300 132 -406
199 -23 15 -59 34 -80 43 -42 17 -167 96 -161 101 2 2 27 -6 57 -17 74 -28
275 -79 312 -79 17 0 56 -15 89 -36 33 -19 87 -47 122 -60 59 -24 88 -33 292
-89 150 -42 274 -57 475 -58 160 0 204 4 278 24 15 4 58 -60 132 -197 24 -43
72 -128 107 -188 111 -186 249 -468 271 -553 11 -43 28 -149 38 -236 10 -86
21 -157 26 -157 10 0 10 9 -2 90 -5 36 -14 115 -20 175 -14 145 -27 188 -112
363 -60 123 -241 452 -268 487 -27 34 -121 369 -149 529 -6 33 -11 100 -11
149 l0 88 43 -33 c23 -19 53 -42 67 -51 14 -9 37 -25 51 -36 23 -18 26 -19 26
-3 0 9 -17 37 -37 62 -58 69 -148 214 -186 299 -103 225 -149 390 -184 666
-13 102 -14 553 0 710 5 66 10 125 10 131 0 7 -43 69 -94 139 l-95 126 75 152
c41 84 106 208 144 277 37 69 93 176 124 239 31 62 58 107 60 100 47 -135 97
-252 138 -324 l51 -90 -2 -110 c-2 -115 -25 -307 -66 -560 -28 -171 -31 -297
-10 -435 20 -137 45 -208 130 -370 120 -230 160 -316 209 -454 112 -308 157
-617 127 -871 -6 -44 -11 -152 -13 -240 l-3 -160 50 -13 c28 -7 69 -11 93 -9
l42 5 0 -62 c0 -59 -11 -151 -45 -376 -21 -145 -18 -137 -90 -214 -36 -39 -65
-73 -65 -78 0 -22 32 -1 97 64 66 67 73 77 78 123 3 28 15 111 27 185 12 74
21 183 22 242 1 123 0 122 81 84 34 -16 72 -48 117 -98 74 -83 117 -108 236
-139 86 -22 176 -25 215 -6 31 14 32 16 12 81 -8 27 -17 78 -20 115 -6 65 -11
111 -15 121 -1 3 -2 9 -1 13 1 5 -5 91 -14 191 -15 182 -25 256 -47 351 -7 28
-12 55 -13 60 -1 11 -27 100 -56 195 -40 126 -88 247 -157 390 l-46 95 1 141
c1 78 8 188 17 245 8 57 20 140 27 184 16 119 97 539 119 625 5 19 11 44 13
55 2 11 7 27 10 35 4 8 22 60 42 115 37 105 70 160 163 272 32 37 65 81 75 96
32 49 68 158 88 263 22 118 80 290 216 649 17 44 45 121 63 170 18 50 54 131
81 182 72 135 149 368 149 450 0 61 -159 302 -210 318 -14 4 -19 18 -23 63 -5
66 -30 139 -55 159 -44 36 -111 74 -272 156 -167 86 -263 140 -432 244 -194
121 -298 183 -358 216 -107 58 -153 103 -189 182 -24 55 -31 83 -30 130 l0 60
21 -45 c84 -182 141 -270 174 -270 13 0 13 4 0 28 -29 57 -85 239 -90 297 -12
141 -18 324 -11 361 l7 39 27 -90 c35 -117 78 -191 154 -265 34 -33 65 -60 69
-60 3 0 -7 35 -24 78 -28 72 -75 262 -76 307 -4 115 0 291 8 380 13 150 13
731 0 830 -6 44 -15 114 -20 155 -12 102 -23 149 -63 261 -36 99 -152 335
-187 379 -23 28 -65 85 -95 126 -83 114 -149 173 -249 222 l-88 44 34 36 c18
20 37 40 43 44 23 17 -29 18 -113 1 l-91 -19 -22 61 c-26 72 -62 126 -121 181
-70 66 -138 117 -145 110 -4 -4 -3 -10 3 -14 44 -31 133 -207 150 -298 l7 -39
-39 37 c-122 116 -280 170 -709 243 -422 72 -516 90 -705 136 -231 56 -332 87
-439 136 -40 18 -78 33 -83 33 -6 0 32 -45 83 -101z m154 -12 c181 -59 572
-145 920 -202 252 -41 364 -66 505 -112 131 -43 194 -79 276 -156 36 -33 66
-58 69 -56 2 2 -3 37 -10 77 -14 70 -70 205 -102 247 -9 11 11 -8 45 -42 69
-70 122 -170 125 -231 1 -37 4 -41 22 -36 11 4 25 10 30 15 6 4 31 11 55 14
25 4 56 8 70 11 23 4 23 2 -10 -26 -19 -16 -50 -35 -68 -41 -40 -13 -34 -24
13 -21 23 2 59 -10 112 -37 92 -46 187 -139 296 -291 74 -102 190 -328 231
-450 33 -97 63 -264 75 -415 13 -152 7 -662 -10 -866 -19 -232 6 -424 76 -588
l25 -56 -29 34 c-65 74 -117 202 -150 364 -27 132 -32 203 -36 562 -3 244 -7
337 -19 390 -9 39 -21 108 -26 155 -19 157 -69 354 -86 338 -2 -3 2 -23 10
-44 18 -45 40 -169 56 -301 5 -50 16 -115 22 -145 8 -34 12 -173 13 -393 1
-187 5 -374 9 -415 13 -126 -14 -220 -152 -540 -27 -63 -69 -155 -92 -205 -23
-49 -69 -151 -102 -225 -33 -74 -66 -148 -73 -165 -25 -53 -95 -270 -108 -336
l-13 -64 -18 105 c-9 58 -20 146 -22 195 l-5 90 55 59 c31 33 56 63 56 68 0 4
10 19 22 33 41 48 128 203 167 297 87 216 118 353 156 686 22 195 20 502 -4
502 -3 0 -6 -91 -7 -203 -1 -195 -5 -244 -39 -462 -8 -55 -18 -120 -21 -145
-25 -183 -162 -480 -323 -700 -61 -83 -178 -206 -166 -175 33 89 95 318 134
495 34 157 50 276 57 444 l7 159 18 -34 c35 -70 89 -271 110 -409 0 -3 4 4 9
15 7 16 9 17 9 3 1 -9 6 -20 13 -24 6 -4 8 -3 5 3 -3 5 -9 45 -12 88 -7 88
-45 225 -99 362 -20 51 -36 95 -36 97 0 12 -95 201 -102 204 -4 2 -8 9 -8 15
0 17 -83 187 -131 269 -36 61 -64 126 -74 168 -13 58 -47 150 -55 150 -6 0
-10 7 -10 16 0 61 -253 492 -351 599 -15 17 -41 46 -58 65 -44 51 -39 15 7
-46 62 -81 195 -282 244 -369 132 -232 199 -404 292 -745 45 -166 59 -258 71
-485 4 -60 12 -126 18 -145 l12 -35 6 60 c3 33 2 103 -2 155 -5 52 -8 121 -9
152 0 55 1 58 23 54 12 -3 25 -5 28 -5 17 -2 28 -96 34 -277 7 -202 1 -276
-36 -461 -10 -49 -13 -53 -47 -62 -35 -10 -483 -31 -643 -31 -46 0 -82 5 -93
13 -15 11 -20 43 -32 217 -33 480 -39 580 -34 581 47 7 63 3 82 -24 19 -26 19
-30 5 -38 -11 -7 -15 -26 -16 -79 0 -38 4 -72 9 -75 6 -4 10 21 10 64 0 38 4
72 10 76 5 3 30 -22 55 -57 51 -70 135 -161 142 -154 3 3 -9 25 -27 51 -28 40
-90 165 -90 180 0 3 21 5 48 5 26 0 54 5 62 10 11 8 -5 10 -54 9 -60 -2 -71 0
-77 17 -13 32 -11 34 46 34 52 0 56 -2 97 -47 120 -131 290 -281 406 -357 88
-57 93 -62 88 -90 -3 -16 -6 -67 -6 -115 0 -47 -4 -92 -9 -100 -5 -8 -40 -16
-91 -22 -107 -10 -119 -23 -15 -16 133 9 133 10 136 183 l1 117 -48 35 c-194
141 -441 395 -555 572 -177 275 -290 665 -324 1114 -3 44 -7 81 -9 84 -11 10
-17 -89 -11 -161 19 -230 49 -395 100 -562 19 -60 41 -150 50 -200 40 -234
127 -496 211 -642 45 -78 17 -44 -62 74 -194 293 -313 679 -334 1083 l-8 155
4 -200 c2 -115 10 -229 18 -267 7 -38 10 -68 6 -68 -11 0 -67 -197 -89 -315
-42 -229 -53 -347 -53 -540 0 -154 4 -204 20 -262 10 -40 16 -73 12 -73 -7 0
-35 31 -60 65 -15 19 -15 19 15 1 18 -11 2 11 -42 55 -118 123 -234 316 -278
464 -43 147 -51 399 -20 611 34 225 135 574 213 729 39 78 128 194 165 214 15
8 40 11 66 7 32 -4 41 -2 41 9 0 24 -39 37 -85 31 -150 -23 -283 -244 -384
-639 -41 -157 -81 -374 -81 -433 0 -25 -19 -61 -77 -146 -42 -62 -93 -133
-113 -158 -109 -134 -245 -351 -256 -409 -14 -66 -24 -39 -19 51 15 272 37
366 175 728 43 113 194 440 231 500 30 50 48 110 32 110 -50 0 -278 -411 -388
-700 -34 -88 -146 -470 -176 -597 -13 -58 -26 -91 -41 -102 -19 -16 -20 -19
-5 -42 12 -19 15 -57 16 -177 0 -165 2 -188 32 -357 42 -238 107 -440 182
-565 35 -59 36 -63 11 -40 -40 37 -164 205 -224 304 -111 185 -229 466 -282
676 -48 191 -87 417 -98 560 -18 254 -28 465 -24 520 3 50 3 52 -6 20 -16 -57
-1 -542 21 -700 22 -150 62 -358 86 -435 25 -83 73 -229 83 -250 5 -11 25 -60
45 -108 19 -49 57 -129 85 -178 48 -86 50 -91 49 -166 0 -43 -6 -121 -13 -173
l-12 -95 -27 90 c-15 50 -39 124 -52 165 -14 41 -34 109 -45 150 -10 41 -42
163 -70 270 -55 209 -118 483 -125 540 -3 19 -9 62 -15 95 -5 33 -17 125 -25
205 -22 210 -26 238 -34 217 -9 -24 2 -147 35 -412 9 -69 44 -266 64 -360 13
-61 21 -148 24 -270 3 -99 12 -209 20 -245 8 -36 13 -66 11 -68 -5 -6 -115
194 -165 300 -190 404 -257 805 -195 1165 20 116 73 339 85 360 11 19 160 465
160 479 0 24 -23 -22 -49 -96 -16 -47 -48 -137 -71 -200 -23 -63 -53 -148 -66
-188 -13 -39 -35 -89 -48 -110 -30 -44 -180 -203 -172 -182 2 8 18 47 34 85
16 39 61 160 100 270 38 110 75 211 81 225 5 14 22 57 36 95 15 39 35 89 46
112 10 24 19 46 19 49 0 4 25 57 55 118 54 109 134 240 187 307 14 19 45 59
69 89 107 140 290 285 472 374 98 49 277 100 310 90 11 -3 23 -1 26 5 10 15
294 34 421 28 105 -6 209 4 180 16 -45 19 -471 10 -602 -12 -43 -7 -53 -5
-115 30 -121 67 -248 162 -359 268 l-109 104 70 -35 c39 -19 106 -47 150 -61z
m969 -2173 c32 -127 76 -252 127 -362 22 -47 38 -86 37 -86 -51 -25 -77 -25
-154 -2 -117 35 -134 44 -134 63 0 32 40 259 65 374 14 62 25 114 25 117 0 20
12 -17 34 -104z m-596 -279 c-2 -3 -34 5 -71 16 l-66 20 46 72 c84 131 77 130
86 5 5 -60 7 -111 5 -113z m876 -39 c49 -69 57 -96 28 -96 -28 0 -53 34 -63
82 -4 24 -11 51 -14 61 -13 32 3 17 49 -47z m-933 34 c68 -21 69 -21 69 -56 0
-32 -2 -35 -22 -28 -13 4 -59 17 -104 29 l-81 21 21 27 c24 32 30 33 117 7z
m-21 -82 c41 -11 80 -22 87 -23 6 -2 23 -39 37 -82 64 -200 153 -368 255 -481
58 -65 159 -148 168 -138 2 2 -4 52 -13 112 -13 86 -15 148 -10 293 3 101 8
186 10 188 5 5 218 -56 228 -65 8 -8 15 -91 28 -367 14 -293 18 -263 -37 -271
-27 -4 -107 -26 -180 -49 l-131 -42 -7 103 c-8 109 -22 191 -25 144 0 -14 -1
-77 0 -140 l1 -115 -83 -34 c-133 -56 -230 -105 -319 -163 -79 -51 -168 -103
-302 -177 -32 -17 -62 -29 -67 -26 -5 3 -25 56 -44 118 -82 265 -116 510 -107
762 l1 29 38 -36 c57 -57 139 -82 87 -28 -16 17 -24 30 -17 30 6 0 17 21 24
47 11 40 18 48 51 59 37 13 38 13 30 -9 -11 -29 -10 -117 1 -141 6 -12 6 -17
0 -13 -11 6 -41 -9 -33 -17 15 -16 145 -39 219 -40 89 0 152 13 185 39 19 15
17 16 -24 10 -39 -5 -43 -4 -36 12 11 28 14 98 4 114 -7 11 -11 10 -24 -8 -19
-27 -47 -30 -66 -6 -8 9 -14 17 -13 17 0 1 6 11 12 23 10 18 17 20 40 14 44
-13 85 -37 133 -77 l44 -37 3 28 c3 19 -6 39 -29 68 l-33 41 37 -23 c29 -18
37 -20 37 -8 0 19 -88 74 -157 98 -66 23 -246 53 -278 47 -14 -3 -25 -3 -25 0
0 13 58 104 112 175 66 87 49 83 188 45z m1606 -35 c-10 -11 -26 18 -25 47 0
24 1 23 16 -7 9 -18 13 -36 9 -40z m-939 -65 c79 -25 103 -37 103 -50 0 -23 4
-23 -120 10 -99 27 -105 30 -108 56 -3 20 0 27 10 23 7 -3 59 -21 115 -39z
m-1091 -35 c-3 -32 -5 -72 -5 -89 -1 -20 -7 -34 -17 -38 -9 -4 -19 -5 -21 -3
-4 5 39 187 45 187 2 0 1 -26 -2 -57z m309 -199 c17 -4 20 -12 17 -42 -5 -49
27 -86 69 -80 24 4 29 1 29 -17 0 -11 -7 -31 -16 -44 -16 -22 -21 -23 -121
-19 -96 3 -107 6 -124 27 -22 27 -26 99 -8 150 11 30 12 31 72 31 34 0 71 -3
82 -6z m-305 -68 c0 -8 3 -23 6 -33 5 -12 4 -15 -3 -8 -16 15 -26 55 -14 55 6
0 11 -6 11 -14z m2644 -391 c9 -49 20 -107 25 -127 5 -21 6 -36 2 -33 -18 10
-92 200 -104 264 -12 62 -12 74 3 113 45 114 43 114 51 -12 4 -63 14 -155 23
-205z m-106 -25 l-3 -50 -27 34 -27 34 27 68 27 69 3 -52 c2 -29 2 -76 0 -103z
m-2929 -115 c-1 -31 -48 117 -48 150 1 33 5 25 24 -50 14 -49 24 -94 24 -100z
m2907 53 c69 -96 70 -100 126 -593 33 -285 30 -404 -15 -730 -21 -148 -53
-364 -72 -480 -64 -383 -74 -449 -85 -568 -13 -150 -13 -523 0 -652 14 -137
30 -266 36 -290 11 -47 30 -246 24 -256 -5 -7 -15 0 -29 17 -15 19 -21 41 -21
77 0 56 -35 133 -105 232 -201 285 -276 435 -336 676 -55 220 -85 437 -104
751 -5 80 -4 87 15 93 12 4 20 15 20 27 0 12 5 35 10 52 6 17 21 68 34 114
l23 84 79 51 c67 44 83 60 108 110 26 50 31 76 42 200 7 78 19 187 28 241 9
54 14 101 11 104 -3 3 -5 -3 -5 -14 0 -14 -2 -16 -9 -5 -16 25 -45 -142 -56
-319 -7 -117 -17 -158 -51 -212 -24 -38 -127 -115 -132 -99 -2 5 9 50 23 99
14 50 25 95 25 99 -1 18 -20 -28 -34 -78 -15 -58 -89 -319 -108 -382 -10 -34
-20 -41 -122 -94 -61 -31 -129 -67 -151 -81 -70 -45 -234 -111 -217 -88 5 6
53 67 108 136 245 308 469 664 446 707 -7 12 -20 -5 -56 -73 -26 -49 -48 -93
-49 -98 -1 -5 -10 -18 -20 -28 -10 -11 -16 -26 -13 -34 3 -8 2 -13 -3 -10 -5
3 -18 -12 -30 -34 -20 -38 -108 -174 -183 -282 -18 -26 -39 -47 -45 -47 -7 -1
-13 -8 -13 -16 0 -7 -6 -18 -13 -22 -7 -4 -24 -23 -36 -42 -13 -18 -40 -50
-60 -70 -20 -21 -49 -55 -66 -77 -48 -62 -181 -209 -217 -239 -18 -16 -52 -37
-75 -47 -36 -16 -48 -17 -90 -7 -30 8 -102 11 -188 9 -314 -8 -314 -8 -385 27
-36 17 -90 51 -120 74 -63 47 -165 99 -196 99 -11 0 -47 17 -80 38 -68 44 -95
88 -139 222 -15 47 -31 93 -37 103 -5 9 -6 17 -3 17 2 0 44 -20 92 -44 94 -46
191 -90 288 -129 33 -13 78 -32 100 -41 l40 -17 -30 26 c-16 14 -50 33 -75 42
-54 22 -338 163 -400 199 -77 45 -123 82 -167 136 -57 70 -61 97 -28 183 15
39 40 108 55 155 16 47 40 117 53 155 20 60 35 130 63 313 l5 33 19 -23 c10
-13 34 -59 54 -102 20 -43 54 -108 75 -144 53 -90 186 -253 239 -294 l42 -33
-7 -60 c-5 -33 -8 -113 -8 -177 1 -90 -2 -115 -11 -107 -7 6 -43 57 -81 114
-66 101 -83 120 -83 92 0 -29 54 -121 164 -277 213 -303 252 -340 473 -451
117 -59 144 -69 189 -69 29 0 56 5 59 10 4 6 -10 10 -35 10 -32 0 -88 18 -108
35 -1 1 20 26 47 56 l50 54 31 -30 31 -30 -26 -21 c-17 -14 -23 -24 -16 -28
11 -7 82 37 135 84 26 24 113 127 146 175 135 197 280 428 360 572 13 24 25
41 27 40 4 -5 -53 -214 -82 -296 -37 -104 -26 -110 18 -10 39 89 76 210 100
328 14 63 21 77 72 133 66 72 145 189 209 308 50 93 47 95 70 -48 16 -97 35
-162 47 -162 4 0 10 26 14 58 3 31 10 82 16 112 21 105 115 371 163 460 8 14
31 65 52 115 38 89 38 89 45 55 16 -77 21 -198 10 -251 -11 -54 -100 -246
-160 -347 -17 -29 -31 -57 -31 -62 0 -21 20 -8 41 28 13 20 28 40 35 44 6 4
15 19 18 33 4 14 10 23 15 20 10 -5 25 25 16 33 -3 3 -5 -1 -5 -8 0 -7 -2 -11
-5 -8 -3 2 8 29 25 59 80 149 91 217 69 433 l-12 108 29 59 c15 32 31 59 35
59 4 0 24 -24 45 -52z m-1276 -10 c0 -5 -11 -6 -24 -2 -26 6 -188 -34 -357
-90 -131 -43 -374 -158 -458 -217 -35 -24 -115 -76 -179 -115 -64 -39 -118
-77 -120 -84 -3 -8 13 -3 39 13 24 15 66 40 93 55 26 15 89 53 138 85 98 63
203 118 341 178 101 44 121 47 114 22 -3 -10 -8 -39 -11 -64 -6 -41 -3 -49 29
-92 20 -26 40 -47 46 -47 6 0 7 22 2 63 -4 34 -8 89 -8 121 l0 59 40 14 c22 8
94 28 159 45 94 24 128 28 160 22 83 -17 742 -2 778 17 11 6 18 6 18 0 0 -8
-23 -104 -66 -275 -18 -72 -71 -230 -91 -269 l-14 -28 43 27 c24 15 58 44 75
63 29 32 33 33 33 15 0 -54 -169 -364 -256 -469 -49 -58 -292 -243 -399 -302
-144 -80 -372 -183 -405 -183 -47 0 -249 81 -367 147 -240 135 -468 369 -583
598 -22 45 -40 83 -40 86 0 3 13 15 30 27 l29 22 48 -51 c26 -28 65 -65 87
-82 l39 -31 -38 70 c-98 178 -98 177 -78 192 10 7 71 40 137 73 65 34 157 86
205 117 99 65 306 161 436 203 50 16 99 34 110 39 22 10 135 43 200 58 32 7
43 6 53 -6 6 -9 12 -20 12 -24z m-1635 -80 c34 -68 35 -73 19 -85 -34 -25 -42
-15 -49 55 -4 37 -9 75 -11 85 -11 37 7 14 41 -55z m3135 -175 c25 -15 97 -61
160 -103 253 -169 390 -250 620 -364 278 -138 324 -176 353 -286 16 -64 13
-78 -52 -220 -53 -116 -121 -286 -121 -302 1 -14 112 226 164 354 29 71 33 75
52 65 66 -37 187 -237 186 -308 -2 -110 -89 -342 -172 -454 -53 -72 -130 -207
-124 -217 10 -17 21 -7 57 57 21 36 39 65 41 65 5 0 -75 -213 -111 -295 -69
-156 -164 -419 -183 -507 -43 -192 -52 -225 -85 -293 -19 -38 -62 -106 -95
-150 -150 -197 -202 -340 -299 -820 -69 -342 -92 -495 -99 -643 l-7 -143 -47
93 c-52 104 -86 184 -116 273 -12 33 -46 129 -77 214 l-56 154 20 66 c20 65
74 181 149 316 41 74 103 216 176 405 25 63 66 165 91 225 25 61 54 154 65
208 24 117 42 190 69 272 25 77 176 497 230 639 23 60 40 113 39 118 -4 10
-55 -115 -163 -397 -40 -104 -93 -244 -119 -309 -25 -66 -57 -176 -72 -245
-15 -71 -46 -176 -71 -241 -69 -174 -101 -256 -137 -355 -45 -120 -115 -276
-183 -403 -31 -57 -68 -136 -83 -174 l-27 -70 -17 43 c-24 66 -83 233 -115
325 -16 48 -25 88 -21 100 4 10 6 28 4 39 -2 11 -9 65 -14 120 -6 55 -15 125
-21 155 -26 146 -39 350 -40 607 0 150 2 276 4 280 3 5 8 31 11 58 4 28 14 97
22 155 9 58 18 128 20 155 3 28 9 61 14 75 5 14 17 72 26 130 9 58 17 114 19
125 13 77 29 189 55 380 17 121 34 247 39 280 8 59 1 198 -18 325 -5 36 -15
119 -21 185 -6 66 -16 139 -21 162 -5 23 -9 70 -9 104 l0 61 32 -31 c18 -18
53 -44 78 -58z m-2795 -189 c32 -45 34 -50 18 -62 -15 -11 -19 -7 -34 30 -40
103 -38 108 16 32z m-66 -159 c-19 -139 -68 -329 -103 -405 l-34 -73 -40 86
c-44 92 -72 185 -72 238 0 19 19 84 41 144 22 61 43 118 46 128 3 9 9 17 13
17 4 0 25 -53 47 -118 l39 -118 13 51 c6 27 14 82 17 120 8 97 14 108 30 55
12 -37 12 -60 3 -125z m101 35 c-41 -34 -46 -35 -54 -15 -14 37 47 84 74 58
13 -12 11 -17 -20 -43z m2006 -574 c-49 -88 -57 -85 -10 4 21 38 39 68 42 65
2 -2 -12 -33 -32 -69z m-372 -73 c-93 -161 -189 -315 -271 -434 l-94 -137 -72
0 c-79 1 -118 -9 -214 -53 -83 -38 -156 -57 -256 -64 l-83 -6 -71 73 c-39 40
-102 114 -139 163 l-68 90 -1 165 c-1 91 1 177 4 191 l6 27 75 -50 c120 -80
236 -142 364 -193 107 -42 124 -47 175 -42 75 8 201 50 286 96 155 84 191 104
204 115 13 10 173 104 179 105 2 1 -9 -20 -24 -46z m-1764 -345 c24 -17 37
-45 71 -147 23 -69 50 -143 61 -164 21 -43 106 -102 174 -123 59 -17 95 -37
204 -109 101 -67 190 -105 244 -105 32 0 33 -1 39 -51 9 -71 -18 -471 -43
-634 -36 -244 -82 -447 -151 -668 -44 -141 -167 -474 -197 -534 -11 -21 -36
-81 -57 -133 -48 -122 -175 -365 -175 -336 0 11 64 305 85 391 21 89 45 351
45 502 0 126 1 133 24 156 29 29 149 126 228 184 60 45 64 60 31 108 -7 11
-13 26 -13 33 0 8 -14 48 -31 90 -28 72 -44 108 -105 237 -24 52 -44 106 -99
265 -84 243 -159 452 -230 640 -43 113 -81 223 -85 245 -4 22 -19 70 -34 108
-14 37 -23 67 -21 67 3 0 19 -10 35 -22z m2024 -305 c11 -169 34 -337 63 -471
32 -149 37 -128 -104 -415 -147 -299 -253 -553 -253 -605 0 -16 26 -55 144
-217 l49 -68 -11 -81 c-20 -144 -22 -197 -23 -426 0 -246 10 -363 46 -545 48
-241 167 -525 280 -673 31 -41 55 -76 52 -78 -7 -8 -246 233 -294 296 -63 82
-161 250 -208 359 -58 131 -188 527 -206 626 -4 22 -10 54 -13 70 -43 207 -48
238 -71 405 -54 395 -62 680 -30 1025 21 230 45 507 45 520 0 6 16 17 36 24
26 10 51 34 95 94 32 44 59 84 59 89 0 4 37 26 83 48 45 22 118 60 162 85 44
24 83 45 86 45 4 0 9 -48 13 -107z m-654 51 c0 -11 -111 -144 -138 -164 l-24
-20 -28 30 c-40 43 -64 38 -131 -24 l-58 -54 -74 39 c-41 21 -80 45 -86 53
-13 15 -13 15 129 31 32 4 88 22 135 44 81 39 130 57 175 64 42 7 100 7 100 1z
m270 -129 c0 -3 -21 -32 -46 -65 -32 -40 -63 -68 -97 -85 -28 -14 -52 -23 -54
-21 -2 2 9 18 24 35 16 17 49 55 73 85 34 42 52 55 73 56 15 0 27 -2 27 -5z
m-184 -272 c-13 -154 -9 -145 -89 -191 -40 -22 -95 -50 -123 -61 -55 -21 -258
-57 -366 -64 l-67 -5 2 162 2 162 90 11 c131 15 180 15 272 -1 77 -13 86 -13
135 5 29 10 61 28 72 39 11 11 33 20 49 20 l29 0 -6 -77z m-23 -245 c-3 -40
-10 -77 -15 -83 -4 -5 -29 -42 -56 -82 -80 -120 -172 -233 -282 -345 -58 -58
-93 -99 -77 -90 66 40 247 242 365 409 59 84 57 89 42 -91 -17 -201 -15 -534
4 -696 63 -532 142 -887 282 -1259 13 -35 23 -65 22 -66 -19 -12 -108 -47
-163 -64 -93 -28 -117 -45 -51 -36 74 10 178 44 202 66 21 20 21 20 35 -12 13
-32 12 -33 -37 -76 -68 -61 -176 -127 -256 -157 -53 -20 -275 -66 -319 -66 -6
0 -8 -4 -5 -9 7 -10 60 -6 150 11 32 6 66 11 75 11 20 -1 109 31 164 58 60 31
178 113 212 149 16 16 31 30 35 30 3 0 12 -16 19 -36 12 -33 11 -38 -21 -90
-18 -31 -58 -84 -88 -117 -30 -34 -41 -51 -25 -37 40 35 84 85 122 137 17 24
34 44 38 44 4 0 27 -32 51 -72 25 -40 74 -107 109 -150 64 -77 64 -78 74 -161
6 -46 13 -126 16 -178 14 -230 17 -246 64 -338 12 -23 21 -43 21 -46 0 -3
-114 -4 -252 -2 -275 3 -302 6 -540 71 -179 49 -199 57 -196 74 2 11 24 15
103 17 254 7 419 31 645 96 114 33 140 43 140 58 0 13 -45 13 -68 1 -27 -14
-250 -70 -342 -85 -84 -14 -274 -27 -385 -27 -125 1 -371 30 -478 56 -187 47
-517 184 -765 318 -125 67 -133 73 -127 97 11 45 62 143 172 335 73 127 166
294 203 367 37 71 46 77 97 57 50 -19 336 -59 418 -58 44 0 112 7 150 14 64
13 65 14 16 9 -162 -15 -390 4 -554 48 -88 23 -86 11 -33 135 32 72 38 80 86
106 59 31 266 183 290 212 8 10 -10 -1 -40 -26 -30 -24 -73 -55 -95 -69 -22
-13 -58 -38 -80 -56 -60 -48 -144 -79 -106 -38 16 16 171 425 224 589 34 107
69 235 87 319 4 22 15 73 24 113 26 117 66 399 73 516 l6 107 46 0 c163 0 382
51 490 114 42 24 79 44 84 45 4 1 4 -31 0 -71z m1144 -913 c9 -16 20 -59 24
-95 6 -57 11 -68 44 -98 34 -32 44 -56 125 -296 114 -340 121 -361 174 -502
94 -253 96 -257 260 -579 186 -365 295 -762 311 -1136 5 -105 32 -289 54 -367
13 -44 -4 -50 -114 -41 -142 11 -259 61 -301 128 -27 43 -85 91 -144 118 -43
21 -72 27 -137 29 -109 2 -122 15 -124 118 -2 95 1 182 11 296 4 52 6 122 4
155 -8 128 -16 241 -20 260 -2 11 -7 40 -10 65 -3 25 -14 72 -24 105 -10 33
-22 76 -25 95 -19 101 -112 337 -188 475 -75 138 -167 331 -183 385 -44 157
-54 350 -25 515 10 61 24 155 31 210 6 55 18 150 26 210 7 61 14 148 14 195
l0 85 101 -150 c55 -82 107 -163 116 -180z m-446 -2082 c1 -56 7 -137 14 -180
12 -73 60 -295 72 -332 12 -37 -62 99 -89 163 -23 56 -29 90 -34 175 -3 58 -7
112 -10 120 -2 7 -7 59 -10 115 l-6 101 30 -30 c30 -29 31 -32 33 -132z m-991
-299 c0 -11 -6 -14 -22 -8 -48 14 -54 23 -15 24 27 0 37 -4 37 -16z m-138
-179 c53 -25 101 -45 108 -45 10 0 12 -29 7 -137 -3 -76 -10 -151 -15 -168
l-9 -30 -76 77 c-82 84 -80 78 -102 263 -3 28 -8 58 -11 68 -3 9 -3 17 -1 17
2 0 47 -20 99 -45z"/>
<path d="M4593 9780 c-23 -10 -73 -87 -73 -113 0 -31 25 -16 60 36 49 72 70
72 198 8 184 -92 302 -205 457 -436 173 -259 224 -377 289 -670 68 -309 83
-530 64 -950 -4 -105 -3 -134 3 -95 5 30 11 66 14 80 17 100 25 216 24 345 -1
133 -5 179 -23 315 -2 19 -7 64 -11 100 -3 36 -10 81 -15 100 -5 19 -17 76
-26 125 -9 50 -22 105 -30 124 -8 18 -14 41 -14 51 0 32 -51 169 -84 228 -140
244 -259 413 -359 509 -84 80 -106 97 -186 146 -128 78 -241 116 -288 97z"/>
<path d="M4379 9680 c-20 -12 -45 -68 -34 -78 4 -4 21 10 39 32 32 37 33 38
62 23 16 -8 40 -18 53 -22 41 -12 13 15 -36 36 -50 21 -61 22 -84 9z"/>
<path d="M4593 7415 l2 -110 138 -2 c79 -1 137 2 137 8 0 5 -56 9 -130 9
l-130 0 -1 78 c-1 42 -5 88 -9 102 -5 16 -8 -16 -7 -85z"/>
<path d="M5572 7400 c0 -14 2 -19 5 -12 2 6 2 18 0 25 -3 6 -5 1 -5 -13z"/>
<path d="M5395 6330 c-9 -16 -13 -30 -11 -30 3 0 12 14 21 30 9 17 13 30 11
30 -3 0 -12 -13 -21 -30z"/>
<path d="M4290 6916 c0 -20 40 -30 91 -23 79 10 65 29 -26 35 -55 4 -65 2 -65
-12z"/>
<path d="M4585 6489 c-160 -42 -295 -59 -485 -62 -179 -2 -198 -10 -102 -41
46 -15 292 -57 302 -51 3 2 55 6 115 10 154 9 251 22 285 40 28 15 36 33 43
105 3 35 -24 35 -158 -1z m86 -37 c-13 -25 -136 -58 -261 -70 -89 -8 -322 2
-347 16 -12 7 12 9 77 7 126 -4 261 9 400 40 62 14 116 27 118 30 11 11 21 -8
13 -23z"/>
<path d="M4140 2130 c0 -5 14 -7 31 -5 45 6 49 15 6 15 -20 0 -37 -4 -37 -10z"/>
<path d="M4067 2119 c7 -7 15 -10 18 -7 3 3 -2 9 -12 12 -14 6 -15 5 -6 -5z"/>
<path d="M4820 406 c0 -2 7 -7 16 -10 8 -3 12 -2 9 4 -6 10 -25 14 -25 6z"/>
</g>
</svg>
