<?xml version="1.0" standalone="no"?>
<!DOCTYPE svg PUBLIC "-//W3C//DTD SVG 20010904//EN"
 "http://www.w3.org/TR/2001/REC-SVG-20010904/DTD/svg10.dtd">
<svg version="1.0" xmlns="http://www.w3.org/2000/svg"
 width="1280.000000pt" height="1138.000000pt" viewBox="0 0 1280.000000 1138.000000"
 preserveAspectRatio="xMidYMid meet">

<g transform="translate(0.000000,1138.000000) scale(0.100000,-0.100000)"
fill="#000000" stroke="none">
<path d="M10628 10763 c-8 -10 -31 -54 -52 -97 -108 -231 -404 -542 -675 -707
-43 -26 -78 -38 -137 -47 -159 -25 -391 -93 -593 -176 -35 -14 -66 -24 -68
-23 -5 6 122 151 194 221 37 36 108 96 158 134 139 105 128 121 -51 77 -186
-45 -456 -157 -580 -241 -20 -14 -38 -23 -40 -21 -3 2 38 53 89 113 214 249
444 416 658 477 139 41 104 79 -52 57 -171 -24 -338 -102 -539 -253 -108 -81
-284 -252 -385 -375 l-68 -83 -18 51 c-37 106 -126 245 -222 348 -22 23 -44
42 -49 42 -23 0 -16 -35 20 -112 47 -97 79 -205 88 -302 l7 -68 -34 34 c-43
43 -268 224 -377 303 -159 115 -230 175 -287 245 -56 69 -69 78 -79 61 -5 -8
49 -179 74 -234 7 -15 11 -29 9 -31 -6 -6 -166 32 -192 45 -12 7 -61 40 -109
75 -83 61 -118 77 -118 53 0 -15 16 -44 76 -135 30 -45 54 -84 54 -87 0 -4
-17 5 -37 19 -94 64 -237 123 -359 147 -118 24 -178 46 -237 84 -24 16 -29 16
-37 3 -8 -12 18 -43 118 -141 l127 -126 -230 -13 c-267 -14 -343 -8 -438 38
-66 32 -112 70 -141 115 -21 30 -46 36 -46 10 0 -54 85 -187 189 -296 35 -37
62 -69 60 -70 -8 -7 -174 12 -254 28 -106 22 -239 67 -353 121 -73 34 -94 40
-98 29 -7 -17 119 -169 195 -237 l52 -45 -90 -6 c-59 -4 -114 -16 -162 -34
-67 -24 -84 -37 -174 -127 -55 -54 -124 -119 -153 -143 -59 -48 -197 -121
-282 -148 -127 -41 -94 -54 151 -63 l204 -7 -43 -23 c-65 -34 -196 -165 -252
-251 -79 -120 -119 -241 -81 -241 5 0 35 33 65 73 47 63 130 145 157 155 11 5
11 -2 -2 -74 -34 -187 -217 -342 -483 -409 -55 -14 -102 -27 -104 -30 -15 -15
16 -35 80 -51 100 -26 256 -24 363 4 43 12 81 19 84 16 3 -2 -16 -46 -42 -97
-90 -177 -264 -357 -422 -437 -42 -21 -65 -39 -65 -50 0 -15 16 -18 112 -24
62 -4 114 -8 115 -10 1 -1 -9 -29 -22 -62 -45 -111 -57 -174 -62 -319 -5 -150
4 -220 27 -220 12 0 15 14 15 60 0 39 10 89 29 142 31 93 51 119 39 51 -5 -24
-8 -110 -8 -193 1 -124 5 -165 23 -235 27 -99 80 -220 97 -220 21 0 23 11 8
48 -18 43 -12 122 17 215 21 68 63 167 70 167 3 0 3 -24 1 -52 -8 -126 45
-392 100 -501 19 -37 20 -47 10 -131 -24 -202 -93 -338 -241 -472 -82 -75
-252 -153 -352 -163 -5 -1 -8 -7 -8 -15 0 -33 172 -32 297 0 32 8 82 26 112
40 30 13 56 22 59 20 2 -3 -30 -61 -72 -129 -42 -69 -88 -150 -102 -181 -27
-60 -24 -58 -134 -76 -249 -42 -486 -135 -630 -246 -61 -47 -82 -70 -114 -123
-20 -34 -21 -49 -20 -283 0 -242 0 -247 -20 -250 -18 -3 -21 -9 -19 -54 4 -99
57 -323 85 -360 5 -7 6 -60 2 -118 -7 -102 -8 -108 -35 -127 -16 -11 -60 -31
-99 -44 -39 -13 -94 -37 -123 -52 -74 -40 -166 -136 -201 -209 l-28 -61 -78
-7 c-450 -37 -917 -236 -1360 -580 -133 -102 -410 -379 -519 -516 -46 -58 -91
-114 -100 -125 -160 -195 -388 -590 -524 -910 -193 -455 -297 -859 -366 -1428
-6 -56 -5 -70 7 -74 21 -9 29 11 36 100 20 246 112 690 198 956 149 463 348
866 611 1238 32 46 63 83 70 83 7 0 53 35 102 76 520 438 1119 698 1681 731
83 4 114 10 118 20 9 22 -18 26 -122 19 -148 -11 -291 -34 -444 -72 -77 -20
-141 -34 -143 -32 -6 6 155 133 239 189 161 107 339 184 505 219 101 21 211
33 210 22 -2 -18 -111 -92 -136 -92 -47 0 -102 -20 -136 -48 -17 -15 -49 -35
-69 -46 -47 -24 -80 -54 -73 -67 9 -14 28 -10 55 11 34 27 43 25 60 -12 22
-46 79 -72 168 -76 52 -3 86 1 117 13 42 16 105 74 105 97 0 6 8 4 18 -5 21
-19 42 -22 42 -6 0 23 -23 51 -53 65 -18 8 -47 26 -66 39 -19 14 -42 25 -52
25 -11 0 -19 4 -19 9 0 28 407 25 555 -4 103 -19 117 -19 113 2 -4 20 -28 26
-198 49 -86 11 -169 15 -268 12 -78 -2 -142 -3 -142 -2 0 5 131 94 158 108 91
46 360 73 566 56 180 -15 491 -72 513 -94 11 -10 -25 -33 -162 -103 -71 -36
-141 -73 -155 -83 -14 -9 -73 -27 -131 -38 -151 -31 -320 -91 -504 -182 -396
-194 -768 -506 -1074 -900 -80 -103 -90 -123 -71 -135 11 -7 9 -9 127 145 162
211 465 499 689 653 133 92 364 227 364 213 0 -2 -50 -35 -111 -72 -220 -137
-451 -329 -625 -520 -214 -236 -372 -466 -317 -464 4 1 33 38 63 83 204 304
506 606 815 814 l90 60 85 -4 c378 -18 800 -318 1120 -798 177 -265 302 -543
372 -825 l32 -130 -37 -52 c-74 -107 -246 -265 -385 -355 -95 -60 -269 -143
-375 -178 -98 -32 -244 -60 -353 -68 l-52 -4 -32 76 c-41 96 -129 263 -191
363 -349 565 -841 950 -1371 1072 -259 59 -567 42 -815 -45 -92 -33 -257 -112
-327 -157 -232 -150 -454 -397 -611 -680 -79 -145 -88 -167 -70 -182 11 -10
21 2 54 68 230 457 551 764 948 908 169 61 274 78 488 78 146 1 210 -3 275
-17 370 -78 688 -256 986 -552 144 -144 178 -181 268 -303 139 -188 298 -475
379 -686 l35 -89 -77 -62 c-191 -154 -339 -249 -566 -364 -136 -68 -139 -70
-97 -71 94 0 483 229 689 408 l63 54 10 -27 c22 -57 80 -269 97 -350 14 -68
21 -85 35 -85 11 0 18 7 18 18 0 38 -63 273 -111 411 -27 80 -52 153 -55 162
-5 14 8 17 84 23 93 7 261 43 347 75 285 106 571 307 716 502 l51 69 37 -22
c355 -215 696 -695 822 -1156 l22 -82 50 0 c42 0 68 9 153 55 181 97 382 249
505 384 48 52 62 62 69 51 14 -22 13 -28 -22 -70 -81 -102 -307 -276 -475
-367 -85 -47 -87 -48 -54 -51 39 -4 53 2 166 72 108 66 234 164 331 258 l80
78 23 -76 c28 -94 61 -255 61 -300 0 -27 4 -34 20 -34 26 0 26 31 -1 163 -59
292 -193 643 -464 1217 -132 279 -185 398 -275 616 -85 205 -157 358 -215 454
-25 42 -35 71 -40 124 -9 91 -46 243 -83 339 -17 42 -28 77 -25 77 2 0 30 -22
61 -49 31 -27 95 -73 142 -103 47 -30 95 -66 106 -79 38 -42 61 -138 89 -364
25 -203 96 -497 162 -674 41 -111 107 -247 133 -276 10 -11 34 -63 53 -115 19
-52 77 -203 130 -335 228 -578 337 -892 337 -971 0 -17 6 -24 20 -24 14 0 20
7 20 24 0 79 -136 471 -339 978 -136 339 -231 608 -281 793 -17 64 -30 120
-28 125 4 12 192 -67 391 -163 313 -151 582 -318 832 -518 132 -105 147 -120
194 -199 27 -47 66 -119 84 -160 38 -81 82 -208 76 -214 -2 -3 -76 17 -164 44
-268 80 -464 115 -716 126 -131 6 -146 5 -152 -10 -9 -23 -4 -24 163 -30 243
-9 449 -47 731 -134 l154 -47 11 -50 c7 -28 13 -60 13 -73 l1 -22 -47 24
c-170 86 -473 196 -663 240 -141 33 -164 35 -168 14 -2 -13 6 -19 35 -23 216
-38 549 -153 784 -271 80 -40 79 -35 79 -281 0 -166 1 -173 20 -173 19 0 20 7
20 163 0 533 -141 865 -570 1347 -57 63 -120 136 -141 163 -36 45 -37 49 -25
78 17 41 87 137 132 180 l35 34 222 -1 c165 0 245 -5 312 -18 311 -59 449
-169 509 -406 23 -88 31 -292 16 -415 -19 -168 -24 -316 -11 -375 24 -114 92
-244 259 -497 43 -65 96 -148 117 -185 26 -44 46 -68 57 -68 10 0 18 3 18 7 0
11 -72 136 -120 208 -99 146 -179 274 -205 325 l-27 53 37 79 c127 278 202
559 208 778 2 73 0 85 -15 88 -15 3 -18 -4 -18 -45 0 -203 -81 -521 -198 -776
-39 -86 -42 -86 -68 3 -18 62 -16 194 6 433 21 222 -4 407 -73 543 -31 60 -96
135 -142 164 l-34 21 0 173 c-1 192 -19 357 -57 516 -26 113 -74 260 -105 324
-10 22 -17 41 -15 44 8 7 86 -61 99 -85 7 -13 49 -81 93 -151 122 -191 175
-285 294 -527 158 -322 263 -595 365 -945 81 -279 100 -402 110 -700 6 -205
24 -485 31 -512 3 -10 14 -18 25 -18 15 0 18 5 14 23 -3 12 -9 71 -14 132 -8
102 -6 115 16 180 13 38 44 140 68 225 167 584 265 1202 265 1682 0 176 0 178
-22 182 -243 49 -342 94 -518 230 -210 163 -206 159 -234 233 -32 85 -32 90 2
63 79 -61 271 -182 372 -234 63 -33 117 -63 120 -67 3 -4 69 -28 146 -54 158
-51 217 -86 241 -143 32 -76 26 -228 -17 -472 -5 -30 -19 -124 -30 -208 -28
-213 -79 -482 -161 -857 -59 -266 -159 -753 -183 -882 -5 -28 -3 -33 14 -33
12 0 21 8 24 23 2 12 21 108 41 212 31 165 157 754 185 870 33 133 100 516
125 715 9 68 22 158 30 200 56 304 39 458 -60 529 -37 26 -96 49 -302 116 -9
3 -7 19 9 62 12 32 23 60 25 62 8 10 103 -1 183 -21 94 -23 231 -79 299 -122
l44 -28 -7 -111 c-4 -61 -16 -158 -26 -216 -36 -207 -34 -256 12 -348 21 -41
125 -184 196 -269 32 -38 33 -38 48 -19 25 34 65 176 80 285 7 58 14 171 14
253 0 81 3 147 8 146 11 0 94 -106 146 -186 172 -266 266 -596 266 -931 0
-114 -1 -124 -17 -117 -133 54 -258 85 -343 85 -37 0 -50 -4 -50 -14 0 -10 16
-17 48 -21 153 -18 357 -83 407 -129 39 -35 152 -345 208 -571 66 -262 73
-317 51 -427 -5 -23 -2 -28 14 -28 22 0 25 12 43 195 11 116 8 391 -7 534 l-7
64 69 -39 c290 -161 576 -418 797 -716 16 -22 37 -38 48 -38 10 0 19 3 19 7 0
7 -89 126 -141 188 -19 22 -78 85 -131 141 l-98 100 0 80 c-1 251 -72 555
-196 839 -189 430 -580 884 -971 1124 -48 30 -113 80 -144 111 -53 53 -57 62
-73 136 -41 189 -132 420 -234 589 -45 75 -156 225 -218 294 l-47 53 29 141
c25 124 29 162 28 302 -1 206 -9 233 -89 298 -196 158 -571 374 -885 508 -80
34 -456 162 -528 180 -34 8 -43 14 -39 27 3 9 33 89 67 177 146 376 222 633
305 1030 48 230 96 410 146 541 22 60 43 111 46 114 17 16 -23 -347 -63 -564
-40 -219 -10 -211 115 34 68 134 123 283 157 433 10 42 21 72 25 65 13 -25 48
-194 59 -289 12 -97 9 -325 -5 -366 -6 -18 -3 -23 9 -23 36 0 138 283 180 497
36 185 50 352 43 527 -4 82 -5 147 -3 145 6 -6 43 -168 51 -221 6 -37 11 -48
25 -48 21 0 35 53 51 195 6 49 12 91 13 93 9 8 120 -242 154 -348 59 -183 83
-317 89 -510 9 -249 -20 -444 -97 -672 -45 -131 -47 -141 -24 -136 9 2 24 24
34 49 10 25 30 63 45 85 42 61 114 209 156 320 74 198 117 417 120 613 1 50 4
91 8 91 14 0 99 -256 134 -400 61 -250 64 -300 44 -560 -1 -16 4 -26 15 -28
26 -5 33 79 32 388 0 295 -11 394 -69 621 -91 362 -273 732 -493 1002 -35 43
-62 80 -60 82 4 5 220 -125 323 -195 400 -270 737 -594 944 -911 93 -141 127
-220 157 -359 27 -126 38 -155 56 -144 14 9 3 74 -47 269 -147 570 -416 1107
-760 1515 -39 47 -75 91 -79 98 -22 38 348 -220 514 -356 154 -127 504 -481
555 -560 22 -34 44 -62 48 -62 27 0 10 42 -59 147 -347 526 -814 969 -1310
1241 -114 63 -285 140 -364 163 l-45 14 55 7 c85 10 300 9 455 -2 234 -16 467
-55 660 -109 38 -11 73 -17 77 -15 35 22 -56 68 -285 145 -233 78 -568 150
-773 165 -46 4 -84 10 -84 13 0 4 42 12 93 19 309 42 721 152 956 256 174 76
351 188 351 221 0 28 -25 26 -96 -5 -105 -48 -312 -117 -448 -149 -282 -68
-463 -91 -771 -98 l-250 -6 50 40 c184 146 375 373 540 641 136 222 339 702
309 732 -7 7 -15 5 -26 -7z m-147 -379 c-168 -381 -410 -713 -699 -957 l-83
-70 -147 12 c-81 7 -185 19 -232 27 -111 18 -140 18 -140 -1 0 -17 10 -20 150
-39 295 -42 767 -47 1030 -12 258 35 528 98 726 170 37 14 70 23 72 21 9 -9
-270 -136 -381 -174 -311 -107 -697 -187 -1067 -221 -207 -20 -235 -24 -235
-38 0 -10 48 -14 215 -16 331 -6 591 -44 932 -136 116 -32 153 -48 83 -36
-277 46 -566 64 -813 48 -174 -10 -196 -10 -282 8 -118 24 -259 35 -344 25
-55 -5 -67 -10 -64 -23 3 -15 16 -17 103 -14 513 17 1171 -323 1720 -889 121
-125 307 -340 300 -347 -2 -2 -34 27 -72 65 -194 195 -504 431 -768 583 -60
35 -144 94 -185 131 -97 85 -181 153 -208 168 -19 10 -23 9 -29 -5 -4 -10 0
-20 10 -25 31 -18 153 -122 237 -202 355 -340 661 -828 854 -1361 26 -69 46
-131 46 -138 0 -6 -21 19 -46 58 -189 284 -546 628 -904 873 -127 87 -324 208
-404 248 -31 15 -96 69 -166 137 -63 62 -142 133 -175 157 -33 25 -94 80 -135
123 -77 80 -180 166 -199 166 -23 0 -9 -36 22 -57 45 -31 186 -168 234 -228
186 -231 297 -524 310 -815 5 -116 -3 -307 -13 -297 -2 2 -19 57 -37 123 -69
246 -195 493 -361 704 -65 84 -186 210 -201 210 -6 0 -35 29 -65 65 -70 85
-114 115 -168 115 -60 0 -99 -19 -169 -84 -33 -31 -63 -56 -66 -56 -3 0 -10
23 -17 50 l-12 51 59 72 c78 95 167 167 196 159 25 -6 155 -137 224 -224 47
-59 57 -66 68 -47 10 15 -38 79 -139 186 -125 133 -160 147 -232 94 -36 -26
-106 -95 -169 -166 -29 -33 -29 -33 -1 65 36 130 163 283 310 374 87 54 148
80 251 105 46 12 70 22 70 32 0 11 -24 14 -130 13 -114 -1 -140 -4 -210 -28
-144 -49 -284 -141 -298 -197 -10 -37 15 -30 61 19 55 59 174 122 287 153 77
21 125 21 70 0 -194 -73 -382 -266 -449 -459 l-12 -33 -41 83 c-30 60 -45 105
-53 163 -32 218 -135 423 -294 581 -44 44 -108 98 -141 119 -81 51 -194 105
-222 105 -45 0 -22 -27 45 -54 185 -72 352 -227 462 -426 42 -75 92 -212 105
-283 6 -36 5 -38 -14 -32 -31 10 -27 -14 18 -86 211 -348 258 -752 132 -1125
-34 -100 -127 -291 -137 -281 -2 2 5 30 16 63 44 127 71 299 82 528 17 343 16
451 -2 451 -11 0 -15 -14 -17 -60 -8 -286 -61 -459 -203 -670 -53 -78 -188
-225 -207 -225 -9 0 -13 16 -13 48 0 35 10 69 39 127 106 219 127 358 110 738
-5 129 -22 128 -67 -6 -95 -282 -138 -635 -113 -921 6 -71 9 -131 7 -133 -4
-5 -53 202 -66 282 -18 110 -23 297 -11 415 23 221 72 400 167 600 32 66 54
123 51 126 -17 17 -43 -15 -87 -108 -122 -260 -184 -550 -178 -834 2 -97 -1
-117 -25 -184 -38 -104 -102 -211 -170 -286 -54 -58 -145 -134 -162 -134 -4 0
12 22 36 49 76 85 112 145 158 265 55 143 87 381 51 381 -10 0 -16 -12 -18
-35 -2 -19 -10 -80 -17 -134 -13 -87 -20 -108 -56 -163 -73 -111 -188 -204
-449 -361 -94 -56 -199 -107 -206 -99 -3 2 20 31 51 63 144 152 269 324 338
466 71 145 232 573 282 752 61 214 115 325 205 419 83 88 136 117 213 117 56
0 82 14 56 31 -8 5 -26 9 -41 9 -22 0 -31 7 -43 36 -25 60 -85 155 -147 231
-72 88 -217 223 -240 223 -32 0 -19 -25 32 -64 59 -45 147 -139 208 -221 42
-57 122 -187 122 -199 0 -3 -21 -14 -47 -26 -67 -30 -142 -98 -202 -184 -64
-93 -93 -158 -132 -295 -45 -158 -77 -256 -114 -351 -19 -47 -52 -134 -75
-195 -39 -106 -44 -113 -123 -193 -45 -46 -118 -113 -162 -150 -44 -37 -82
-69 -85 -72 -33 -36 -350 -240 -373 -240 -6 0 3 15 20 33 169 180 391 587 419
768 4 24 29 90 56 145 50 105 66 179 38 179 -8 0 -17 -15 -22 -37 -9 -43 -121
-270 -175 -355 -20 -32 -80 -118 -132 -191 -53 -74 -115 -161 -139 -194 -91
-128 -242 -397 -242 -433 0 -8 -4 -15 -9 -15 -10 0 -5 143 10 280 52 477 241
926 507 1202 135 139 271 221 393 235 40 5 49 9 49 26 0 18 -4 19 -51 13 -209
-28 -435 -213 -620 -506 -154 -244 -282 -632 -318 -967 l-10 -93 -54 -52 c-50
-49 -137 -180 -137 -205 0 -7 -5 -15 -11 -19 -8 -5 -10 1 -6 18 4 14 23 156
42 314 20 159 44 326 55 370 35 150 132 343 198 394 30 24 24 57 -7 41 -67
-36 -169 -212 -214 -372 -24 -81 -26 -85 -78 -121 -30 -20 -88 -49 -129 -65
-103 -39 -238 -40 -352 -3 -43 13 -78 28 -78 32 0 5 26 8 59 8 77 0 229 39
322 83 167 80 258 178 367 396 62 123 86 162 124 196 51 46 60 65 29 65 -25 0
-104 -78 -130 -128 -23 -44 -54 -61 -168 -87 -166 -39 -295 -27 -396 35 -54
34 -67 37 -67 16 0 -42 133 -102 247 -112 70 -6 205 13 291 42 23 8 45 14 48
14 8 0 -47 -103 -93 -172 -24 -37 -72 -93 -106 -123 -145 -132 -410 -212 -609
-185 -57 8 -84 8 -91 1 -18 -18 10 -35 143 -83 183 -67 277 -81 392 -57 59 12
192 70 220 96 12 10 18 12 18 4 0 -19 -30 -274 -35 -297 -12 -54 -296 -79
-455 -40 -91 22 -217 79 -288 130 -87 63 -100 36 -41 -89 27 -58 84 -127 143
-173 16 -12 27 -23 25 -25 -2 -1 -28 -14 -56 -28 l-53 -27 -43 29 c-39 26
-112 98 -159 157 -22 28 -48 18 -48 -17 0 -78 76 -243 133 -290 22 -17 21 -39
-1 -76 -50 -82 -92 -250 -92 -370 0 -97 20 -158 72 -220 14 -16 42 -57 63 -90
21 -33 73 -108 116 -167 l78 -107 -9 -88 c-28 -258 2 -517 83 -738 14 -38 24
-71 22 -74 -9 -8 -192 185 -230 244 -39 59 -95 198 -95 236 0 12 -7 19 -20 19
-24 0 -24 -9 -5 -83 28 -107 93 -216 191 -318 25 -27 44 -57 44 -69 0 -26 -57
-201 -70 -214 -8 -8 -94 17 -113 34 -10 9 -54 239 -62 325 -13 159 -16 175
-31 175 -27 0 -11 -215 30 -410 8 -36 12 -67 10 -69 -2 -2 -63 17 -136 42
-159 54 -277 91 -338 107 -25 6 -51 13 -58 15 -8 3 8 22 40 48 95 78 360 451
362 510 2 42 -24 26 -54 -33 -34 -68 -112 -184 -201 -300 -61 -81 -169 -191
-169 -174 0 6 9 37 21 70 53 153 71 254 75 414 l3 155 51 58 c32 35 50 63 46
72 -3 8 -9 15 -14 15 -11 0 -144 -154 -195 -226 -23 -32 -56 -85 -74 -118 -18
-34 -33 -54 -33 -46 0 24 61 145 124 247 76 123 167 305 169 340 4 51 -24 30
-54 -42 l-29 -70 -81 -38 c-44 -21 -108 -45 -142 -53 -34 -8 -70 -18 -79 -20
-10 -3 -18 -1 -18 4 0 6 10 12 23 16 13 3 51 24 86 46 188 122 311 316 339
535 l7 59 43 -66 c52 -80 68 -96 84 -80 7 7 -3 29 -35 74 -175 245 -244 568
-182 858 9 43 10 68 4 75 -15 15 -36 -18 -44 -70 -3 -25 -10 -47 -15 -50 -32
-20 -117 -215 -134 -309 -20 -107 -60 124 -53 306 7 202 60 362 171 521 33 47
45 72 38 79 -6 6 -16 7 -22 3 -16 -10 -103 -144 -135 -208 -14 -29 -46 -83
-71 -122 -24 -38 -52 -91 -62 -117 -21 -59 -34 -62 -26 -5 35 234 118 409 263
552 58 56 75 85 50 85 -31 0 -164 -140 -214 -227 -19 -33 -20 -33 -95 -33 -42
0 -80 3 -83 6 -4 4 10 16 31 27 154 83 358 318 427 495 l29 74 78 39 c71 36
89 54 71 72 -3 4 -38 -11 -77 -32 -93 -51 -201 -87 -305 -102 -88 -12 -228 -6
-245 11 -7 7 -3 10 11 10 31 0 172 54 235 89 178 102 269 233 282 406 l4 59
56 30 c53 28 74 56 41 56 -39 0 -161 -77 -244 -155 l-54 -50 22 40 c59 106
200 246 301 298 84 43 89 47 84 62 -5 12 -40 15 -197 17 l-191 3 86 42 c111
55 183 110 285 217 100 105 155 141 248 161 74 17 215 17 263 0 37 -12 27 18
-15 48 -44 31 -225 208 -219 214 2 3 17 -2 33 -10 110 -57 390 -124 533 -127
88 -2 87 -2 94 16 4 10 -13 36 -52 77 -68 73 -152 172 -152 180 0 3 19 -5 43
-18 83 -45 144 -58 272 -59 231 -1 510 13 514 25 2 7 -40 53 -93 103 -53 50
-96 94 -96 97 0 5 45 -4 202 -41 86 -21 200 -75 318 -151 77 -49 110 -60 110
-36 0 7 -29 57 -65 110 -36 54 -65 100 -65 103 0 3 17 -8 38 -24 59 -46 113
-70 220 -95 l100 -24 88 -92 c97 -102 121 -120 130 -97 4 10 -25 45 -84 104
-68 68 -96 104 -121 158 -18 38 -37 77 -42 86 -21 41 -5 35 59 -21 37 -33 123
-100 192 -150 207 -150 396 -311 422 -358 21 -39 22 -46 11 -130 -11 -87 -5
-119 18 -96 15 15 29 124 29 235 0 106 -17 209 -50 307 -11 35 -19 65 -17 67
7 7 73 -98 116 -183 56 -112 83 -223 90 -373 5 -102 9 -125 21 -125 12 0 16
19 18 103 2 63 7 102 13 102 6 0 43 29 82 65 183 167 473 319 742 390 l90 24
-35 -27 c-132 -103 -289 -266 -363 -376 -20 -30 -52 -53 -139 -100 -159 -85
-155 -83 -141 -97 9 -9 47 6 170 69 165 84 349 161 493 207 98 31 291 78 297
72 6 -7 -153 -82 -552 -262 -54 -24 -309 -133 -360 -153 -199 -80 -220 -91
-220 -109 0 -11 6 -17 15 -15 23 5 470 193 673 283 437 194 669 324 851 478
133 112 298 288 359 384 35 54 27 20 -22 -89z m-1151 45 c-52 -27 -136 -82
-187 -120 -112 -85 -300 -279 -399 -412 -40 -54 -97 -119 -126 -145 -29 -26
-60 -55 -69 -64 -9 -10 -19 -18 -22 -18 -3 0 -10 23 -16 51 l-11 51 57 72 c31
39 120 135 198 212 196 198 350 308 539 385 129 53 147 47 36 -12z m-392
-1953 c30 -16 94 -81 136 -138 15 -20 51 -104 81 -186 30 -82 68 -181 85 -218
17 -38 45 -102 61 -142 60 -149 141 -290 221 -386 45 -55 8 -33 -72 41 -80 74
-139 158 -196 277 -26 56 -51 96 -60 96 -8 0 -14 -7 -14 -16 0 -31 89 -200
144 -274 36 -48 52 -78 46 -84 -6 -6 -10 -57 -10 -116 0 -279 -68 -578 -189
-835 -28 -59 -53 -106 -55 -104 -3 2 6 72 19 154 37 238 49 402 49 665 0 347
-35 693 -85 856 -31 101 -79 194 -125 241 -38 40 -44 43 -93 43 -56 0 -94 -15
-152 -61 -20 -16 -40 -29 -43 -29 -3 0 -6 16 -6 37 0 31 8 44 63 96 57 55 123
96 155 97 7 0 25 -6 40 -14z m-3 -180 c55 -36 129 -212 159 -377 16 -90 46
-395 46 -470 l0 -46 -42 -7 c-99 -16 -189 -78 -333 -228 -110 -114 -143 -139
-220 -167 -76 -28 -100 -51 -125 -117 -11 -30 -49 -101 -85 -159 -36 -58 -65
-110 -65 -115 0 -26 23 -16 50 22 26 36 40 45 83 55 73 17 86 16 52 -6 -49
-30 -98 -88 -92 -106 5 -12 10 -13 25 -4 15 10 24 6 53 -21 19 -17 45 -37 59
-43 24 -11 23 -12 -18 -15 -34 -2 -43 -7 -40 -20 2 -12 15 -18 40 -20 26 -2
37 -8 41 -24 7 -25 31 -19 35 10 4 28 37 29 54 2 15 -23 38 -27 38 -6 0 28 22
28 44 1 25 -31 51 -27 41 6 -7 22 6 24 36 7 16 -10 23 -10 26 -2 2 7 26 39 53
73 27 33 57 74 66 91 20 33 27 36 43 17 8 -10 -1 -67 -35 -223 -111 -514 -161
-679 -352 -1179 -117 -308 -159 -432 -206 -620 -61 -242 -123 -324 -268 -356
-81 -18 -231 -15 -333 6 -316 66 -825 357 -1268 723 -130 107 -203 220 -250
382 -14 47 -41 183 -61 303 -21 120 -40 225 -43 233 -4 11 -25 14 -92 14 -178
0 -182 4 -460 407 -88 127 -95 146 -94 237 1 98 30 227 74 321 17 39 33 71 34
73 1 1 25 -13 53 -32 28 -19 57 -36 64 -38 8 -3 2 -14 -18 -31 -37 -32 -94
-116 -94 -140 0 -35 28 -15 68 48 52 82 87 100 153 81 39 -12 44 -17 44 -42 0
-26 -4 -29 -42 -35 -72 -9 -169 -90 -128 -105 10 -4 27 3 43 18 34 32 65 48
91 48 20 0 21 -2 7 -33 -7 -18 -25 -52 -40 -75 -45 -72 -30 -100 34 -67 l30
16 0 -43 c0 -47 27 -114 67 -166 14 -18 23 -35 22 -36 -30 -26 -89 -33 -132
-17 -23 9 -26 17 -32 96 -7 77 -17 107 -32 92 -2 -3 -5 -35 -4 -71 0 -36 -4
-66 -9 -66 -23 0 -103 126 -121 193 -12 45 -39 51 -39 9 0 -41 54 -143 106
-201 54 -60 131 -101 190 -101 38 0 45 -4 64 -35 22 -36 137 -145 152 -145 24
0 17 32 -13 57 -43 36 -86 81 -110 115 -19 26 -19 27 2 41 19 14 20 19 10 50
-7 20 -19 41 -28 49 -40 33 -65 139 -45 191 6 14 112 87 127 87 2 0 20 -51 39
-112 42 -134 120 -301 139 -296 8 3 14 51 18 164 4 87 12 186 19 219 18 89 60
218 77 235 13 13 17 12 36 -15 39 -53 158 -185 167 -185 22 0 20 26 -5 83 -40
88 -55 149 -62 259 -6 96 -6 97 25 145 34 52 86 113 96 113 3 0 6 -58 6 -129
0 -71 3 -136 6 -145 10 -25 33 -18 39 12 11 51 25 100 41 137 14 34 16 36 28
19 12 -15 17 -16 44 -5 46 19 177 11 226 -14 53 -27 65 -48 42 -74 -28 -31
-16 -46 37 -46 44 0 48 -3 141 -94 53 -51 96 -95 96 -97 0 -2 -23 -4 -50 -4
-60 0 -322 -39 -333 -49 -16 -16 5 -41 36 -41 29 0 30 -1 12 -20 -13 -15 -33
-20 -84 -22 -51 -2 -66 -6 -66 -18 0 -10 12 -16 40 -18 36 -3 51 -13 121 -81
45 -43 87 -92 95 -109 15 -34 36 -42 45 -17 8 19 24 20 24 1 0 -26 23 -30 41
-8 22 28 59 29 59 2 0 -11 7 -20 15 -20 8 0 19 9 25 20 6 11 20 20 30 20 16 0
20 -6 18 -32 -2 -24 1 -33 12 -33 8 0 18 15 24 33 l9 32 83 0 c68 0 84 3 84
15 0 8 -3 15 -7 15 -348 10 -420 14 -436 25 -10 7 -45 38 -78 69 -49 47 -58
60 -50 75 9 16 73 71 84 71 2 0 10 -21 18 -47 27 -96 129 -157 222 -132 74 19
112 60 141 152 4 12 16 17 42 17 39 0 126 -55 210 -132 41 -38 74 -49 74 -25
0 13 -62 69 -139 125 -45 32 -45 36 -1 32 28 -2 141 -57 219 -107 52 -34 53
-34 35 -55 -11 -11 -36 -29 -56 -39 -21 -11 -38 -24 -38 -30 0 -18 28 -21 57
-6 31 16 103 83 103 96 0 13 -31 37 -118 89 l-82 49 61 7 c34 3 99 6 144 6
122 0 126 14 26 84 -120 85 -234 141 -346 171 -55 15 -124 38 -152 52 -61 28
-143 100 -127 111 6 4 46 29 90 56 108 68 179 121 242 180 29 27 54 47 57 45
2 -3 -18 -40 -45 -82 -49 -76 -124 -159 -208 -227 -32 -26 -40 -39 -33 -49 8
-12 20 -10 77 14 191 81 373 274 434 461 15 45 25 32 34 -47 l7 -57 -67 -76
c-37 -42 -75 -81 -86 -87 -21 -12 -24 -49 -3 -49 19 0 58 18 128 58 32 19 60
32 61 30 2 -1 17 -41 34 -88 48 -134 70 -180 87 -180 18 0 18 2 1 87 -8 37
-19 107 -26 155 l-12 86 77 74 c127 120 229 268 298 433 l17 40 -5 -106 c-9
-183 -55 -375 -132 -557 -26 -61 -33 -86 -25 -94 12 -12 15 -9 100 101 59 77
166 297 197 406 39 135 57 273 53 409 l-2 119 54 42 c85 65 132 75 185 41z
m958 -321 c299 -370 500 -840 563 -1321 8 -64 14 -120 12 -126 -2 -5 -20 50
-40 121 -112 390 -312 753 -581 1051 -22 25 -49 54 -58 65 -10 12 -30 65 -44
118 -32 124 -83 251 -140 349 -25 43 -45 81 -45 85 0 16 255 -247 333 -342z
m-1666 125 c-5 -142 -25 -245 -73 -370 -40 -108 -46 -107 -40 5 10 171 35 328
78 490 22 80 22 80 31 45 5 -19 7 -96 4 -170z m981 123 c124 -136 231 -292
320 -469 42 -83 53 -117 67 -206 9 -58 15 -122 13 -143 l-3 -37 -55 67 c-77
93 -134 188 -197 334 -30 69 -69 158 -86 196 -40 92 -116 305 -109 305 3 0 25
-21 50 -47z m-2046 -377 c-47 -114 -147 -291 -217 -384 -41 -54 -57 -68 -88
-75 -21 -5 -41 -7 -44 -3 -7 7 55 102 193 296 61 85 128 181 149 213 21 31 40
55 42 53 3 -2 -13 -47 -35 -100z m2706 -228 c123 -146 253 -340 333 -498 l33
-65 -1 -155 c-2 -275 -58 -524 -178 -785 -14 -32 -28 -56 -30 -53 -2 2 2 28
10 58 30 118 40 220 40 415 0 216 -8 282 -56 469 -37 147 -92 286 -168 431
-53 101 -59 117 -64 193 -4 46 -3 80 2 78 5 -3 40 -43 79 -88z m-2388 47 c0
-2 -25 -48 -56 -102 -61 -104 -181 -273 -196 -273 -5 0 -23 8 -41 17 -18 9
-49 21 -69 27 l-38 12 78 56 c89 64 302 248 302 260 0 4 5 8 10 8 6 0 10 -2
10 -5z m-1758 -290 c64 -34 138 -61 223 -81 93 -22 277 -22 368 0 38 9 69 16
71 16 3 0 -4 -69 -10 -97 -3 -15 -21 -31 -52 -47 -137 -69 -342 -56 -491 31
-83 49 -176 150 -196 214 -8 23 -7 23 16 6 13 -9 45 -28 71 -42z m3715 29 c30
-30 121 -90 158 -104 24 -9 25 -12 25 -104 0 -110 -15 -266 -36 -386 -15 -85
-79 -322 -93 -348 -4 -8 -11 37 -14 100 -8 139 -30 262 -64 371 -14 45 -26
102 -26 127 -1 70 16 370 20 370 2 0 16 -12 30 -26z m-1417 -22 c0 -16 -17
-29 -65 -51 -5 -2 4 12 20 32 34 40 45 45 45 19z m1130 -90 c0 -62 -3 -71 -27
-94 -16 -14 -64 -45 -108 -68 -105 -56 -132 -77 -246 -191 -123 -123 -219
-180 -361 -213 l-27 -6 41 82 c22 46 46 94 53 108 9 18 35 34 91 55 74 28 86
38 226 175 158 156 253 220 324 220 l34 0 0 -68z m-2300 49 c0 -16 -101 -121
-116 -121 -19 0 -18 5 13 61 22 37 35 50 63 58 19 5 36 9 38 10 1 1 2 -3 2 -8z
m306 -63 c24 -12 44 -23 44 -26 0 -2 -28 -33 -62 -68 l-62 -64 -25 23 c-47 42
-59 48 -123 61 l-63 13 50 26 c28 14 64 35 80 47 37 26 95 21 161 -12z m-1576
-140 c197 -157 504 -193 709 -83 36 19 66 33 67 32 7 -6 -24 -118 -36 -132
-22 -26 -97 -66 -161 -86 -74 -23 -198 -25 -287 -4 -113 27 -246 107 -313 188
-33 40 -76 123 -84 162 l-7 30 34 -36 c18 -19 53 -52 78 -71z m3570 -9 c0 -18
-20 -77 -46 -131 -46 -102 -114 -293 -114 -322 0 -24 -8 -20 -57 25 l-44 41
-164 -4 -164 -3 46 23 c41 21 56 23 127 19 45 -3 96 -9 114 -12 26 -6 32 -4
32 9 0 20 -11 25 -100 40 l-71 12 108 105 c82 81 128 117 193 152 47 25 94 53
105 61 29 22 35 20 35 -15z m-3216 -19 c5 0 26 -59 26 -71 0 -13 -28 -11 -95
6 -79 20 -145 45 -145 54 0 9 64 38 95 44 11 2 42 -5 68 -15 26 -10 49 -18 51
-18z m1402 -11 c64 -68 110 -91 289 -144 102 -31 181 -67 275 -128 l64 -42
-69 -6 c-229 -21 -398 -3 -509 53 -58 29 -237 192 -235 214 0 7 125 76 150 82
3 1 18 -12 35 -29z m-1026 12 c0 -24 -184 -81 -261 -81 -40 0 -48 3 -53 23
-11 43 -9 46 32 35 47 -13 185 -4 237 15 22 9 41 16 43 16 1 1 2 -3 2 -8z
m145 -240 c9 -35 14 -66 11 -68 -2 -2 -24 24 -49 57 l-45 61 26 52 27 51 8
-44 c4 -25 14 -74 22 -109z m-200 -102 c-31 -103 -55 -254 -55 -343 0 -68 -7
-65 -38 14 -26 65 -112 340 -112 356 0 6 19 14 43 18 58 9 165 45 174 59 18
30 12 -21 -12 -104z m-236 -15 c7 -30 11 -57 9 -58 -8 -7 -180 -106 -183 -106
-2 0 9 27 26 60 16 32 34 82 41 110 l11 50 42 0 42 0 12 -56z m1383 28 c9 -9
-22 -12 -132 -12 -150 0 -178 11 -57 21 96 9 175 5 189 -9z m-61 -52 l58 0
-10 -32 c-19 -68 -96 -116 -164 -104 -43 8 -94 50 -111 93 -24 56 -23 57 78
49 50 -3 117 -6 149 -6z m1392 -81 c-37 -82 -117 -131 -191 -114 -39 8 -107
67 -100 86 3 8 30 28 59 44 43 23 70 30 144 35 49 3 94 3 98 -1 5 -4 0 -26
-10 -50z m159 32 c16 -15 14 -21 -42 -97 l-59 -81 -78 -6 c-79 -6 -101 -3 -67
9 54 20 120 98 135 161 l11 43 42 -6 c22 -4 49 -14 58 -23z m-3042 -766 c20
-24 114 -47 186 -44 49 2 68 -1 74 -12 4 -8 22 -100 39 -205 73 -444 128 -550
396 -764 63 -51 115 -97 115 -104 0 -6 46 -67 101 -136 194 -239 395 -514 614
-839 72 -107 135 -194 140 -193 6 0 11 7 13 15 7 34 -446 679 -701 997 -73 90
-92 126 -44 83 12 -11 63 -47 112 -80 371 -246 737 -412 949 -429 103 -8 100
-6 71 -64 -20 -39 -28 -76 -35 -158 -11 -124 -30 -179 -106 -302 -139 -228
-169 -358 -130 -562 22 -115 109 -362 129 -366 24 -5 22 7 -28 155 -58 170
-75 253 -75 361 0 78 16 172 35 201 7 12 20 -7 185 -269 57 -91 138 -217 180
-280 42 -63 86 -133 98 -155 30 -55 51 -147 58 -252 8 -102 -5 -489 -15 -476
-4 4 -13 26 -20 48 -7 22 -49 116 -92 208 -44 93 -93 202 -110 243 -37 88 -93
149 -153 165 -28 8 -93 9 -202 5 l-161 -7 -65 148 c-177 398 -392 967 -472
1244 -18 66 -36 83 -96 99 -204 52 -598 206 -622 244 -4 6 -8 55 -8 109 l0 98
-172 83 c-95 46 -201 94 -236 107 -72 27 -70 18 -28 137 14 41 26 82 26 93 0
27 7 24 61 -21 88 -74 98 -51 45 99 -47 130 -74 238 -86 346 -17 154 -11 445
10 445 4 0 13 -7 20 -15z m-813 -312 c-3 -2 -26 -3 -51 -1 l-46 3 47 70 48 70
3 -69 c2 -37 1 -70 -1 -73z m-3 -51 c-1 -7 -2 -23 -2 -36 -2 -22 -7 -24 -74
-28 -40 -3 -74 -4 -76 -3 -2 2 5 19 14 38 16 33 21 36 68 40 64 4 71 3 70 -11z
m-214 -29 c0 -41 -10 -50 -65 -57 -149 -21 -369 -88 -490 -149 -54 -28 -118
-37 -135 -20 -24 23 236 147 405 192 65 17 245 57 278 60 4 1 7 -11 7 -26z
m200 -74 c0 -32 -80 -300 -95 -317 -1 -1 -74 15 -161 36 -87 22 -232 54 -321
72 -90 18 -163 36 -163 39 0 4 48 25 108 49 110 43 223 74 349 96 63 11 74 11
88 -3 15 -15 17 -14 31 4 11 15 31 21 82 26 37 3 70 7 75 7 4 1 7 -3 7 -9z
m-735 -219 c628 -110 1299 -322 1782 -562 l101 -50 8 -127 c8 -152 -2 -875
-16 -1055 l-10 -130 42 -55 c53 -71 147 -165 314 -315 84 -75 138 -131 148
-154 30 -69 46 -176 56 -392 12 -250 27 -349 82 -555 53 -201 55 -217 13 -107
-67 178 -137 473 -166 702 -36 290 -58 342 -174 417 -44 28 -113 78 -153 110
-40 32 -91 72 -112 88 -22 17 -39 34 -40 39 0 17 -127 231 -189 320 -160 228
-426 499 -638 650 -72 51 -72 51 -68 91 2 22 7 97 11 166 l6 126 -99 6 c-54 4
-122 7 -150 7 l-53 0 0 -42 c0 -24 -3 -60 -6 -80 l-7 -38 -26 19 c-60 43 -306
157 -466 217 -110 41 -346 110 -407 119 -75 11 -72 0 -76 244 -3 121 -2 235 2
254 8 44 70 117 100 117 12 0 98 -13 191 -30z m4399 -200 c396 -111 868 -337
1206 -576 58 -41 118 -85 134 -98 38 -31 56 -111 56 -251 0 -223 -49 -426
-243 -1000 -77 -228 -136 -386 -148 -400 -21 -22 -380 191 -532 317 l-28 23
50 130 c154 403 250 862 268 1280 3 80 7 145 9 145 2 0 94 -52 159 -91 73 -43
272 -179 311 -213 l38 -33 4 -95 c8 -188 -59 -531 -177 -899 -45 -139 -48
-159 -26 -159 10 0 30 49 65 158 131 406 203 819 171 974 -11 51 -17 60 -64
96 -236 177 -559 359 -882 497 -95 40 -170 66 -471 163 -47 16 -51 19 -43 40
11 28 14 28 143 -8z m1 -104 c230 -73 430 -153 631 -253 l96 -48 -5 -165 c-11
-316 -75 -686 -179 -1025 -34 -113 -116 -336 -128 -349 -11 -11 -28 0 -100 67
l-62 58 12 117 c17 157 16 350 -3 439 -20 91 -66 196 -98 221 -85 67 -331 223
-480 305 l-65 37 37 77 c21 44 49 129 64 193 40 173 106 370 125 370 8 0 78
-20 155 -44z m-4550 -338 c153 -37 312 -89 445 -145 108 -46 341 -162 373
-185 17 -12 17 -25 6 -203 -6 -105 -13 -192 -15 -194 -2 -2 -38 19 -81 46
-223 141 -497 268 -728 338 -49 15 -95 31 -101 36 -17 14 -84 280 -84 335 0
16 16 14 185 -28z m1102 -191 c2 -3 -5 -163 -17 -356 -11 -194 -20 -356 -20
-361 0 -5 -49 27 -110 71 -98 72 -109 83 -105 107 2 15 9 124 15 242 6 118 13
238 16 265 l5 50 106 -7 c58 -4 107 -9 110 -11z m1213 -119 c96 -39 340 -118
363 -118 27 0 20 -15 -20 -42 -21 -14 -50 -38 -65 -53 -34 -33 -36 -80 -12
-206 24 -125 14 -633 -14 -769 -17 -80 -54 -206 -64 -216 -5 -4 -308 274 -357
328 -94 103 -92 99 -81 250 6 73 13 311 17 530 l6 396 76 -35 c42 -19 110 -48
151 -65z m2007 -79 c127 -75 363 -232 363 -242 0 -5 -11 -22 -25 -39 -69 -82
-174 -337 -280 -680 -31 -101 -93 -293 -136 -428 -81 -247 -101 -330 -81 -330
6 0 15 7 20 16 13 23 18 10 41 -102 39 -193 56 -400 34 -398 -7 1 -40 2 -73 2
l-60 2 3 288 c3 391 -3 417 -145 629 -40 59 -140 214 -221 343 -82 129 -153
242 -159 251 -9 13 1 36 51 118 94 151 117 215 129 347 9 95 14 118 41 166
l31 55 66 6 c69 7 171 46 200 78 16 18 18 17 65 -7 27 -13 88 -47 136 -75z
m-4280 -8 c299 -98 621 -267 878 -460 129 -97 341 -281 323 -281 -3 0 -50 20
-104 44 -139 61 -356 133 -507 167 -199 45 -340 60 -542 58 l-180 -2 -8 44
c-13 68 3 469 19 469 2 0 56 -17 121 -39z m2765 -243 c114 -345 277 -775 391
-1030 8 -18 36 -79 61 -135 25 -56 46 -107 46 -113 0 -8 48 -9 168 -4 93 4
185 4 206 0 51 -10 97 -53 128 -123 15 -32 59 -128 99 -213 85 -183 140 -313
134 -319 -3 -2 -37 27 -77 65 -334 316 -805 656 -1248 899 -93 51 -120 71
-116 83 29 93 47 617 27 752 -22 140 -25 208 -10 227 17 19 110 82 124 82 6 1
36 -77 67 -171z m-1532 -2 c72 -58 324 -304 386 -376 339 -399 521 -864 485
-1242 -11 -116 -28 -176 -53 -192 -26 -16 -37 1 -54 80 -65 315 -263 696 -522
1004 -127 152 -378 400 -404 400 -11 0 -6 191 9 368 l6 72 36 -27 c20 -15 70
-54 111 -87z m-1419 -48 c0 -40 4 -97 8 -126 9 -63 13 -60 -110 -86 -51 -11
-93 -29 -128 -52 -48 -32 -60 -36 -136 -39 l-84 -4 18 47 c44 116 124 200 236
252 86 40 175 77 188 79 4 1 7 -32 8 -71z m4888 -35 c35 -99 43 -153 44 -303
0 -103 -9 -223 -31 -415 -43 -363 -42 -355 -53 -355 -5 0 -9 4 -9 8 0 4 -59
55 -130 112 -122 96 -190 160 -190 178 0 17 110 354 158 483 27 74 64 164 82
200 35 69 89 149 100 149 4 0 17 -26 29 -57z m1285 -388 c221 -283 348 -610
397 -1020 17 -139 14 -409 -5 -525 -18 -109 -47 -212 -61 -216 -6 -2 -21 12
-35 30 -14 18 -51 69 -84 111 -94 126 -118 202 -97 320 6 33 18 101 26 150 24
132 22 345 -3 465 -46 214 -128 365 -280 513 l-59 59 29 91 c15 51 33 110 39
132 l11 40 30 -35 c16 -19 58 -71 92 -115z m-6659 116 c-6 -4 -39 -14 -75 -21
-161 -32 -377 -126 -540 -235 -85 -57 -225 -171 -274 -224 -16 -17 -45 -36
-65 -42 -65 -21 -263 -109 -361 -161 -191 -102 -471 -289 -562 -376 -74 -71
-48 -21 42 80 460 514 1001 846 1555 952 181 35 301 47 280 27z m1527 -43 c42
-13 68 -27 68 -36 0 -8 -30 -45 -67 -83 l-68 -69 -45 11 c-25 6 -96 14 -159
18 l-114 6 114 57 c63 31 130 70 149 87 19 17 39 30 44 31 5 0 40 -10 78 -22z
m301 -123 c159 -72 177 -87 329 -279 238 -297 395 -606 473 -928 31 -128 50
-147 115 -113 40 21 70 129 70 259 1 56 2 59 16 41 31 -42 115 -219 189 -400
42 -104 100 -241 128 -303 42 -94 48 -115 36 -123 -24 -16 -221 -91 -289 -110
-206 -60 -484 -90 -665 -71 -108 11 -142 5 -119 -18 17 -17 254 -29 387 -20
240 18 494 83 671 172 22 11 42 16 47 11 28 -28 294 -621 385 -857 l53 -139
-67 -70 c-131 -137 -226 -217 -360 -304 -80 -51 -272 -153 -290 -153 -5 0 -16
33 -26 74 -67 286 -282 663 -520 915 -75 78 -211 193 -291 245 l-60 38 -36
147 c-105 427 -346 860 -653 1178 -171 177 -351 312 -513 385 -40 18 -73 35
-73 38 0 3 39 20 88 39 48 18 97 37 110 42 23 9 29 24 13 33 -13 8 -105 -21
-194 -62 l-77 -35 -76 17 c-41 9 -95 16 -119 16 -25 0 -45 3 -45 8 0 4 62 38
138 75 119 58 237 101 439 162 66 19 262 20 358 0 l70 -14 85 89 c69 73 89 88
108 84 13 -3 87 -34 165 -69z m-1696 -25 c74 -33 67 -92 -16 -126 -43 -18
-152 -18 -196 0 -46 19 -70 57 -55 86 30 56 182 79 267 40z m6400 -164 c37
-41 83 -99 101 -129 36 -60 103 -209 97 -215 -2 -2 -31 5 -64 17 -76 26 -216
51 -288 51 -40 0 -54 3 -50 13 2 6 28 85 58 175 29 89 59 162 65 162 7 0 43
-33 81 -74z m-892 -359 c54 -167 85 -285 120 -462 31 -153 71 -458 80 -600 3
-55 8 -115 11 -132 3 -20 1 -33 -6 -33 -5 0 -10 5 -10 10 0 21 -109 288 -179
440 -100 215 -252 493 -344 629 -20 30 -34 57 -32 60 6 5 -4 17 101 -115 49
-61 105 -139 124 -173 52 -91 55 -95 74 -88 16 6 16 9 0 39 -36 70 -167 258
-186 266 -13 6 -9 86 12 262 11 91 20 169 20 173 0 4 38 -24 85 -64 l85 -71
45 -141z m-603 75 c80 -168 142 -383 173 -597 16 -111 26 -428 13 -440 -3 -4
-39 5 -80 20 -40 15 -102 32 -138 39 l-65 12 -7 108 c-8 131 -31 279 -64 407
l-25 96 71 216 c39 119 74 217 78 217 4 0 24 -35 44 -78z m-1517 -120 c315
-187 664 -443 974 -717 l113 -100 -88 -7 c-143 -12 -234 -39 -285 -85 l-26
-24 -139 104 c-236 177 -502 348 -719 464 l-109 58 -12 85 c-14 102 -30 167
-51 199 -14 22 -13 30 12 107 l28 84 96 -52 c53 -28 146 -80 206 -116z m3005
72 c45 -8 113 -27 151 -41 76 -28 80 -35 95 -147 l7 -47 -49 28 c-113 66 -264
117 -386 130 -62 6 -65 10 -47 62 11 31 12 31 79 31 37 0 105 -7 150 -16z
m-659 -259 c75 -57 159 -117 186 -133 67 -40 192 -86 287 -107 l79 -18 -6
-236 c-11 -431 -74 -862 -198 -1351 -39 -154 -106 -391 -113 -398 -2 -2 -7 59
-11 135 -4 76 -11 179 -16 228 -6 50 -12 140 -15 200 -2 61 -9 220 -15 355
-17 408 -53 826 -100 1135 -17 113 -20 125 -35 125 -19 0 -18 -13 11 -240 46
-352 69 -638 89 -1100 6 -123 5 -121 -62 100 -50 163 -50 168 -61 365 -12 210
-39 447 -71 626 -25 138 -80 379 -91 402 -6 9 -6 17 -2 17 4 0 69 -47 144
-105z m1260 -112 c43 -47 143 -179 191 -253 311 -478 540 -1267 537 -1850 l0
-115 -39 150 c-36 142 -119 390 -173 520 -16 37 -35 66 -51 75 -26 15 -26 15
-26 155 -1 447 -154 861 -431 1160 -31 34 -37 49 -42 101 -4 33 -9 68 -13 77
-11 28 11 19 47 -20z m-3721 -141 c224 -126 434 -265 667 -439 l111 -84 -5
-39 c-12 -88 5 -117 191 -325 113 -127 215 -252 196 -240 -8 5 -51 37 -95 70
-318 243 -650 425 -1161 635 -17 7 -24 23 -34 77 -18 101 -29 236 -30 341 l0
93 23 -12 c12 -7 74 -41 137 -77z m3954 -19 c478 -344 842 -875 981 -1429 32
-130 55 -287 55 -388 l0 -79 -29 24 c-16 13 -55 46 -87 72 -83 68 -278 197
-352 232 -55 26 -63 33 -68 65 -99 597 -280 1087 -546 1483 -32 48 -56 87 -53
87 3 0 48 -30 99 -67z m-3084 -509 c-28 -36 -50 -69 -50 -75 0 -5 -5 -9 -10
-9 -10 0 -8 20 7 73 5 17 78 77 94 77 5 0 -14 -29 -41 -66z"/>
<path d="M7465 9590 c-12 -20 7 -30 60 -30 162 0 406 -82 565 -190 57 -39 142
-118 167 -157 17 -25 43 -31 43 -10 0 23 -54 90 -111 139 -129 110 -319 199
-506 237 -108 22 -208 27 -218 11z"/>
<path d="M7290 9376 c0 -7 35 -35 77 -62 42 -27 130 -100 195 -163 94 -90 121
-112 131 -102 9 10 -16 40 -119 139 -152 148 -284 236 -284 188z"/>
<path d="M8983 9316 c-170 -54 -433 -272 -433 -360 0 -34 19 -21 58 39 68 106
284 258 420 294 25 7 42 18 42 26 0 18 -30 18 -87 1z"/>
<path d="M6927 8996 c-4 -11 9 -19 51 -31 81 -24 128 -51 186 -105 45 -42 76
-54 76 -30 0 14 -79 89 -122 116 -43 28 -140 64 -168 64 -10 0 -20 -6 -23 -14z"/>
<path d="M8145 6827 c-27 -29 -66 -65 -85 -79 -28 -21 -32 -29 -23 -39 10 -10
20 -7 52 16 53 36 133 123 129 137 -8 24 -24 16 -73 -35z"/>
<path d="M8299 6533 c-9 -257 61 -599 167 -815 34 -69 28 -97 -22 -122 -81
-38 -253 -194 -239 -216 11 -18 24 -11 62 31 43 47 127 113 195 152 83 48 86
72 22 209 -77 170 -138 441 -150 674 -5 94 -10 124 -21 124 -8 0 -13 -13 -14
-37z"/>
<path d="M8057 5553 c-18 -17 -5 -33 26 -33 18 0 43 -7 55 -16 26 -18 54 -12
46 10 -11 29 -107 59 -127 39z"/>
<path d="M8030 5457 c0 -7 14 -23 31 -36 16 -12 35 -33 41 -47 13 -28 33 -31
42 -8 4 11 -8 31 -38 60 -43 43 -76 57 -76 31z"/>
<path d="M8145 5340 c-4 -7 -2 -17 4 -23 12 -12 81 2 84 18 3 14 -80 19 -88 5z"/>
<path d="M8350 5180 c-13 -26 -35 -48 -63 -62 -39 -22 -54 -23 -237 -23 -107
-1 -242 -7 -299 -14 -149 -19 -219 -12 -319 34 -56 26 -86 35 -93 28 -16 -16
12 -37 97 -73 98 -41 174 -46 344 -26 84 10 197 15 300 13 177 -2 214 5 269
56 27 25 54 83 46 97 -12 19 -25 10 -45 -30z"/>
<path d="M8210 4914 c-25 -29 -56 -38 -160 -45 -58 -4 -139 -10 -180 -14 -68
-7 -81 -5 -134 19 -70 31 -68 31 -64 5 2 -16 20 -28 68 -46 36 -14 81 -34 101
-44 44 -23 89 -25 89 -5 0 8 -8 17 -17 22 -27 11 26 21 116 23 l74 1 -22 -23
c-18 -20 -19 -26 -8 -35 11 -9 21 -4 48 24 19 20 51 44 71 55 39 20 63 52 53
69 -9 14 -21 12 -35 -6z"/>
<path d="M7184 6705 c-9 -21 3 -45 21 -45 10 0 15 10 15 30 0 32 -26 43 -36
15z"/>
<path d="M8542 6625 c2 -14 8 -26 13 -26 6 0 11 12 13 26 2 18 -1 25 -13 25
-12 0 -15 -7 -13 -25z"/>
<path d="M5897 5813 c-12 -19 34 -447 74 -688 23 -140 34 -172 52 -157 10 9 7
44 -15 174 -15 90 -36 251 -48 358 -32 297 -34 313 -47 317 -6 2 -13 0 -16 -4z"/>
<path d="M4075 5140 c-4 -6 -3 -15 1 -20 5 -5 90 -25 189 -45 519 -104 1223
-311 1660 -489 l110 -44 8 -89 c4 -48 7 -303 5 -566 -3 -432 -1 -477 13 -477
23 0 29 121 28 575 -1 446 -7 572 -29 585 -55 34 -601 232 -800 290 -312 90
-408 117 -560 155 -194 49 -410 97 -510 115 -36 6 -75 14 -86 16 -12 3 -25 0
-29 -6z"/>
<path d="M9632 4200 c-69 -42 -90 -120 -51 -190 26 -47 66 -70 119 -70 83 0
140 56 140 138 0 55 -23 94 -70 121 -47 26 -96 27 -138 1z m139 -49 c64 -65
20 -171 -71 -171 -33 0 -48 6 -71 29 -64 65 -20 171 71 171 33 0 48 -6 71 -29z"/>
<path d="M9488 3419 c-117 -61 -92 -226 38 -253 45 -10 109 19 134 59 32 51
27 116 -11 159 -26 31 -80 57 -114 56 -5 -1 -27 -10 -47 -21z m121 -43 c8 -6
20 -25 27 -43 32 -76 -48 -155 -125 -124 -31 13 -61 58 -61 91 0 33 31 78 60
89 28 11 78 4 99 -13z"/>
<path d="M5017 3273 c-14 -13 -5 -21 66 -56 92 -46 161 -97 264 -198 77 -75
103 -88 103 -54 0 15 -160 166 -230 216 -52 38 -166 99 -184 99 -7 0 -16 -3
-19 -7z"/>
<path d="M2605 2798 c-137 -15 -322 -57 -462 -103 -187 -63 -473 -208 -473
-241 0 -25 17 -23 63 6 246 156 561 264 872 300 119 13 373 13 491 -1 103 -12
138 -8 113 15 -33 31 -410 46 -604 24z"/>
<path d="M2658 1993 c-8 -10 -41 -58 -74 -108 -298 -445 -525 -965 -663 -1520
-43 -174 -64 -291 -57 -311 13 -33 33 7 50 101 108 572 373 1218 698 1703 79
119 94 152 69 152 -4 0 -15 -8 -23 -17z"/>
<path d="M10220 1750 c0 -5 15 -44 34 -87 60 -136 135 -432 136 -530 0 -10
-42 -13 -172 -14 -211 -1 -261 -7 -266 -33 -4 -17 1 -18 60 -12 68 6 140 8
288 7 l95 -1 57 -102 c175 -319 282 -599 362 -950 4 -19 13 -28 26 -28 23 0
24 -8 -22 170 -79 304 -236 684 -363 879 -17 26 -27 62 -35 131 -21 176 -73
371 -135 508 -21 44 -40 72 -49 72 -9 0 -16 -4 -16 -10z"/>
<path d="M8460 1183 c0 -12 39 -43 105 -86 57 -38 153 -108 214 -157 87 -71
112 -86 120 -76 9 11 -1 25 -46 63 -115 98 -359 273 -383 273 -5 0 -10 -8 -10
-17z"/>
<path d="M8605 717 c-61 -30 -104 -72 -88 -88 8 -8 22 -3 50 19 73 59 79 57
159 -65 39 -59 85 -130 102 -158 39 -65 172 -330 172 -344 0 -6 9 -11 20 -11
11 0 20 4 20 10 0 10 -46 114 -81 182 -11 21 -16 38 -12 38 14 0 119 -157 154
-229 27 -56 39 -71 57 -71 12 0 22 2 22 3 0 9 -104 194 -130 232 -41 59 -128
153 -148 159 -9 4 -28 25 -41 48 -13 24 -54 88 -90 143 -36 55 -68 104 -70
109 -8 18 94 -5 131 -29 44 -30 71 -32 66 -7 -6 31 -103 74 -177 79 -55 3 -74
0 -116 -20z"/>
</g>
</svg>
