<?xml version="1.0" standalone="no"?>
<!DOCTYPE svg PUBLIC "-//W3C//DTD SVG 20010904//EN"
 "http://www.w3.org/TR/2001/REC-SVG-20010904/DTD/svg10.dtd">
<svg version="1.0" xmlns="http://www.w3.org/2000/svg"
 width="1452.000000pt" height="1880.000000pt" viewBox="0 0 1452.000000 1880.000000"
 preserveAspectRatio="xMidYMid meet">

<g transform="translate(0.000000,1880.000000) scale(0.100000,-0.100000)"
fill="#000000" stroke="none">
<path d="M3501 17574 c-27 -19 -26 -39 12 -179 39 -142 49 -278 52 -715 2
-432 9 -508 60 -725 73 -308 202 -616 347 -831 37 -56 68 -105 68 -110 0 -5
-57 -61 -126 -124 -69 -63 -141 -139 -160 -168 -19 -29 -34 -54 -34 -56 0 -2
-22 -41 -48 -87 l-48 -84 -65 -7 c-78 -8 -158 -38 -220 -84 -55 -40 -149 -139
-187 -197 l-26 -39 23 -19 c13 -10 27 -16 33 -13 17 11 268 41 268 32 0 -4
-24 -23 -52 -42 -61 -39 -167 -146 -192 -194 -9 -17 -19 -32 -23 -32 -3 0 -27
13 -52 29 -95 61 -161 85 -236 85 -81 1 -115 -14 -176 -75 -21 -21 -41 -39
-44 -39 -2 0 -24 13 -47 30 -24 16 -74 37 -112 47 -183 44 -382 -62 -472 -252
-20 -41 -39 -96 -42 -121 l-5 -45 -74 7 c-181 17 -323 -89 -384 -285 -20 -63
-24 -96 -23 -196 1 -114 11 -167 49 -257 5 -13 -4 -22 -42 -41 -69 -35 -146
-120 -169 -187 -29 -84 -25 -213 10 -310 67 -187 212 -366 397 -490 184 -125
302 -226 359 -310 76 -112 147 -288 199 -495 39 -156 94 -300 186 -494 51
-108 107 -239 123 -291 32 -101 62 -274 62 -358 0 -81 39 -92 85 -25 l23 35
-5 -175 c-5 -141 -2 -198 12 -289 10 -62 22 -121 27 -132 9 -17 11 -16 37 8
15 14 30 26 33 26 3 0 9 -48 12 -107 11 -170 57 -381 89 -410 17 -16 19 -15
41 12 12 15 26 24 29 18 3 -5 11 -49 17 -97 13 -107 45 -194 104 -286 37 -57
50 -70 71 -70 21 0 29 8 41 38 24 62 46 102 54 97 4 -3 13 -26 19 -51 8 -30
25 -60 47 -82 35 -35 40 -36 101 -17 18 6 38 -9 118 -91 53 -55 113 -118 133
-142 l35 -43 -21 -45 c-44 -90 -134 -342 -163 -454 -38 -148 -47 -332 -29
-639 7 -122 10 -224 8 -226 -3 -3 -27 2 -54 10 -191 58 -370 85 -579 85 -199
0 -313 -21 -431 -79 -276 -137 -434 -472 -434 -921 0 -302 109 -767 217 -923
l26 -38 -35 -37 c-20 -20 -64 -80 -99 -132 -236 -355 -292 -698 -157 -953 36
-67 152 -181 219 -214 65 -32 154 -53 230 -53 74 0 69 2 300 -128 558 -314
1334 -611 1705 -653 219 -25 445 22 591 122 188 129 313 335 379 624 26 114
28 133 28 378 1 224 3 256 16 251 513 -202 830 -293 1235 -356 132 -20 186
-23 440 -22 213 0 328 5 435 18 357 43 596 87 738 138 102 35 312 134 368 172
21 14 43 26 47 26 5 0 6 -24 3 -52 -54 -441 3 -789 170 -1039 131 -194 349
-299 623 -299 111 0 339 45 536 106 127 40 481 171 523 194 10 5 73 35 142 66
230 103 467 228 665 349 61 37 79 43 140 47 169 12 313 91 420 233 77 102 105
183 113 319 8 151 -18 263 -103 456 -42 95 -125 233 -186 310 -37 47 -39 53
-25 68 40 45 99 221 140 418 71 340 82 667 30 909 -15 69 -22 90 -64 195 -50
122 -153 247 -260 315 -116 73 -312 112 -504 100 l-101 -6 229 227 c215 213
304 294 521 474 197 164 319 296 415 450 151 241 248 534 295 898 16 121 38
588 29 604 -10 16 17 283 37 363 33 130 109 276 179 340 82 75 189 202 211
250 25 55 25 135 -1 168 -11 14 -46 38 -78 54 -51 25 -67 28 -162 28 -99 0
-109 -2 -170 -32 -186 -93 -426 -434 -507 -722 -27 -95 -27 -100 -28 -411 -1
-277 -4 -331 -23 -445 -28 -159 -81 -368 -121 -468 -45 -113 -132 -286 -158
-314 -6 -7 -15 -22 -18 -33 -3 -11 -11 -20 -16 -20 -5 0 -9 -6 -9 -13 0 -7 -8
-22 -17 -33 -10 -10 -36 -42 -58 -69 -78 -97 -255 -262 -367 -341 -62 -44
-178 -121 -258 -169 -238 -146 -423 -292 -550 -435 -36 -40 -80 -89 -98 -109
l-33 -36 5 35 c3 19 9 125 12 235 9 272 -5 379 -96 715 -8 32 -6 38 24 70 94
99 203 290 256 450 22 63 42 103 60 120 15 14 70 111 122 215 111 222 134 265
155 285 13 13 16 12 31 -8 42 -59 68 -83 82 -78 19 8 93 117 116 171 57 134
77 330 50 485 -9 52 -13 96 -9 98 45 15 59 32 85 102 52 138 69 240 93 535 39
480 78 578 400 998 88 115 154 224 195 324 17 40 44 108 62 150 58 140 125
189 346 247 70 19 152 44 182 56 254 100 347 391 211 658 -11 22 -46 68 -77
101 l-56 61 26 30 c29 35 54 110 63 186 11 100 -54 228 -149 293 -91 63 -222
92 -324 74 l-52 -10 -5 57 c-6 69 -44 167 -83 213 -96 114 -295 157 -424 92
-27 -14 -51 -25 -54 -25 -2 0 -14 19 -26 43 -28 55 -85 113 -134 139 -32 17
-51 19 -98 14 -105 -11 -214 -85 -336 -229 -43 -49 -94 -108 -114 -131 l-37
-41 -10 25 c-5 14 -19 39 -30 55 -12 17 -21 33 -21 37 0 4 25 15 55 24 57 16
99 49 88 68 -43 75 -208 301 -306 419 -38 45 -39 48 -23 70 146 199 285 464
367 697 160 458 225 1020 194 1695 -14 295 -32 568 -40 593 -7 19 -32 15 -186
-32 -706 -216 -1152 -448 -1694 -882 l-90 -72 -91 44 c-112 54 -253 100 -363
119 -101 18 -284 20 -346 3 -24 -7 -48 -9 -51 -5 -14 14 22 63 114 155 89 89
106 117 79 127 -17 7 -233 -49 -307 -79 -57 -23 -60 -24 -60 -6 0 11 27 51 60
91 94 112 79 129 -68 79 -92 -32 -371 -148 -441 -185 -18 -9 -35 -15 -37 -12
-6 6 23 129 47 200 15 46 17 62 8 73 -6 8 -16 14 -21 14 -5 0 -67 -40 -136
-89 -121 -85 -256 -161 -266 -150 -3 3 4 40 16 83 16 59 18 80 9 89 -17 17
-40 0 -79 -59 -19 -27 -62 -79 -96 -116 l-63 -68 -69 20 c-38 11 -76 28 -84
38 -12 14 -40 22 -110 30 -480 58 -711 61 -857 11 -31 -10 -90 -37 -130 -59
-41 -22 -80 -40 -86 -40 -7 0 -27 32 -46 72 -26 56 -53 91 -125 163 -108 107
-172 152 -326 227 -213 104 -468 180 -950 283 -322 69 -558 134 -690 189 -8 3
-26 -1 -39 -10z m254 -156 c66 -19 197 -52 290 -72 554 -122 645 -145 865
-221 323 -113 530 -254 637 -436 57 -96 56 -99 -34 -162 -67 -47 -272 -167
-286 -167 -3 0 -24 26 -48 58 -60 80 -57 76 -129 136 -155 129 -383 233 -720
330 -30 9 -141 42 -247 74 -198 61 -212 62 -234 21 -9 -18 -3 -29 48 -82 137
-143 181 -291 203 -680 25 -432 80 -666 191 -814 l39 -52 -37 -48 c-81 -107
-167 -203 -182 -203 -29 1 -166 233 -250 424 -102 231 -195 580 -217 811 -4
44 -8 258 -9 475 -2 394 -12 538 -45 625 -10 26 -9 27 17 22 16 -2 82 -20 148
-39z m7249 -190 c8 -34 24 -301 37 -600 33 -748 -71 -1368 -311 -1863 -67
-138 -213 -375 -231 -375 -23 0 -259 412 -259 452 0 7 18 24 40 38 80 50 179
182 254 342 152 322 225 727 240 1336 4 166 3 194 -10 199 -24 9 -179 -47
-324 -118 -223 -109 -490 -302 -763 -552 l-118 -108 -80 76 c-100 93 -144 129
-236 193 l-73 50 45 41 c55 51 276 215 415 308 355 237 785 431 1295 583 78
23 74 23 79 -2z m-6809 -399 c378 -110 615 -207 745 -307 80 -60 173 -158 167
-175 -2 -6 -25 -13 -50 -15 -36 -2 -51 -9 -62 -26 -14 -21 -13 -28 11 -80 17
-38 23 -61 16 -68 -10 -10 -35 -17 -157 -43 -110 -24 -107 -25 -150 63 -66
133 -158 258 -308 417 l-76 80 -25 -30 c-14 -16 -25 -34 -26 -39 0 -5 33 -45
73 -90 109 -120 203 -241 248 -316 48 -81 89 -184 89 -223 0 -27 -2 -28 -32
-22 -18 4 -44 14 -56 22 -29 18 -119 155 -192 292 -29 55 -59 102 -66 105 -21
8 -54 -24 -54 -51 0 -30 78 -179 156 -300 97 -150 107 -250 40 -402 -37 -86
-92 -181 -106 -181 -11 0 -68 96 -99 169 -55 130 -80 279 -102 621 -20 313
-58 506 -120 607 -12 18 -17 33 -12 33 4 0 71 -18 148 -41z m3351 -31 c-16
-54 -45 -175 -48 -198 -2 -18 3 -28 21 -35 26 -11 26 25 1 -315 -44 -581 -46
-595 -141 -968 -28 -109 -67 -299 -89 -440 -22 -136 -45 -265 -51 -287 -16
-57 -48 -117 -59 -110 -33 20 -114 214 -165 395 -68 240 -125 698 -125 995 0
201 30 492 65 620 7 28 16 62 19 76 4 19 14 28 35 32 18 4 43 23 67 52 l38 47
17 -23 c17 -22 20 -23 66 -11 68 18 175 74 263 137 41 30 79 54 84 54 4 1 5
-9 2 -21z m483 -48 c-8 -10 -36 -50 -62 -88 -72 -103 -53 -124 68 -74 106 44
195 73 215 70 19 -3 16 -9 -28 -69 -26 -37 -61 -91 -77 -122 -41 -79 -31 -87
73 -59 44 12 127 25 184 28 102 7 105 6 121 -17 43 -60 12 -184 -91 -367 -74
-131 -129 -243 -143 -292 -9 -31 -13 -128 -14 -315 -1 -240 -4 -280 -23 -365
-37 -157 -71 -236 -129 -301 -70 -77 -117 -82 -181 -20 -57 55 -89 131 -101
237 -14 129 -3 246 59 624 40 241 43 293 31 465 -17 224 -38 347 -82 477 -21
64 -39 119 -39 122 0 2 17 10 38 17 20 7 53 20 72 29 62 30 85 39 104 39 16 1
17 -1 5 -19z m-1969 -65 c0 -1 -6 -18 -14 -37 -24 -57 -48 -216 -50 -323 0
-55 5 -192 13 -304 16 -217 12 -320 -24 -626 -23 -190 -16 -429 15 -535 30
-105 84 -202 147 -265 55 -55 147 -115 176 -115 25 0 56 53 92 160 24 73 48
121 86 172 69 95 96 158 110 252 12 90 9 124 -33 331 -50 248 -34 356 102 676
96 226 123 304 147 429 16 81 22 95 39 98 40 6 46 -19 24 -104 -61 -235 -65
-282 -64 -679 0 -401 17 -607 68 -850 65 -306 169 -560 246 -604 23 -12 30
-12 63 4 78 37 111 144 182 585 29 182 41 232 90 395 66 217 90 397 125 920
11 165 20 308 20 317 0 20 72 61 93 52 26 -10 78 -147 105 -279 37 -177 46
-490 18 -655 -9 -58 -26 -159 -37 -225 -63 -382 -45 -659 49 -758 35 -37 98
-73 142 -81 51 -10 131 33 182 98 136 171 221 552 189 846 -15 141 -6 173 128
435 109 214 131 274 131 366 0 49 0 49 28 43 147 -36 359 -128 386 -169 11
-17 25 -25 45 -25 54 0 285 -183 448 -354 232 -244 360 -456 577 -954 164
-376 188 -415 483 -808 95 -127 173 -237 173 -246 0 -16 -30 -31 -85 -43 -30
-6 -75 -41 -75 -57 0 -5 24 -32 53 -61 28 -29 60 -68 70 -88 l19 -36 -84 -104
c-114 -142 -198 -290 -273 -479 -34 -86 -163 -458 -186 -537 -14 -45 -25 -48
-67 -20 -227 149 -472 244 -777 298 -151 27 -508 37 -676 20 -347 -37 -683
-126 -944 -253 -84 -41 -118 -68 -102 -84 3 -4 37 8 74 26 394 189 889 293
1313 275 330 -13 669 -97 923 -229 107 -56 197 -113 202 -128 9 -25 -144 -378
-163 -378 -4 0 -20 9 -37 21 -51 35 -354 182 -467 227 -320 125 -607 203 -861
233 -114 13 -510 7 -572 -10 -22 -5 -71 -18 -110 -27 -86 -20 -226 -72 -256
-95 -20 -15 -22 -20 -11 -43 16 -36 45 -33 79 9 28 35 102 70 161 77 24 3 27
0 24 -23 -3 -24 2 -28 42 -38 82 -20 47 -64 -59 -76 -324 -34 -355 -42 -377
-90 -27 -59 27 -76 62 -20 19 30 27 35 61 35 34 0 41 -4 50 -27 l11 -28 21 27
c27 33 84 58 132 58 43 0 44 -11 5 -43 -118 -100 -264 -138 -426 -112 -142 23
-212 56 -348 165 -70 57 -77 65 -70 89 4 14 10 66 13 116 l6 89 35 7 c19 4 40
15 45 24 27 44 32 47 91 50 83 4 127 25 195 97 68 69 67 59 22 203 -67 213
-131 273 -327 306 -60 10 -91 10 -157 0 -198 -30 -301 -125 -353 -328 -21 -82
-20 -121 7 -168 27 -49 76 -75 139 -75 42 0 48 -3 66 -32 28 -44 70 -82 110
-98 l32 -12 0 -79 c0 -165 -73 -261 -235 -306 -82 -23 -288 -28 -367 -9 -110
26 -217 72 -308 134 -113 76 -100 97 33 58 52 -15 59 -21 73 -56 9 -21 22 -41
30 -44 7 -3 34 5 59 17 80 39 55 63 -128 124 -42 14 -48 19 -42 37 4 12 7 29
8 39 2 22 29 22 137 1 87 -16 110 -14 110 10 0 17 -9 20 -110 40 -268 53 -741
68 -1005 33 -302 -41 -570 -108 -787 -198 -40 -16 -77 -31 -81 -32 -5 -1 -21
32 -36 73 -15 41 -51 122 -80 179 -28 57 -51 105 -49 106 2 2 68 19 148 39
329 80 647 113 994 103 364 -11 610 -54 951 -166 149 -48 183 -51 159 -13 -17
27 -97 54 -367 126 -492 131 -1059 138 -1627 20 -68 -14 -160 -36 -203 -49
l-78 -22 -24 36 c-12 20 -53 86 -91 146 -61 98 -104 163 -224 340 -19 28 -75
104 -125 169 -49 65 -97 128 -105 140 -8 12 -33 42 -56 67 -64 70 -68 82 -44
126 11 21 40 57 65 79 54 50 57 70 13 79 -18 4 -75 20 -127 36 -51 16 -105 29
-120 29 -61 1 -60 16 9 85 74 76 162 132 267 170 82 31 113 57 97 83 -18 28
-174 37 -314 19 -63 -8 -117 -13 -119 -11 -8 8 63 74 122 113 65 44 120 57
198 47 45 -6 52 -4 74 20 14 15 25 30 25 35 0 4 26 52 58 106 31 54 64 111 72
127 8 16 40 52 70 80 30 28 88 83 130 122 41 40 85 75 98 79 12 3 31 24 42 45
11 21 49 72 85 112 36 40 81 97 101 126 19 28 41 52 48 52 18 0 42 30 49 60 3
14 27 61 52 105 73 128 107 220 119 318 12 101 -2 95 162 76 105 -11 124 -6
124 38 0 13 -12 47 -26 75 -14 28 -22 54 -17 58 8 7 126 32 211 45 55 9 68 31
53 90 -18 73 -15 95 15 95 14 0 35 -5 47 -11 18 -10 24 -8 41 14 12 14 44 36
71 48 48 21 225 126 235 139 16 21 89 60 112 60 27 0 32 4 68 51 28 38 172
105 260 122 64 12 100 13 100 2z m500 -10 c213 -21 200 -17 200 -69 0 -78 -21
-197 -46 -268 -14 -38 -63 -157 -109 -264 -118 -273 -130 -317 -129 -484 0
-112 4 -154 27 -250 43 -176 44 -226 12 -345 -23 -83 -36 -110 -75 -160 -55
-69 -71 -99 -94 -175 -10 -30 -19 -61 -22 -68 -3 -9 -17 -4 -48 17 -101 70
-182 199 -211 336 -21 99 -19 324 6 550 23 219 26 469 9 690 -7 82 -9 183 -5
225 8 95 41 237 62 269 15 24 16 24 142 17 69 -3 196 -13 281 -21z m4136 -222
c-11 -356 -36 -582 -92 -818 -62 -266 -171 -503 -291 -636 -36 -40 -100 -85
-109 -77 -2 3 -27 61 -55 129 -28 68 -78 179 -110 247 -36 72 -57 127 -53 135
30 47 144 174 270 297 247 242 226 216 194 245 -19 17 -22 15 -117 -73 -110
-101 -248 -242 -339 -347 l-61 -70 -22 44 -22 43 24 61 c52 129 132 279 194
363 4 5 13 17 18 26 6 9 25 38 44 64 19 27 66 96 104 153 65 97 68 105 51 118
-10 7 -21 13 -24 13 -12 0 -57 -55 -112 -135 -102 -150 -131 -190 -140 -193
-4 -2 -8 -9 -8 -15 0 -7 -21 -43 -46 -82 -25 -38 -70 -121 -100 -182 -48 -99
-74 -135 -74 -104 0 13 -107 154 -164 216 -26 27 -46 52 -46 55 0 6 160 150
285 256 77 65 255 202 295 226 14 9 57 36 95 60 115 74 355 187 398 188 18 0
18 -10 13 -207z m658 -2513 c41 -20 87 -77 122 -152 10 -22 25 -38 35 -38 9 0
42 15 73 34 73 44 117 51 193 32 94 -25 126 -41 170 -89 51 -55 83 -139 83
-217 0 -96 8 -103 88 -75 74 26 219 -4 305 -63 96 -67 146 -170 128 -266 -12
-66 -28 -98 -76 -156 -38 -45 -37 -55 10 -90 60 -44 109 -100 138 -159 30 -62
32 -71 32 -176 0 -127 -16 -174 -84 -248 -55 -60 -122 -91 -286 -132 -289 -74
-335 -114 -443 -386 -63 -158 -124 -264 -245 -422 -294 -387 -347 -510 -377
-887 -23 -288 -39 -428 -60 -511 -29 -117 -27 -114 -90 -98 -48 12 -53 12 -66
-6 -18 -24 -18 -50 1 -106 22 -67 45 -213 45 -291 0 -126 -34 -282 -76 -346
l-16 -24 -48 54 c-70 77 -71 75 -230 -217 l-92 -170 5 58 c7 72 2 87 -29 87
-30 0 -54 -44 -54 -100 0 -93 -75 -358 -139 -489 -46 -95 -107 -194 -149 -241
l-39 -44 -20 54 c-26 68 -186 406 -245 515 -124 231 -246 532 -277 687 -7 31
-19 59 -27 62 -22 8 -45 -4 -55 -31 -14 -38 39 -225 122 -430 7 -18 11 -34 8
-37 -2 -3 -38 4 -79 15 -98 25 -223 26 -282 0 -49 -21 -112 -82 -127 -124 -6
-16 -11 -45 -11 -65 0 -108 118 -180 470 -288 182 -55 273 -98 321 -151 36
-41 97 -159 86 -169 -3 -3 -30 5 -59 19 -166 78 -343 120 -503 121 -109 1
-125 -1 -170 -24 -91 -46 -143 -150 -115 -235 23 -70 151 -154 325 -214 33
-11 128 -43 210 -71 203 -69 317 -125 387 -189 80 -73 98 -115 98 -229 l0 -91
-37 35 c-112 104 -299 194 -441 210 -159 17 -312 -62 -312 -163 0 -79 69 -139
345 -304 260 -154 344 -219 358 -278 5 -21 -44 -199 -73 -262 -19 -41 -255
-178 -370 -215 -66 -20 -92 -41 -88 -68 7 -52 172 7 378 135 302 188 519 288
755 347 183 46 265 57 450 57 172 0 184 -1 268 -29 245 -80 385 -262 444 -577
44 -236 10 -688 -76 -994 -22 -79 -76 -205 -88 -205 -4 0 -23 15 -43 34 -67
65 -195 149 -315 207 -232 113 -516 166 -737 140 -213 -25 -358 -83 -472 -191
-124 -117 -185 -215 -291 -465 -80 -190 -92 -211 -145 -265 -30 -30 -95 -80
-145 -110 -147 -89 -208 -158 -155 -175 13 -4 34 7 72 37 30 24 90 66 133 93
92 56 176 132 211 192 14 23 56 111 93 195 89 204 141 302 195 369 205 258
626 312 1090 141 227 -83 424 -229 557 -412 86 -117 199 -356 229 -483 22 -90
26 -215 9 -287 -13 -56 -59 -160 -70 -160 -5 0 -9 -6 -9 -12 0 -18 -44 -65
-109 -118 l-53 -44 -40 43 c-65 67 -128 95 -218 94 -52 0 -92 -7 -130 -22 -30
-11 -59 -21 -65 -21 -5 0 29 37 76 83 97 94 171 200 212 305 33 86 33 117 -1
117 -25 0 -40 -21 -66 -95 -28 -81 -89 -169 -181 -266 -49 -52 -95 -94 -102
-94 -6 0 -21 16 -33 35 -59 95 -180 164 -264 150 -94 -16 -106 -17 -106 -10 0
3 29 35 64 70 53 52 75 84 120 178 31 62 56 118 56 122 0 5 12 37 26 73 27 67
26 92 -3 92 -20 0 -63 -38 -63 -56 0 -27 -93 -232 -132 -289 -41 -61 -115
-128 -131 -118 -5 3 -18 24 -28 47 -23 53 -42 70 -102 90 -54 18 -130 20 -197
5 -25 -5 -51 -11 -58 -12 -15 -2 -33 42 -76 184 -42 139 -72 161 -163 120 -51
-24 -81 -64 -63 -86 16 -19 41 -19 66 0 46 35 58 20 100 -128 66 -236 148
-315 336 -325 48 -2 100 0 117 6 37 13 53 0 72 -55 6 -21 21 -55 31 -77 16
-31 17 -40 6 -47 -23 -15 -28 -11 -54 45 -14 29 -38 66 -55 82 -29 27 -31 28
-76 15 -62 -16 -102 -48 -143 -110 -74 -116 -103 -274 -80 -429 7 -48 16 -91
20 -95 4 -5 56 1 116 13 60 12 155 31 211 42 165 33 246 96 274 214 24 102 19
95 94 115 95 24 96 24 151 -20 27 -21 64 -46 83 -55 23 -13 30 -21 23 -28 -20
-20 -276 -159 -467 -253 -509 -251 -1025 -424 -1315 -442 -378 -23 -664 215
-752 626 -43 202 -35 586 17 800 42 170 81 266 269 655 87 178 97 216 57 216
-10 0 -24 -6 -30 -14 -20 -24 -211 -416 -266 -546 -29 -69 -65 -166 -79 -215
-15 -50 -34 -100 -43 -113 -20 -32 -340 -189 -468 -230 -131 -42 -201 -57
-392 -86 -397 -61 -757 -80 -1003 -52 -423 48 -812 150 -1285 338 l-160 64 -9
39 c-55 252 -114 400 -220 559 -92 137 -252 339 -273 344 -21 5 -53 -27 -53
-52 0 -12 34 -61 75 -111 98 -117 222 -299 273 -400 99 -198 146 -454 145
-795 -1 -149 -4 -194 -27 -303 -48 -231 -112 -362 -246 -497 -94 -96 -182
-147 -300 -174 -95 -23 -281 -21 -421 5 -246 44 -680 193 -1057 363 -237 107
-662 329 -662 347 0 5 19 18 42 30 24 12 58 35 77 51 36 32 43 32 121 3 35
-13 64 -16 127 -12 l81 6 -5 -52 c-17 -171 106 -268 342 -269 113 -1 181 15
271 60 66 33 72 42 111 162 18 55 26 106 30 191 5 109 4 118 -20 166 -21 41
-60 81 -116 119 -1 2 11 20 28 41 39 49 74 129 106 242 13 49 29 101 35 116
l10 27 34 -26 c19 -14 41 -26 49 -26 22 0 58 45 51 63 -9 26 -68 57 -105 57
-60 0 -96 -42 -129 -145 -18 -58 -44 -82 -95 -87 -61 -7 -165 -59 -219 -108
-25 -24 -60 -67 -77 -96 -34 -60 -48 -65 -107 -35 -106 55 -193 189 -263 407
-29 90 -64 109 -91 50 -14 -32 18 -125 103 -301 59 -124 112 -196 161 -221 15
-8 28 -23 28 -33 0 -16 -12 -19 -82 -25 -104 -9 -170 -38 -242 -106 l-54 -51
-48 37 c-136 102 -251 243 -303 371 -29 70 -48 86 -78 62 -35 -30 2 -144 88
-270 41 -61 139 -165 179 -192 24 -15 18 -16 -111 -16 -151 -1 -206 -13 -282
-61 -26 -16 -50 -30 -52 -30 -3 0 -36 27 -75 60 -241 208 -238 572 7 958 149
235 330 413 555 545 186 111 321 156 484 164 176 9 238 -12 460 -153 304 -194
387 -285 519 -574 111 -243 145 -281 365 -411 41 -24 86 -54 101 -66 36 -30
65 -29 86 3 l17 27 -46 41 c-25 23 -87 66 -139 96 -52 30 -122 82 -156 116
-54 53 -72 82 -139 220 -42 87 -100 197 -128 244 -80 133 -201 252 -326 322
-25 14 -75 44 -112 66 -230 141 -376 179 -569 148 -260 -42 -509 -180 -768
-423 -25 -24 -49 -43 -54 -43 -15 0 -95 183 -120 275 -161 588 -120 1092 110
1331 140 145 306 200 568 190 427 -16 740 -118 1232 -399 165 -94 292 -154
364 -172 20 -5 33 0 55 19 39 33 25 55 -47 77 -83 25 -150 58 -333 162 -92 54
-215 120 -272 148 -57 28 -106 55 -109 60 -11 17 106 66 440 183 227 80 299
110 353 149 160 115 73 255 -171 273 -98 8 -211 -11 -343 -57 -49 -17 -99 -33
-112 -36 -12 -3 -22 -8 -22 -12 0 -3 -15 -13 -33 -20 -71 -32 -155 -88 -217
-145 l-65 -61 -3 30 c-8 70 48 176 139 260 182 170 601 397 830 449 15 3 37
14 49 24 21 17 22 21 10 57 -18 54 -89 119 -158 146 -46 17 -79 22 -167 22
-204 2 -429 -70 -594 -188 -28 -21 -55 -35 -58 -31 -9 9 18 85 42 118 11 15
49 69 85 119 152 213 185 240 355 292 61 19 143 46 182 61 40 14 90 26 112 26
58 0 141 19 178 42 43 26 102 110 108 155 8 51 -11 83 -65 113 -40 22 -59 25
-181 28 -144 4 -282 -9 -356 -34 -24 -8 -48 -14 -53 -12 -4 2 14 44 42 93 134
239 195 380 242 557 21 79 23 95 11 107 -28 29 -85 -40 -85 -104 0 -55 -123
-342 -213 -500 -19 -33 -62 -109 -96 -169 -34 -59 -90 -165 -123 -235 -33 -69
-62 -127 -63 -129 -2 -2 -70 64 -152 147 -155 157 -175 170 -214 135 -17 -15
-20 -13 -43 39 -13 30 -27 66 -31 79 -11 35 -25 48 -51 48 -18 0 -29 -13 -53
-64 -17 -35 -35 -67 -40 -71 -16 -9 -81 130 -98 209 -15 74 -12 174 8 250 8
31 8 42 -4 54 -13 13 -18 13 -36 0 -11 -8 -35 -34 -51 -57 -17 -23 -35 -39
-40 -36 -29 18 -62 253 -58 411 3 142 -5 163 -52 139 -15 -8 -30 -21 -33 -30
-8 -20 -22 -19 -25 3 -1 9 -5 96 -8 192 -5 163 -4 183 21 295 34 154 35 169
12 173 -24 5 -52 -21 -94 -85 -37 -58 -53 -66 -53 -29 0 45 -41 231 -71 321
-17 50 -53 135 -80 190 -130 257 -166 352 -243 633 -31 111 -67 230 -81 264
-61 151 -176 275 -409 443 -247 178 -340 283 -417 470 -48 116 -59 201 -34
275 30 91 59 113 217 172 38 14 39 27 11 94 -50 120 -56 146 -57 264 -1 97 3
126 23 184 26 77 74 137 132 167 50 25 146 25 219 -1 l55 -19 21 23 c16 18 22
43 27 100 16 184 170 336 341 336 72 0 162 -38 214 -89 40 -40 62 -35 95 22
65 110 154 130 285 63 230 -117 631 -587 970 -1138 91 -150 90 -145 39 -158
-65 -17 -182 -60 -292 -107 -55 -24 -104 -43 -110 -42 -5 0 -21 23 -35 52 -55
111 -233 218 -520 312 -218 72 -287 80 -354 41 -38 -22 -51 -39 -80 -99 -19
-40 -55 -137 -80 -217 -35 -111 -54 -156 -82 -190 -50 -62 -63 -90 -70 -152
-13 -114 32 -222 117 -279 80 -53 162 -68 290 -51 68 8 99 23 99 49 0 8 33 49
73 91 41 43 79 87 86 100 14 26 31 27 86 7 88 -31 274 -12 354 38 74 45 120
119 121 192 0 22 4 46 8 53 5 7 46 28 93 48 79 33 110 45 269 99 36 13 72 26
82 30 13 5 31 -24 97 -156 45 -90 81 -174 81 -188 0 -22 -12 -32 -77 -66 -42
-22 -122 -68 -176 -102 -54 -35 -102 -63 -107 -63 -5 0 -10 -3 -12 -8 -1 -4
-53 -47 -114 -94 -111 -87 -133 -113 -115 -131 7 -7 32 8 73 45 100 86 204
161 328 235 118 70 218 120 223 112 2 -2 15 -49 29 -104 14 -55 39 -148 54
-207 l29 -107 -73 -66 c-42 -39 -72 -75 -72 -86 0 -26 21 -15 95 52 33 31 60
48 65 43 5 -5 23 -54 40 -109 39 -120 112 -305 172 -435 96 -207 376 -662 416
-678 10 -3 27 7 48 32 38 44 38 44 60 -97 25 -173 74 -338 126 -437 19 -34 32
-46 54 -50 27 -5 30 -10 47 -85 56 -240 140 -453 234 -594 35 -52 63 -99 63
-104 0 -6 -11 -30 -25 -53 -48 -82 -134 -285 -174 -408 -75 -235 -105 -427
-105 -681 0 -300 50 -547 183 -897 12 -31 56 -123 97 -205 200 -392 441 -674
729 -855 462 -290 998 -322 1490 -88 232 109 439 271 613 478 153 183 261 356
346 554 90 212 132 368 161 598 24 197 16 376 -26 599 -62 328 -211 674 -387
899 -60 76 -62 65 34 234 47 84 96 171 108 193 13 22 55 97 94 166 209 372
332 664 387 924 18 86 31 112 75 153 94 89 302 346 423 524 80 118 191 316
302 538 26 52 49 97 51 99 1 1 46 -27 100 -63 76 -52 99 -64 110 -55 8 6 14
17 14 23 0 6 -45 40 -101 76 -69 45 -99 70 -95 80 20 64 151 348 166 360 13
10 19 27 19 50 -1 19 11 67 26 105 15 39 56 154 91 256 144 423 194 519 394
755 47 55 122 145 167 200 121 148 237 251 299 267 43 11 90 6 128 -13z
m-7953 -161 c27 -12 49 -27 49 -33 0 -16 -29 -56 -41 -56 -5 0 -35 25 -66 55
l-57 55 33 0 c18 0 55 -10 82 -21z m3793 -699 c26 -13 63 -39 82 -58 33 -34
99 -175 89 -191 -3 -5 -38 -15 -78 -21 -39 -7 -85 -17 -101 -23 -31 -11 -66
-60 -66 -92 0 -87 -48 -131 -129 -122 -38 4 -52 12 -79 44 -33 37 -34 40 -28
103 6 60 5 68 -16 87 -46 42 -87 55 -146 48 -44 -5 -54 -4 -50 7 3 7 16 40 29
73 32 80 89 136 159 158 85 26 269 19 334 -13z m-4275 -312 c268 -84 372 -129
473 -203 51 -37 128 -128 128 -150 0 -8 -46 -37 -102 -64 -135 -67 -168 -88
-168 -106 0 -25 29 -17 123 36 50 28 107 57 128 64 35 13 39 12 44 -6 4 -11
-3 -36 -17 -62 -30 -54 -76 -76 -187 -87 -92 -10 -147 -2 -213 31 -21 11 -39
19 -42 19 -3 0 -43 -44 -89 -97 -46 -54 -104 -119 -128 -145 l-44 -47 -56 14
c-34 7 -62 9 -70 4 -41 -26 -125 6 -177 65 -64 73 -68 183 -8 266 52 72 70
112 127 281 28 85 58 166 65 181 29 56 53 57 213 6z m3878 -21 c21 -21 10 -47
-20 -47 -27 0 -88 38 -95 59 -6 20 94 9 115 -12z m558 -17 c3 -5 -4 -20 -17
-33 -30 -30 -115 -44 -136 -23 -23 22 -7 46 30 47 18 0 42 4 53 9 28 12 63 12
70 0z m-1462 -290 c59 -6 124 -14 144 -18 l36 -8 -69 -27 c-65 -25 -82 -27
-250 -31 -137 -3 -200 -9 -269 -25 -291 -68 -613 -225 -895 -435 -63 -47 -119
-86 -125 -86 -5 0 -25 60 -44 133 -18 72 -42 159 -53 191 -19 57 -19 60 -1 70
72 43 349 134 528 175 76 17 293 50 425 64 78 9 472 6 573 -3z m2687 -15 c288
-36 542 -102 834 -217 224 -88 551 -252 551 -275 -1 -22 -180 -373 -191 -373
-7 0 -32 15 -56 33 -24 17 -77 54 -118 82 -41 27 -76 53 -78 57 -2 5 -8 8 -14
8 -11 0 -101 61 -106 73 -2 4 -8 7 -14 7 -5 0 -29 14 -53 30 -24 17 -46 30
-50 30 -4 0 -25 13 -49 29 -68 47 -362 187 -482 230 -134 48 -309 88 -423 97
-89 8 -91 9 -144 78 -25 33 -75 62 -135 81 -35 10 -22 16 70 30 115 18 310 18
458 0z m-2730 -114 c0 -6 -5 -13 -10 -16 -6 -4 -24 -30 -40 -58 -51 -88 -36
-192 20 -142 11 10 22 34 26 54 9 58 15 71 27 71 7 0 44 -24 83 -52 169 -126
333 -182 512 -176 l107 3 0 -105 c1 -79 6 -122 22 -175 43 -137 139 -251 261
-308 143 -67 342 -40 425 57 46 55 51 76 57 242 5 150 7 163 30 197 31 46 57
55 142 49 71 -5 200 18 253 46 56 28 140 89 208 151 57 52 73 61 105 61 54 0
81 -10 87 -31 10 -29 47 -35 63 -10 18 26 62 27 188 6 248 -43 531 -152 773
-297 34 -21 65 -38 68 -38 8 0 98 -64 101 -72 2 -4 12 -8 23 -8 10 0 19 -4 19
-9 0 -5 8 -12 19 -16 10 -3 31 -17 47 -30 16 -14 34 -25 41 -25 6 0 13 -3 15
-8 2 -4 54 -43 116 -86 61 -43 112 -81 112 -85 -1 -3 -13 -24 -28 -45 -25 -36
-40 -45 -192 -103 -294 -113 -374 -144 -460 -180 -217 -92 -574 -228 -785
-298 -654 -219 -1192 -269 -1728 -161 -344 69 -556 141 -1077 366 -352 152
-638 267 -770 311 -68 22 -120 45 -127 56 -6 10 -32 77 -56 148 -25 72 -48
137 -51 146 -8 18 143 135 314 244 120 76 371 202 475 238 131 45 296 79 420
87 66 4 130 8 143 8 12 1 22 -2 22 -7z m1235 -206 c57 -42 142 -89 213 -115
18 -7 31 -15 29 -19 -60 -109 -62 -121 -59 -261 2 -113 -1 -141 -15 -170 -24
-46 -68 -74 -141 -89 -144 -31 -328 71 -402 224 -40 82 -60 165 -60 252 0 71
1 73 28 79 93 21 148 40 182 65 22 16 41 29 43 29 2 0 3 -75 3 -167 -1 -163 0
-170 28 -236 33 -78 68 -112 98 -96 32 17 32 39 -1 106 -48 98 -59 160 -50
283 7 102 20 160 36 160 5 0 35 -20 68 -45z m-2354 -817 c42 -18 73 -47 191
-182 386 -442 607 -673 803 -840 255 -218 480 -361 1165 -741 196 -109 491
-291 510 -315 3 -3 28 -21 55 -40 28 -19 127 -91 220 -160 94 -69 223 -164
288 -209 71 -51 117 -90 117 -100 0 -23 -90 -173 -147 -245 -69 -88 -112 -98
-113 -24 0 44 -17 78 -39 78 -14 0 -36 -24 -72 -77 -77 -116 -172 -243 -181
-243 -14 0 -21 51 -15 116 3 47 1 67 -9 75 -33 28 -64 -15 -125 -171 -41 -105
-54 -129 -64 -118 -3 3 -13 50 -21 104 -17 105 -25 124 -55 124 -20 0 -41 -36
-76 -130 -12 -30 -38 -99 -58 -153 -20 -54 -42 -96 -48 -94 -6 2 -19 52 -29
112 -33 195 -65 287 -129 373 -44 58 -61 64 -85 27 -19 -29 -32 -32 -41 -7
-22 58 -198 241 -372 385 -81 68 -83 68 -108 52 -26 -17 -53 -70 -53 -104 0
-11 -4 -22 -8 -25 -11 -6 -259 263 -335 363 -31 42 -73 106 -93 144 -45 85
-80 91 -99 14 -4 -15 -10 -27 -14 -27 -10 0 -140 254 -162 317 -71 202 -104
344 -113 477 -3 38 -10 74 -16 80 -14 14 -41 -3 -57 -35 -7 -13 -18 -24 -24
-24 -28 0 -95 270 -124 494 -9 76 -19 120 -30 130 -15 15 -18 13 -43 -15 -15
-17 -35 -45 -44 -62 -9 -18 -21 -32 -26 -32 -5 0 -22 21 -38 48 -138 218 -180
292 -271 468 -57 110 -103 204 -103 207 0 13 42 7 91 -15z m4876 -15 c-34 -65
-155 -219 -316 -401 -73 -84 -84 -82 -75 13 3 33 1 103 -5 155 -8 73 -8 97 2
106 6 7 80 37 162 68 83 31 170 65 195 75 25 10 46 17 48 15 2 -1 -3 -15 -11
-31z m-4524 -121 c15 -9 58 -55 94 -102 37 -47 70 -87 73 -90 3 -3 57 -63 122
-135 125 -140 275 -289 403 -400 44 -39 89 -78 100 -88 21 -19 73 -59 195
-149 119 -88 287 -192 455 -283 39 -21 99 -54 135 -75 36 -20 85 -48 110 -62
323 -180 747 -458 1071 -704 52 -40 119 -91 149 -114 30 -23 85 -68 122 -101
37 -32 76 -59 87 -59 30 0 55 45 220 394 81 171 172 358 204 416 87 160 240
474 281 578 114 290 162 504 173 765 3 87 11 161 16 164 38 23 55 -125 38
-321 -18 -201 -64 -376 -162 -609 -69 -165 -239 -505 -334 -667 -18 -30 -46
-80 -62 -110 -17 -30 -47 -84 -68 -120 -55 -97 -156 -301 -205 -417 -38 -90
-46 -103 -67 -103 -28 0 -153 58 -153 71 0 5 -5 9 -10 9 -18 0 -92 53 -236
171 -174 141 -393 292 -652 450 -40 24 -92 56 -115 70 -23 14 -69 40 -102 58
-33 18 -64 36 -70 41 -5 4 -46 27 -90 50 -315 170 -696 402 -800 487 -20 17
-63 48 -85 63 -47 30 -277 230 -355 307 -72 70 -199 207 -325 348 -25 27 -47
52 -50 55 -22 20 -200 229 -200 235 0 10 61 -5 93 -23z m3932 -114 c12 -52 -5
-265 -30 -393 -61 -306 -145 -516 -398 -995 -42 -80 -116 -230 -165 -335 -212
-451 -217 -460 -241 -431 -11 13 -76 65 -295 237 -39 30 -100 75 -135 100 -35
24 -107 75 -160 112 -53 37 -109 77 -126 87 -16 11 -38 25 -48 32 -136 97
-787 488 -812 488 -2 0 -40 23 -85 50 -45 28 -83 50 -86 50 -8 0 -327 219
-405 278 -192 144 -522 457 -708 670 -49 56 -59 72 -44 72 11 0 103 -35 204
-78 101 -44 192 -82 202 -85 11 -4 17 -17 17 -38 0 -84 59 -176 134 -210 51
-23 143 -25 194 -4 20 9 53 32 73 51 35 35 37 35 70 20 19 -8 70 -22 114 -31
44 -9 103 -23 130 -30 140 -38 427 -75 576 -75 l78 0 17 -35 c50 -106 193
-147 309 -91 46 23 61 37 87 82 16 30 38 59 48 64 10 5 62 17 115 25 54 9 123
22 153 30 l55 15 36 -39 c45 -49 101 -72 172 -73 109 -2 208 82 227 191 7 41
10 45 57 62 269 98 630 240 643 254 12 12 21 3 27 -27z m-3149 -217 c55 -21
123 -46 152 -57 28 -10 52 -21 52 -24 0 -12 -98 -60 -122 -60 -66 0 -139 44
-168 100 -18 35 -27 80 -16 80 2 0 48 -17 102 -39z m2374 -58 c0 -4 -14 -31
-32 -59 -54 -90 -164 -116 -249 -59 -23 14 -38 29 -35 33 4 3 57 21 119 39
184 56 197 59 197 46z m-800 -186 c0 -20 -50 -64 -94 -82 -45 -19 -89 -14
-148 16 -32 16 -58 44 -58 63 0 3 46 7 103 9 56 1 123 4 150 5 33 1 47 -2 47
-11z m5368 -108 c61 -21 112 -64 112 -95 0 -26 -31 -76 -77 -126 -25 -26 -49
-48 -53 -48 -4 0 -33 21 -64 47 -72 59 -142 84 -198 71 -45 -10 -58 -17 -115
-69 -61 -55 -73 -77 -73 -136 0 -44 5 -58 31 -87 17 -19 54 -47 82 -61 29 -14
65 -36 81 -48 l29 -24 -21 -54 c-12 -30 -28 -80 -37 -113 l-16 -58 -35 5 c-83
14 -196 -55 -242 -147 -30 -58 -38 -138 -20 -191 l13 -40 75 -1 c94 0 177 -32
187 -72 6 -25 -10 -328 -18 -336 -2 -2 -43 -11 -90 -19 -91 -16 -195 -60 -240
-103 -36 -34 -63 -97 -55 -128 8 -33 59 -62 151 -86 43 -11 96 -30 119 -43 34
-18 42 -28 44 -56 5 -46 -75 -291 -94 -291 -8 0 -37 12 -65 26 -66 35 -178 51
-238 34 -81 -22 -129 -103 -118 -198 5 -50 46 -97 147 -173 32 -24 61 -50 65
-57 7 -19 -20 -53 -108 -141 l-75 -73 -42 42 c-23 23 -61 51 -85 61 -86 38
-219 34 -261 -8 -35 -35 11 -170 94 -271 l36 -44 -50 -41 c-27 -23 -73 -64
-102 -91 l-52 -49 -28 25 c-94 88 -273 139 -382 108 -67 -19 -155 -124 -130
-155 6 -7 39 -27 73 -44 77 -39 108 -66 147 -127 48 -76 44 -86 -74 -202 -77
-76 -110 -102 -129 -102 -38 0 -185 -37 -306 -76 -58 -20 -175 -69 -259 -111
-85 -41 -156 -73 -158 -70 -2 2 11 60 31 128 19 68 39 143 45 166 26 105 325
425 540 579 30 22 111 75 180 118 434 274 576 397 763 661 76 108 187 328 230
455 96 286 123 476 136 965 9 323 11 331 86 489 119 248 253 413 387 476 77
36 138 39 226 9z m-160 -278 c33 -22 64 -46 68 -52 3 -6 -9 -27 -28 -47 -19
-21 -48 -54 -63 -75 -25 -33 -30 -36 -44 -23 -9 8 -36 23 -61 34 -25 11 -60
36 -79 55 -32 34 -33 38 -21 67 7 17 29 44 49 61 49 42 97 36 179 -20z m-181
-723 c1 -65 -2 -118 -6 -118 -4 0 -30 7 -57 15 -27 8 -70 15 -96 15 l-48 0 0
42 c0 55 33 122 73 147 24 16 45 20 82 19 l50 -3 2 -117z m-6610 -445 c44 -54
118 -138 164 -188 46 -49 117 -132 158 -182 40 -51 78 -93 84 -93 6 0 19 7 29
17 15 13 18 32 18 105 0 48 3 88 7 88 7 0 65 -43 113 -85 154 -134 236 -230
300 -348 23 -42 47 -80 52 -84 11 -6 40 22 65 63 10 17 14 13 37 -38 33 -74
50 -143 77 -318 22 -145 31 -180 49 -180 5 0 24 13 43 30 38 33 83 113 121
212 13 37 30 77 37 90 13 22 13 22 20 -17 5 -22 8 -61 8 -87 1 -45 3 -48 27
-48 39 0 91 46 131 117 37 67 53 70 53 10 0 -35 21 -43 54 -21 32 20 137 146
196 233 40 59 44 63 56 46 8 -10 14 -22 14 -26 0 -5 16 -13 36 -18 32 -9 43
-7 80 15 76 44 196 207 247 336 16 39 18 39 102 13 14 -4 31 3 53 22 26 22 47
62 97 187 35 87 66 160 69 163 9 10 24 -8 91 -107 232 -345 355 -748 358
-1170 2 -195 -13 -305 -65 -495 -130 -471 -453 -924 -827 -1159 -68 -43 -250
-131 -320 -155 -35 -12 -109 -34 -165 -49 -95 -25 -114 -27 -311 -27 -227 1
-258 5 -445 66 -381 125 -707 395 -947 786 -158 257 -297 613 -353 903 -18 91
-40 300 -40 381 -1 300 86 668 225 952 38 78 93 152 116 156 3 1 42 -43 86
-96z m6579 -238 c6 -14 -11 -154 -23 -198 -4 -16 -6 -16 -33 3 -15 11 -63 27
-107 36 -88 18 -133 38 -133 58 0 27 148 95 230 107 25 3 49 7 53 8 4 0 10 -6
13 -14z m-2811 -43 c133 -53 134 -54 216 -215 40 -80 71 -148 68 -151 -3 -4
-23 1 -44 10 -22 9 -120 44 -220 78 -219 76 -284 107 -336 156 -57 54 -52 95
16 140 25 17 45 19 125 17 80 -2 108 -8 175 -35z m-4957 -232 c40 -15 55 -40
43 -73 -16 -42 -55 -63 -138 -76 -100 -15 -189 -39 -338 -91 -184 -64 -231
-94 -316 -196 -50 -61 -72 -77 -50 -37 5 10 47 98 92 197 46 98 91 189 101
202 24 30 152 70 263 83 101 12 300 7 343 -9z m7464 -387 c84 -36 108 -52 108
-73 0 -10 -22 -57 -49 -105 l-49 -87 -43 39 c-24 21 -63 54 -87 72 -23 18 -50
47 -58 63 -19 36 -11 93 14 107 31 18 99 12 164 -16z m-2481 -38 c188 -39 449
-153 481 -211 20 -34 74 -237 84 -316 l7 -52 -29 22 c-93 72 -208 126 -422
198 -272 92 -401 152 -451 210 -29 32 -33 42 -28 77 6 47 21 63 73 83 47 17
171 13 285 -11z m-5196 -300 c60 -16 145 -61 152 -80 2 -6 -36 -23 -83 -40
-171 -58 -465 -217 -630 -341 -40 -30 -107 -91 -148 -135 l-76 -81 -1 64 c-3
121 3 243 12 288 25 116 253 257 504 314 128 29 190 31 270 11z m7260 -185
c22 -10 56 -33 75 -50 l35 -31 -40 -35 c-79 -69 -82 -70 -108 -38 -34 43 -97
148 -97 162 0 19 89 14 135 -8z m-1919 -320 c112 -28 253 -102 329 -172 87
-80 108 -116 101 -171 -26 -173 -33 -189 -72 -146 -17 19 -164 120 -190 130
-45 18 -295 172 -350 216 -78 62 -88 75 -79 103 8 26 37 41 99 50 77 11 77 11
162 -10z m1377 -57 c54 -17 118 -51 161 -86 l29 -23 -70 -74 -71 -74 -26 52
c-32 64 -107 138 -165 163 -38 17 -42 21 -30 35 29 35 77 37 172 7z m-6662
-97 c63 -19 129 -54 136 -72 3 -8 -1 -22 -8 -31 -27 -32 -251 -121 -559 -223
-131 -43 -237 -95 -281 -136 -20 -19 -32 -24 -53 -18 -90 22 -65 150 50 253
32 29 74 60 92 69 17 9 32 19 32 24 0 4 9 8 20 8 11 0 20 5 20 10 0 6 7 10 15
10 9 0 26 6 38 14 38 24 204 76 290 90 108 18 152 19 208 2z m-698 -3023 c-14
-40 -67 -105 -104 -130 -41 -27 -159 -57 -172 -44 -14 14 19 66 69 110 50 44
130 80 181 80 27 1 31 -2 26 -16z m6818 -143 c19 -5 48 -24 64 -40 25 -26 27
-32 15 -40 -36 -23 -149 4 -201 48 l-33 27 30 6 c46 10 86 10 125 -1z m-6855
-125 c36 -23 65 -82 77 -155 9 -61 8 -79 -12 -155 -40 -152 -62 -174 -184
-196 -72 -13 -194 -4 -280 21 -59 17 -114 72 -125 126 -17 80 -14 83 118 115
39 9 61 27 160 130 63 65 126 123 140 128 29 11 76 5 106 -14z m-237 -1 c2 -2
-22 -33 -54 -69 -57 -65 -133 -115 -174 -115 -18 0 -16 7 20 77 21 43 39 88
39 100 0 23 1 23 83 17 45 -4 84 -8 86 -10z m-286 -80 c12 -12 -23 -62 -65
-93 -35 -26 -51 -31 -97 -31 -81 0 -93 11 -56 50 39 41 59 52 125 66 65 15 85
16 93 8z m7791 -8 c59 -25 161 -134 142 -153 -3 -3 -28 -8 -56 -11 -43 -4 -60
0 -103 24 -56 30 -79 53 -98 98 -11 25 -10 30 6 42 24 18 67 18 109 0z m-330
-99 c14 -18 29 -52 35 -76 9 -40 26 -64 41 -57 3 1 22 11 42 21 30 15 45 17
84 9 63 -12 89 -47 88 -115 -1 -98 -74 -139 -325 -185 -77 -14 -143 -24 -145
-21 -12 12 -15 149 -5 216 12 78 55 180 91 219 30 32 64 28 94 -11z m-7994
-65 c24 -10 24 -11 -25 -33 -67 -30 -185 -38 -239 -15 -47 20 -40 31 30 51 54
16 192 14 234 -3z m8857 -28 c54 -18 116 -61 108 -74 -14 -22 -199 11 -245 45
l-31 23 48 10 c68 14 67 14 120 -4z"/>
<path d="M5250 14039 c-115 -10 -162 -27 -174 -62 -15 -41 2 -51 55 -35 68 20
335 16 434 -6 182 -40 312 -85 450 -153 193 -97 295 -208 326 -355 15 -71 24
-78 56 -46 30 31 32 61 9 142 -16 55 -88 163 -134 204 -172 148 -482 271 -779
307 -64 8 -126 14 -138 14 -11 -1 -58 -5 -105 -10z"/>
<path d="M8510 13939 c-400 -33 -705 -207 -846 -484 -24 -46 -21 -65 9 -65 31
0 42 9 67 60 59 118 148 200 297 274 272 135 634 171 909 90 49 -14 97 -28
106 -31 10 -3 28 6 43 22 26 25 26 27 10 45 -32 35 -186 72 -369 90 -60 5
-112 9 -115 9 -3 -1 -53 -6 -111 -10z"/>
<path d="M7229 12436 c-15 -7 -25 -22 -27 -39 -3 -21 2 -29 23 -37 40 -15 51
-12 63 16 21 46 -14 83 -59 60z"/>
<path d="M6509 12413 c-13 -34 -5 -53 20 -53 24 0 56 43 47 65 -3 8 -17 15
-31 15 -18 0 -28 -7 -36 -27z"/>
<path d="M6747 12372 c-22 -24 -22 -62 -1 -62 41 0 74 41 53 66 -16 19 -33 18
-52 -4z"/>
<path d="M6351 12343 c-29 -20 -26 -77 5 -81 29 -4 58 31 50 61 -8 32 -28 39
-55 20z"/>
<path d="M7402 12338 c-18 -18 -15 -46 7 -57 14 -8 23 -5 41 14 13 14 20 31
17 39 -7 19 -48 21 -65 4z"/>
<path d="M7565 12296 c-34 -34 -33 -56 3 -56 47 0 70 43 37 70 -11 9 -19 7
-40 -14z"/>
<path d="M7189 12271 c-27 -22 -21 -42 19 -69 19 -13 23 -11 47 13 25 24 26
28 12 48 -19 29 -48 32 -78 8z"/>
<path d="M6604 12235 c-22 -34 -10 -61 33 -76 32 -10 38 -9 50 7 20 28 16 60
-12 78 -34 22 -52 20 -71 -9z"/>
<path d="M6403 12192 c-7 -4 -16 -22 -19 -40 -6 -29 -4 -32 20 -32 30 0 60 38
50 64 -7 17 -31 21 -51 8z"/>
<path d="M7372 12184 c-29 -20 -26 -58 4 -62 29 -4 69 45 53 64 -15 18 -29 18
-57 -2z"/>
<path d="M11110 13653 c-60 -26 -137 -99 -164 -157 -58 -122 -58 -298 0 -414
24 -47 34 -57 54 -57 19 0 29 9 43 37 10 20 38 52 62 72 122 100 206 322 169
446 -25 83 -82 109 -164 73z m74 -94 c29 -35 31 -49 12 -134 -25 -112 -67
-187 -136 -237 -49 -36 -53 -33 -71 52 -13 61 -5 165 15 214 25 59 106 136
143 136 6 0 23 -14 37 -31z"/>
<path d="M2500 13563 c-75 -25 -142 -84 -161 -141 -18 -54 -6 -167 24 -235 64
-142 226 -226 317 -164 58 39 75 87 75 207 0 104 -1 108 -40 185 -31 62 -50
87 -85 111 -44 31 -101 47 -130 37z m65 -106 c62 -35 105 -128 112 -239 7
-102 -3 -128 -49 -128 -44 0 -112 35 -141 73 -93 123 -108 252 -34 297 41 26
63 25 112 -3z"/>
<path d="M11625 13536 c-41 -18 -112 -98 -138 -154 -19 -41 -22 -69 -25 -212
-1 -91 1 -171 6 -178 12 -17 199 81 266 139 67 59 106 143 106 227 0 85 -30
155 -75 176 -40 19 -99 20 -140 2z m94 -87 c39 -37 52 -81 41 -140 -6 -29 -18
-66 -28 -83 -39 -66 -171 -138 -193 -105 -15 20 -3 191 16 236 23 54 83 113
115 113 14 0 37 -10 49 -21z"/>
<path d="M3155 13514 c-176 -60 -213 -269 -94 -523 44 -95 82 -141 114 -141
29 0 108 83 144 152 66 127 81 336 31 427 -14 24 -36 52 -50 62 -39 29 -101
38 -145 23z m86 -94 c82 -44 79 -280 -5 -425 -15 -25 -30 -45 -34 -45 -16 0
-84 118 -103 179 -11 36 -23 102 -26 147 -6 80 -5 81 27 117 28 32 38 37 77
37 24 0 53 -5 64 -10z"/>
<path d="M1908 13245 c-110 -75 -115 -259 -13 -430 56 -93 119 -151 213 -196
81 -38 83 -39 115 -23 81 41 107 87 107 187 0 117 -65 264 -168 378 -98 109
-178 136 -254 84z m95 -68 c117 -50 281 -349 247 -452 -14 -42 -30 -48 -81
-31 -116 40 -232 188 -268 342 -18 74 11 141 67 153 1 1 17 -5 35 -12z"/>
<path d="M12118 13181 c-121 -47 -241 -179 -308 -338 -27 -64 -24 -97 10 -102
27 -3 153 16 185 29 11 5 42 16 68 26 94 34 183 116 208 192 7 20 13 65 13
100 1 58 -2 66 -27 88 -34 29 -82 31 -149 5z m80 -70 c23 -14 27 -87 7 -131
-29 -65 -91 -103 -225 -139 -94 -25 -104 -18 -67 52 45 85 123 166 192 198 65
31 73 33 93 20z"/>
<path d="M11318 12900 c-25 -4 -86 -19 -135 -33 -110 -31 -170 -43 -302 -58
-224 -25 -341 -136 -329 -313 5 -81 57 -191 107 -223 28 -19 48 -23 116 -23
45 0 96 -3 113 -6 48 -10 102 -63 175 -172 78 -116 120 -160 185 -193 118 -59
250 0 300 133 11 29 27 101 36 158 9 58 28 168 43 245 27 147 32 265 14 332
-16 59 -63 118 -107 135 -50 20 -156 28 -216 18z m169 -98 c31 -17 68 -69 83
-116 16 -51 9 -151 -23 -291 -14 -60 -28 -144 -32 -185 -14 -157 -63 -259
-132 -276 -35 -9 -107 22 -148 63 -36 36 -95 116 -95 128 0 9 -103 136 -128
158 -34 31 -93 46 -179 47 -115 0 -127 6 -168 91 -43 89 -47 158 -12 209 45
67 78 79 327 119 69 11 178 32 242 48 123 30 217 32 265 5z"/>
<path d="M12245 12644 c-122 -43 -278 -128 -303 -164 -20 -30 -21 -35 -6 -51
23 -26 104 -57 182 -71 91 -15 188 -1 277 40 73 35 105 75 105 132 0 43 -19
72 -73 111 -50 36 -88 37 -182 3z m148 -97 c20 -16 37 -32 37 -37 0 -4 -20
-20 -44 -34 -81 -47 -252 -56 -316 -16 -13 8 -13 11 0 23 21 19 157 79 210 93
52 13 62 11 113 -29z"/>
<path d="M1755 12493 c-45 -11 -58 -34 -52 -99 6 -81 35 -143 98 -209 63 -66
118 -95 185 -95 87 0 147 58 160 155 8 56 -30 140 -84 185 -67 55 -214 85
-307 63z m182 -103 c128 -55 178 -186 85 -221 -68 -26 -241 142 -242 235 0 17
6 18 54 13 29 -3 76 -15 103 -27z"/>
<path d="M7920 11184 c-157 -160 -324 -266 -529 -333 -93 -31 -277 -61 -371
-61 -78 0 -258 29 -345 56 -167 52 -376 174 -474 278 -40 41 -53 44 -81 16
-34 -34 -24 -54 66 -131 308 -265 774 -365 1169 -251 189 55 340 138 507 279
105 89 158 149 158 180 0 42 -40 29 -100 -33z"/>
<path d="M8539 10752 c-33 -17 -65 -44 -84 -71 -25 -36 -30 -52 -30 -105 0
-52 5 -70 30 -111 81 -129 286 -136 379 -12 65 87 54 192 -29 265 -78 69 -176
81 -266 34z m190 -52 c83 -42 110 -115 70 -190 -58 -109 -226 -115 -296 -10
-43 63 -24 137 49 190 50 37 118 41 177 10z"/>
<path d="M6275 10616 c-120 -52 -168 -178 -108 -288 31 -57 82 -92 161 -108
107 -23 222 44 257 151 15 46 15 53 0 99 -22 67 -58 108 -120 136 -57 27 -141
31 -190 10z m170 -65 c48 -22 60 -35 80 -90 13 -38 13 -46 -1 -79 -19 -47 -40
-70 -88 -94 -137 -70 -296 90 -212 213 46 67 139 88 221 50z"/>
<path d="M7850 10423 c-94 -32 -150 -105 -150 -196 0 -65 20 -107 71 -150 52
-45 105 -61 182 -54 73 7 127 40 168 105 27 42 30 54 27 107 -5 81 -42 136
-112 169 -68 32 -130 38 -186 19z m131 -54 c90 -30 131 -118 95 -203 -42 -100
-210 -116 -290 -27 -12 13 -21 41 -24 75 -3 43 0 59 19 89 42 63 125 91 200
66z"/>
<path d="M6960 10301 c-109 -34 -179 -126 -165 -220 9 -60 38 -115 72 -138
114 -77 228 -71 314 16 73 72 86 155 38 241 -45 79 -170 128 -259 101z m115
-61 c27 -6 51 -21 72 -45 57 -66 55 -131 -5 -195 -29 -30 -47 -40 -84 -45 -66
-10 -113 1 -153 36 -62 55 -70 138 -18 200 46 54 102 69 188 49z"/>
<path d="M8361 10088 c-45 -8 -62 -18 -106 -61 -45 -44 -54 -60 -60 -99 -11
-71 2 -121 42 -167 50 -59 98 -81 178 -81 78 0 126 21 174 76 40 46 51 73 51
132 0 91 -71 179 -160 197 -19 3 -42 8 -50 9 -8 2 -39 -1 -69 -6z m104 -59
c78 -21 120 -83 112 -163 -4 -43 -10 -55 -42 -83 -50 -43 -114 -56 -174 -36
-82 27 -116 76 -109 155 7 69 51 113 128 129 19 4 37 7 40 8 3 0 23 -4 45 -10z"/>
<path d="M7531 9960 c-92 -23 -166 -115 -165 -207 2 -112 87 -192 212 -200 59
-4 74 -1 122 24 126 65 157 207 67 309 -55 64 -155 95 -236 74z m139 -72 c55
-29 81 -64 87 -120 18 -162 -230 -219 -315 -73 -43 75 -1 172 85 199 67 20 92
19 143 -6z"/>
<path d="M8014 9540 c-74 -17 -145 -82 -165 -150 -21 -68 2 -138 60 -193 57
-53 112 -72 189 -64 117 12 197 98 194 209 -1 32 -8 71 -16 87 -23 44 -81 89
-138 106 -56 16 -76 17 -124 5z m146 -75 c16 -8 42 -33 56 -55 74 -111 -43
-244 -189 -216 -19 4 -54 24 -78 45 -40 35 -43 41 -43 92 -1 66 28 112 88 141
47 22 116 19 166 -7z"/>
<path d="M12450 851 c0 -11 5 -23 12 -27 7 -5 9 -2 5 9 -7 18 11 27 59 27 26
0 37 -5 44 -22 10 -23 10 -23 7 2 -2 23 -6 25 -64 28 -57 3 -63 1 -63 -17z"/>
<path d="M12758 844 c-4 -3 -4 -38 -1 -78 7 -88 -5 -116 -47 -116 -17 0 -30
-2 -30 -4 0 -2 20 -24 45 -48 40 -40 44 -42 37 -19 -11 40 -7 83 10 118 9 19
12 36 7 44 -12 19 -11 76 1 84 6 3 10 10 10 16 0 10 -23 12 -32 3z"/>
<path d="M10765 790 c-3 -5 -1 -10 4 -10 6 0 11 5 11 10 0 6 -2 10 -4 10 -3 0
-8 -4 -11 -10z"/>
<path d="M13116 791 c-4 -6 -3 -19 3 -28 9 -17 10 -17 17 0 8 21 -10 45 -20
28z"/>
<path d="M10853 778 c-19 -24 -33 -105 -24 -130 9 -20 10 -18 10 17 1 56 24
87 59 79 15 -4 30 -12 34 -18 11 -17 9 -125 -2 -147 -13 -23 -50 -25 -91 -3
-44 22 -45 12 -4 -25 44 -39 68 -39 106 -2 26 27 29 35 29 99 0 69 -1 70 -40
106 -42 38 -61 44 -77 24z"/>
<path d="M10572 759 c-13 -34 -21 -159 -11 -159 5 0 9 -7 9 -15 0 -22 45 -65
67 -65 25 0 67 61 50 72 -9 6 -9 8 1 8 7 0 12 6 11 13 -4 34 1 40 19 24 20
-18 42 -22 42 -9 0 5 -20 32 -45 61 -25 29 -48 59 -53 67 -4 8 -25 17 -45 21
-32 5 -38 3 -45 -18z m97 -65 c16 -35 14 -86 -5 -112 -12 -17 -24 -22 -47 -20
l-32 3 -3 73 c-2 44 2 79 8 87 16 19 64 0 79 -31z"/>
<path d="M12136 771 c-4 -5 -9 -36 -12 -68 -7 -64 -7 -65 87 -147 44 -39 45
-40 117 -37 58 2 78 7 96 24 13 12 33 29 45 37 20 15 20 17 7 105 -13 88 -14
89 -15 33 -1 -68 -24 -134 -58 -166 -46 -45 -177 -12 -216 54 -5 8 -5 24 -1
37 5 18 4 20 -7 10 -7 -7 -21 -13 -31 -13 -16 0 -17 6 -12 43 4 23 10 46 15
52 12 12 11 45 0 45 -6 0 -12 -4 -15 -9z"/>
<path d="M12951 761 c-8 -5 -11 -16 -8 -25 8 -20 37 -21 37 -1 0 8 0 18 1 22
1 12 -15 14 -30 4z"/>
<path d="M9979 731 c-25 -25 -29 -37 -29 -83 0 -46 4 -58 28 -80 35 -34 72
-48 127 -48 58 0 71 6 96 47 25 40 21 76 -13 131 -25 41 -70 62 -133 62 -38 0
-52 -5 -76 -29z m129 -5 c36 -19 58 -44 76 -88 14 -33 14 -38 -4 -61 -35 -44
-145 -40 -190 8 -18 19 -20 29 -14 74 5 42 12 54 33 66 33 18 65 19 99 1z"/>
<path d="M10044 675 c-4 -8 -4 -22 -1 -29 8 -21 64 -48 90 -44 20 4 18 6 -15
27 -20 12 -40 31 -43 42 -8 23 -23 25 -31 4z"/>
<path d="M10371 731 c-39 -37 -42 -60 -3 -35 76 49 88 64 53 64 -10 0 -33 -13
-50 -29z"/>
<path d="M12895 713 c-54 -12 -75 -26 -75 -50 0 -26 15 -23 38 9 7 10 19 18
26 18 8 0 19 7 26 15 7 8 11 14 9 14 -2 -1 -13 -3 -24 -6z"/>
<path d="M11530 691 c0 -5 7 -22 15 -38 8 -15 17 -40 20 -55 8 -40 25 -35 25
7 0 23 -5 35 -14 35 -8 0 -17 7 -20 16 -9 22 -8 24 10 24 8 0 12 5 9 10 -8 13
-45 13 -45 1z"/>
<path d="M11740 689 c0 -5 4 -8 9 -4 6 3 34 -15 64 -39 30 -24 69 -52 88 -61
l33 -18 -29 -23 c-44 -35 -61 -31 -89 24 -30 59 -65 103 -66 82 0 -17 88 -150
100 -150 13 0 90 60 90 71 0 16 -57 61 -124 97 -65 35 -76 38 -76 21z"/>
<path d="M11960 673 c0 -16 -3 -39 -7 -53 -6 -23 -5 -24 11 -11 26 21 38 49
31 71 -10 30 -35 25 -35 -7z"/>
<path d="M13284 668 c1 -12 8 -24 14 -26 18 -6 14 35 -3 42 -11 4 -14 -1 -11
-16z"/>
<path d="M12272 657 c-12 -13 -22 -29 -22 -36 0 -7 14 1 30 19 17 18 30 34 30
36 0 11 -19 1 -38 -19z"/>
<path d="M12962 655 c0 -16 2 -22 5 -12 2 9 2 23 0 30 -3 6 -5 -1 -5 -18z"/>
<path d="M13501 656 l-23 -25 34 3 c48 4 62 14 47 32 -17 20 -32 17 -58 -10z"/>
<path d="M11377 663 c-11 -10 -8 -53 3 -53 6 0 10 7 10 16 0 12 6 15 28 10
l27 -6 -24 20 c-25 21 -34 24 -44 13z"/>
<path d="M11620 646 c31 -34 89 -70 98 -61 8 7 -26 35 -83 66 l-40 22 25 -27z"/>
<path d="M12361 665 c1 -19 18 -51 18 -35 0 8 -4 22 -9 30 -5 8 -9 11 -9 5z"/>
<path d="M13826 653 c-45 -12 -64 -13 -83 -4 -40 18 -57 13 -112 -38 -54 -50
-59 -71 -15 -71 18 0 34 14 61 51 31 44 39 50 62 44 14 -3 31 -5 36 -5 6 0 47
3 92 6 l82 6 7 -28 c5 -18 3 -29 -4 -32 -7 -2 -12 -9 -12 -15 1 -18 38 -63 45
-55 13 13 -18 113 -42 136 -28 26 -37 26 -117 5z"/>
<path d="M11085 627 c-11 -9 -16 -19 -12 -23 14 -14 143 -17 167 -4 28 15 18
24 -28 26 -20 1 -53 4 -72 8 -25 5 -41 3 -55 -7z m80 -7 c16 -7 12 -9 -18 -9
-23 -1 -36 3 -32 9 7 12 23 12 50 0z"/>
<path d="M13053 594 c-8 -21 21 -48 42 -40 23 8 15 37 -13 47 -17 6 -24 5 -29
-7z"/>
<path d="M13231 584 c-13 -9 -44 -25 -69 -34 l-46 -18 35 -7 c41 -10 263 -10
278 -1 25 16 11 36 -24 36 -23 0 -34 -4 -32 -12 3 -17 -74 -22 -128 -10 l-40
10 33 12 c17 6 32 18 32 26 0 18 -10 18 -39 -2z"/>
<path d="M13825 567 c4 -10 -3 -18 -22 -25 -26 -10 -25 -10 20 -11 52 -1 58
11 19 37 -20 13 -22 13 -17 -1z"/>
<path d="M10735 557 c-8 -19 12 -50 26 -41 13 7 11 17 -5 40 -14 18 -15 18
-21 1z"/>
<path d="M12903 559 c9 -6 15 -14 12 -19 -9 -14 34 -38 60 -33 21 5 22 8 13
29 -11 24 -29 32 -78 32 -22 1 -23 0 -7 -9z"/>
<path d="M10496 544 c-22 -21 -20 -27 4 -14 11 6 20 15 20 20 0 14 -6 12 -24
-6z"/>
<path d="M12022 551 c-10 -6 -10 -10 3 -21 12 -10 21 -10 45 0 17 7 33 17 36
21 7 11 -67 11 -84 0z"/>
<path d="M12765 520 c-7 -21 0 -40 16 -40 12 0 12 47 0 55 -5 3 -12 -4 -16
-15z"/>
<path d="M13055 530 l-30 -8 37 -1 c20 0 40 4 43 9 7 11 -6 11 -50 0z"/>
<path d="M12647 519 c7 -7 15 -10 18 -7 3 3 -2 9 -12 12 -14 6 -15 5 -6 -5z"/>
</g>
</svg>
